<?xml version="1.0" encoding="utf-8"?>
<!-- Generator: Adobe Illustrator 16.0.0, SVG Export Plug-In . SVG Version: 6.00 Build 0)  -->
<!DOCTYPE svg PUBLIC "-//W3C//DTD SVG 1.1//EN" "http://www.w3.org/Graphics/SVG/1.1/DTD/svg11.dtd">
<svg version="1.1" id="Layer_1" xmlns="http://www.w3.org/2000/svg" xmlns:xlink="http://www.w3.org/1999/xlink" x="0px" y="0px"
	 width="48px" height="48px" viewBox="0 0 48 48" enable-background="new 0 0 48 48" xml:space="preserve">
<g>
	<path fill="none" d="M37.44,27.529H25.114c-0.51,0-2.733,0.357-3.901,0.869h-6.067c-0.011,0-0.02,0-0.029,0
		c-0.978-0.447-1.435-1.17-1.435-2.258c0-1.248,0.605-2.686,1.092-3.84l0.063-0.147c0.061-0.144,0.025-0.312-0.09-0.419
		c-0.116-0.106-0.285-0.13-0.425-0.058c-4.536,2.329-5.025,6.546-5.026,8.251c0,0.664,0.068,1.08,0.071,1.097
		c0.023,0.146,0.136,0.263,0.276,0.301c0.053,0.015,0.525,0.164,0.592,0.876c0,0.175-0.163,0.417-0.29,0.568
		c-0.371,0.082-0.648,0.409-0.648,0.799v1.979c0,0.45,0.372,0.817,0.831,0.817l3.752,0.001c0.457-0.001,0.831-0.367,0.83-0.818
		l0.001-1.634c0.005-0.03,0.009-0.062,0.008-0.094c-0.001-0.143-0.106-0.713-0.402-0.939c-0.045-0.05-0.095-0.104-0.15-0.158
		c-0.145-0.146-0.215-0.284-0.216-0.426c0-0.501,0.857-1.105,1.316-1.348h5.728c1.082,0.568,3.577,0.973,4.12,0.973h12.326
		c0.699,0,1.265-0.669,1.266-1.494v-1.401C38.705,28.199,38.138,27.529,37.44,27.529z"/>
	<path fill="none" d="M30.573,1.347v10.42c0,0.314,0.256,0.569,0.569,0.569h10.42c0.252,0,0.243-0.164,0.318-0.391L30.964,1.029
		C30.737,1.104,30.573,1.096,30.573,1.347z"/>
	<path fill="#6633CC" d="M10.292,35.369v-1.646c0.104-0.028,0.198-0.083,0.274-0.159c0.074-0.072,0.731-0.743,0.659-1.478
		c-0.082-0.878-0.561-1.326-0.91-1.538c-0.013-0.158-0.024-0.368-0.023-0.619c0-1.542,0.396-4.311,2.903-6.344
		c-0.274,0.791-0.51,1.689-0.51,2.556c0,1.563,0.749,2.658,2.226,3.255c0.073,0.03,0.396,0.03,0.47-0.001h4.858l-0.001,0.559
		l-5.094-0.001c-0.148,0.002-0.29,0.057-0.401,0.154c-0.383,0.195-1.79,1.03-1.79,2.19c0,0.412,0.17,0.792,0.507,1.128
		c0.052,0.052,0.097,0.101,0.136,0.146c0.013,0.016,0.089,0.085,0.109,0.1c-0.004-0.002-0.007-0.004-0.009-0.004
		c-0.022,0,0.017,0.116,0.025,0.169l-0.008,1.533H10.292z"/>
	<path fill="#6633CC" d="M11.123,7.904c0-0.395-0.107-0.686-0.323-0.874c-0.215-0.188-0.553-0.283-1.013-0.283H9.02v2.358h0.554
		c0.518,0,0.905-0.103,1.163-0.308S11.123,8.295,11.123,7.904z"/>
	<path fill="#6633CC" d="M26.235,8.797c0.257-0.205,0.386-0.502,0.386-0.894c0-0.395-0.108-0.686-0.324-0.874
		c-0.215-0.188-0.553-0.283-1.013-0.283h-0.766v2.358h0.554C25.591,9.105,25.978,9.002,26.235,8.797z"/>
	<path fill="#6633CC" d="M42.764,11.413L41.97,10.62l-9.639-9.638l-0.835-0.835c-0.068-0.069-0.155-0.115-0.248-0.135h-0.29H6.189
		c-0.607,0-1.1,0.492-1.1,1.1V46.9c0,0.607,0.493,1.1,1.1,1.1h35.609c0.607,0,1.1-0.492,1.1-1.1V11.951v-0.289
		C42.878,11.569,42.832,11.482,42.764,11.413z M22.834,5.367h2.537c0.964,0,1.696,0.207,2.197,0.622
		c0.502,0.415,0.753,1.033,0.753,1.855c0,0.854-0.268,1.508-0.802,1.961c-0.534,0.452-1.294,0.679-2.279,0.679h-0.722v2.825h-1.684
		V5.367z M14.322,5.367h1.684V8.48h3.146V5.367h1.679v7.942h-1.679V9.881h-3.146v3.428h-1.684V5.367z M9.02,13.309H7.336V5.367
		h2.537c0.963,0,1.696,0.207,2.197,0.622c0.502,0.415,0.752,1.033,0.752,1.855c0,0.854-0.267,1.508-0.801,1.961
		c-0.534,0.452-1.293,0.679-2.279,0.679H9.02V13.309z M38.705,30.427c-0.001,0.825-0.566,1.494-1.266,1.494H25.113
		c-0.543,0-3.038-0.404-4.12-0.973h-5.728c-0.459,0.242-1.316,0.847-1.316,1.348c0.001,0.142,0.071,0.28,0.216,0.426
		c0.056,0.055,0.105,0.108,0.15,0.158c0.296,0.227,0.401,0.797,0.402,0.939c0.001,0.032-0.003,0.063-0.008,0.094l-0.001,1.634
		c0.001,0.451-0.373,0.817-0.83,0.818l-3.752-0.001c-0.459,0-0.831-0.367-0.831-0.817v-1.979c0-0.39,0.277-0.717,0.648-0.799
		c0.127-0.151,0.29-0.394,0.29-0.568c-0.066-0.712-0.539-0.861-0.592-0.876c-0.141-0.038-0.253-0.155-0.276-0.301
		c-0.003-0.017-0.071-0.433-0.071-1.097c0.001-1.705,0.49-5.922,5.026-8.251c0.14-0.072,0.309-0.048,0.425,0.058
		c0.115,0.107,0.15,0.275,0.09,0.419L14.773,22.3c-0.486,1.154-1.092,2.593-1.092,3.84c0,1.088,0.457,1.811,1.435,2.258
		c0.01,0,0.019,0,0.029,0h6.067c1.168-0.512,3.392-0.869,3.901-0.869H37.44c0.697,0,1.265,0.67,1.265,1.496V30.427z M41.563,12.336
		h-10.42c-0.313,0-0.569-0.255-0.569-0.569V1.347c0-0.251,0.164-0.243,0.391-0.318l10.917,10.917
		C41.806,12.172,41.814,12.336,41.563,12.336z"/>
</g>
<path fill="none" d="M6.119,38.15v-6.764c-0.531,1.012-0.835,2.161-0.835,3.382C5.284,35.988,5.588,37.138,6.119,38.15z"/>
<path fill="#6360A6" d="M33.653,12.488c-0.572,0.142-1.058,0.293-1.511,0.47c-0.193,0.076-0.39,0.164-0.59,0.256h2.729
	L33.653,12.488z"/>
<path fill="none" d="M34.365,18.648c-3.379,1.321-5.054,5.144-3.733,8.523s5.143,5.055,8.522,3.734
	c1.158-0.453,2.109-1.203,2.815-2.125v-8.016C40.23,18.508,37.148,17.561,34.365,18.648z"/>
<path fill="none" d="M36.092,15.028c0.552-0.038,1.132-0.024,1.724,0.041l0.223,0.024l1.768-1.88h-5.523l1.587,1.831L36.092,15.028z
	"/>
<path fill="none" d="M12.594,42.079c4.032,0,7.311-3.28,7.311-7.311c0-4.031-3.279-7.311-7.311-7.311
	c-2.811,0-5.252,1.597-6.475,3.929v6.764C7.342,40.482,9.783,42.079,12.594,42.079z"/>
<path fill="none" d="M9.343,45.126c-0.587-0.184-1.182-0.432-1.767-0.737l-0.22-0.116L6.119,44.86v0.915
	c0,0.614,0.498,1.112,1.112,1.112h2.949l-0.6-1.687L9.343,45.126z"/>
<g>
	<path fill="#855CD6" d="M8.355,28.839c0.228-2.229,1.278-5.879,5.507-8.05c0.029-0.015,0.062-0.021,0.092-0.034
		c-0.483-0.052-0.935-0.084-1.359-0.084c-0.541,0-1.105,0.04-1.755,0.125l-1.259,3.541L9.343,24.41
		c-0.587,0.185-1.182,0.433-1.767,0.739l-0.221,0.115l-1.236-0.588v6.711C6.652,30.369,7.428,29.505,8.355,28.839z"/>
	<path fill="#855CD6" d="M15.608,24.335l-0.274-0.77c-0.343,0.867-0.652,1.799-0.652,2.575c0,0.627,0.186,0.985,0.671,1.258h5.662
		c0.69-0.271,1.601-0.492,2.404-0.645l0.297-0.625c-0.722-0.928-1.555-1.761-2.482-2.482l-3.401,1.617l-0.22-0.115
		c-0.586-0.306-1.181-0.555-1.768-0.739L15.608,24.335z"/>
	<path fill="#855CD6" d="M39.684,30.654c-0.106,1.268-1.066,2.267-2.244,2.267h-6.978l-0.195,2.74
		c0.909,0.541,1.88,0.967,2.894,1.268l2.321-2.469l0.224,0.024c0.59,0.064,1.17,0.078,1.722,0.039l0.225-0.015l2.215,2.556
		c0.571-0.141,1.057-0.291,1.512-0.47c0.194-0.076,0.392-0.164,0.592-0.256V28.78C41.377,29.555,40.601,30.196,39.684,30.654z"/>
	<path fill="#855CD6" d="M40.857,13.213h-1.052l-1.768,1.88l-0.223-0.024c-0.592-0.065-1.172-0.079-1.724-0.041l-0.223,0.016
		l-1.587-1.831h-2.729c-0.269,0.125-0.544,0.261-0.841,0.424l0.104,3.38l-0.175,0.14c-0.433,0.347-0.849,0.75-1.239,1.198
		l-0.147,0.169l-3.38-0.241c-0.541,0.909-0.967,1.88-1.268,2.894l2.469,2.321l-0.024,0.222c-0.064,0.592-0.078,1.172-0.04,1.724
		l0.016,0.224l-0.994,0.861h4.385c-0.889-3.208,0.78-6.644,3.947-7.881c2.783-1.087,5.865-0.14,7.604,2.116v-6.439
		C41.97,13.711,41.472,13.213,40.857,13.213z"/>
	<path fill="#855CD6" d="M26.307,32.921h-1.193c-0.608,0-3.018-0.378-4.348-0.973h-1.428c0.364,0.868,0.567,1.821,0.567,2.82
		c0,4.03-3.279,7.311-7.311,7.311c-2.811,0-5.252-1.597-6.475-3.929v6.71l1.237-0.588l0.22,0.116
		c0.585,0.306,1.179,0.554,1.767,0.737l0.237,0.075l0.6,1.687h4.829l0.6-1.687l0.237-0.075c0.586-0.183,1.181-0.432,1.767-0.738
		l0.22-0.115l3.401,1.617c0.927-0.721,1.76-1.554,2.482-2.481l-1.617-3.401l0.116-0.221c0.305-0.584,0.554-1.179,0.739-1.767
		l0.075-0.238l3.54-1.258c0.085-0.651,0.125-1.215,0.125-1.755s-0.04-1.104-0.125-1.755L26.307,32.921z"/>
</g>
<path fill="#504C71" d="M31.143,0c-0.063,0-0.124,0.004-0.185,0.012h0.29C31.214,0.004,31.179,0,31.143,0z"/>
<path fill="#504C71" d="M42.91,11.767c0-0.036-0.005-0.07-0.012-0.104v0.289C42.905,11.891,42.91,11.83,42.91,11.767z"/>
</svg>
