<?xml version="1.0" encoding="utf-8"?>
<!-- Generator: Adobe Illustrator 16.0.0, SVG Export Plug-In . SVG Version: 6.00 Build 0)  -->
<!DOCTYPE svg PUBLIC "-//W3C//DTD SVG 1.1//EN" "http://www.w3.org/Graphics/SVG/1.1/DTD/svg11.dtd">
<svg version="1.1" id="Layer_1" xmlns="http://www.w3.org/2000/svg" xmlns:xlink="http://www.w3.org/1999/xlink" x="0px" y="0px"
	 width="48px" height="48px" viewBox="0 0 48 48" enable-background="new 0 0 48 48" xml:space="preserve">
<path fill="#1A3568" d="M46.529,5.476H1.471C0.66,5.476,0,6.136,0,6.948v34.106c0,0.811,0.66,1.47,1.471,1.47h45.058
	c0.812,0,1.471-0.659,1.471-1.47V6.948C48,6.136,47.341,5.476,46.529,5.476z M8.392,7.522c0.441,0,0.796,0.356,0.796,0.797
	c0,0.441-0.355,0.797-0.796,0.797S7.594,8.76,7.594,8.319C7.594,7.878,7.951,7.522,8.392,7.522z M5.479,7.522
	c0.441,0,0.798,0.356,0.798,0.797c0,0.441-0.357,0.797-0.798,0.797S4.683,8.76,4.683,8.319C4.683,7.878,5.039,7.522,5.479,7.522z
	 M2.567,7.522c0.441,0,0.798,0.356,0.798,0.797c0,0.441-0.357,0.797-0.798,0.797S1.77,8.76,1.77,8.319
	C1.77,7.878,2.126,7.522,2.567,7.522z M46.945,39.934c0,0.54-0.012,0.564-0.537,0.564H1.602c-0.525,0-0.536-0.024-0.536-0.564
	V10.641h45.879V39.934z"/>
<path fill="#8A9ABB" d="M9.596,19.887H8.34c0.342-1.11,0.55-1.805,0.622-2.087c0.018,0.08,0.047,0.187,0.087,0.324
	C9.091,18.259,9.273,18.847,9.596,19.887z M28.971,19.05c0.153-0.108,0.229-0.278,0.229-0.508c0-0.229-0.076-0.392-0.237-0.488
	c-0.155-0.097-0.397-0.145-0.729-0.145h-0.309v1.302h0.328C28.578,19.211,28.817,19.157,28.971,19.05z M33.439,21.101
	c0.817,0,1.226-0.542,1.226-1.625c0-1.087-0.408-1.63-1.218-1.63c-0.408,0-0.715,0.137-0.919,0.411
	c-0.208,0.274-0.312,0.68-0.312,1.219c0,0.538,0.104,0.943,0.309,1.216C32.728,20.964,33.034,21.101,33.439,21.101z M1.066,10.641
	h45.879v29.292c0,0.54-0.012,0.564-0.537,0.564H1.602c-0.525,0-0.536-0.024-0.536-0.564V10.641z M45.163,24.916
	c0-0.15-0.121-0.271-0.271-0.271H3.038c-0.15,0-0.271,0.121-0.271,0.271v7.772c0,0.149,0.122,0.271,0.271,0.271h41.855
	c0.149,0,0.271-0.121,0.271-0.271V24.916z M41.639,17.921h1.31v3.97h1.022v-3.97h1.31v-0.85h-3.642V17.921z M36.52,19.469
	c0,0.802,0.198,1.417,0.596,1.847c0.396,0.428,0.961,0.642,1.702,0.642c0.736,0,1.305-0.214,1.7-0.642
	c0.395-0.429,0.595-1.042,0.595-1.84c0-0.801-0.197-1.414-0.59-1.841c-0.394-0.427-0.959-0.639-1.7-0.639s-1.31,0.211-1.704,0.634
	C36.72,18.053,36.52,18.666,36.52,19.469z M31.146,19.469c0,0.802,0.198,1.417,0.594,1.847c0.395,0.428,0.961,0.642,1.699,0.642
	s1.307-0.214,1.702-0.642c0.396-0.429,0.596-1.042,0.596-1.84c0-0.801-0.198-1.414-0.588-1.841
	c-0.396-0.427-0.962-0.639-1.702-0.639c-0.741,0-1.308,0.211-1.705,0.634C31.345,18.053,31.146,18.666,31.146,19.469z
	 M26.902,21.892h1.023v-1.849h0.543l1.151,1.849h1.134c-0.22-0.316-0.691-1.017-1.418-2.101c0.287-0.125,0.507-0.298,0.665-0.519
	c0.152-0.221,0.231-0.474,0.231-0.757c0-0.486-0.157-0.848-0.472-1.086c-0.313-0.238-0.798-0.357-1.452-0.357h-1.406V21.892z
	 M21.367,21.892h2.777v-0.844H22.39v-1.244h1.631v-0.838H22.39v-1.058h1.754v-0.837h-2.777V21.892z M16.2,21.892h1.023v-2.081h1.909
	v2.081h1.019v-4.82h-1.019v1.889h-1.909v-1.889H16.2V21.892z M11.683,19.488c0,0.796,0.186,1.406,0.557,1.832
	c0.372,0.426,0.909,0.638,1.609,0.638c0.489,0,0.93-0.082,1.326-0.247v-0.857c-0.481,0.169-0.892,0.253-1.23,0.253
	c-0.807,0-1.21-0.538-1.21-1.612c0-0.516,0.105-0.919,0.317-1.208c0.21-0.289,0.508-0.434,0.893-0.434
	c0.176,0,0.355,0.032,0.538,0.096c0.182,0.063,0.364,0.138,0.544,0.224l0.33-0.832c-0.472-0.226-0.943-0.339-1.411-0.339
	c-0.459,0-0.86,0.1-1.202,0.301c-0.342,0.202-0.604,0.491-0.787,0.868C11.774,18.547,11.683,18.987,11.683,19.488z M6.631,21.892
	h1.102l0.349-1.147H9.84l0.35,1.147h1.101l-1.708-4.84H8.333L6.631,21.892z M2.721,19.488c0,0.796,0.186,1.406,0.557,1.832
	s0.908,0.638,1.609,0.638c0.488,0,0.93-0.082,1.325-0.247v-0.857c-0.481,0.169-0.891,0.253-1.229,0.253
	c-0.807,0-1.21-0.538-1.21-1.612c0-0.516,0.105-0.919,0.317-1.208c0.21-0.289,0.508-0.434,0.893-0.434
	c0.176,0,0.355,0.032,0.538,0.096c0.182,0.063,0.364,0.138,0.544,0.224l0.33-0.832c-0.473-0.226-0.943-0.339-1.412-0.339
	c-0.459,0-0.86,0.1-1.203,0.301c-0.341,0.202-0.604,0.491-0.786,0.868C2.812,18.547,2.721,18.987,2.721,19.488z M38.817,21.101
	c0.815,0,1.223-0.542,1.223-1.625c0-1.087-0.407-1.63-1.218-1.63c-0.407,0-0.714,0.137-0.919,0.411
	c-0.207,0.274-0.312,0.68-0.312,1.219c0,0.538,0.104,0.943,0.31,1.216C38.104,20.964,38.41,21.101,38.817,21.101z"/>
<circle fill="#7D9DDE" cx="2.567" cy="8.319" r="0.797"/>
<circle fill="#7D9DDE" cx="5.479" cy="8.319" r="0.797"/>
<circle fill="#7D9DDE" cx="8.392" cy="8.319" r="0.797"/>
<path fill="#FAFAF8" d="M44.893,24.644H3.038c-0.15,0-0.271,0.121-0.271,0.271v7.772c0,0.149,0.122,0.271,0.271,0.271h41.855
	c0.149,0,0.271-0.121,0.271-0.271v-7.772C45.163,24.765,45.042,24.644,44.893,24.644z M5.801,32.179H4.716v-6.77h1.085V32.179z"/>
<path fill="#7D9DDE" d="M44.893,33.116H3.038c-0.237,0-0.43-0.192-0.43-0.429v-7.772c0-0.237,0.193-0.43,0.43-0.43h41.855
	c0.236,0,0.429,0.193,0.429,0.43v7.772C45.321,32.924,45.129,33.116,44.893,33.116z M3.038,24.802c-0.063,0-0.113,0.051-0.113,0.113
	v7.772c0,0.062,0.051,0.112,0.113,0.112h41.855c0.062,0,0.112-0.051,0.112-0.112v-7.772c0-0.063-0.051-0.113-0.112-0.113H3.038z
	 M5.959,32.337H4.558v-7.086h1.401V32.337z M4.875,32.021h0.769v-6.453H4.875V32.021z"/>
<rect x="4.716" y="25.409" fill="#1A3568" width="1.085" height="6.77"/>
</svg>
