<?xml version="1.0" encoding="utf-8"?>
<!-- Generator: Adobe Illustrator 16.0.0, SVG Export Plug-In . SVG Version: 6.00 Build 0)  -->
<!DOCTYPE svg PUBLIC "-//W3C//DTD SVG 1.1//EN" "http://www.w3.org/Graphics/SVG/1.1/DTD/svg11.dtd">
<svg version="1.1" id="Layer_1" xmlns="http://www.w3.org/2000/svg" xmlns:xlink="http://www.w3.org/1999/xlink" x="0px" y="0px"
	 width="48px" height="48px" viewBox="0 0 48 48" enable-background="new 0 0 48 48" xml:space="preserve">
<g>
	<g>
		<path fill="#F8F8EA" d="M41.791,39.422l1.199-1.294c0.112-0.121,0.157-0.29,0.12-0.451c-0.036-0.161-0.15-0.294-0.305-0.354
			l-1.641-0.646l0.518-1.687c0.049-0.157,0.017-0.329-0.087-0.458c-0.103-0.131-0.266-0.199-0.428-0.188l-1.759,0.131l-0.265-1.745
			c-0.024-0.163-0.128-0.304-0.277-0.375c-0.146-0.071-0.323-0.064-0.467,0.017l-0.666,0.384l-0.862,0.498l-0.994-1.457
			c-0.123-0.178-0.356-0.228-0.558-0.172c-0.105,0.029-0.204,0.078-0.269,0.172l-0.699,1.024l-0.295,0.433l-0.602-0.348
			l-0.927-0.534c-0.145-0.082-0.319-0.089-0.467-0.017c-0.149,0.071-0.253,0.212-0.277,0.375l-0.265,1.745l-1.761-0.131
			c-0.165-0.012-0.325,0.057-0.428,0.188c-0.104,0.129-0.136,0.301-0.087,0.459l0.52,1.686l-1.641,0.646
			c-0.154,0.06-0.268,0.192-0.305,0.354s0.008,0.33,0.12,0.451l0.253,0.273l0.944,1.021l-0.092,0.099l-0.437,0.473l-0.669,0.723
			c-0.112,0.121-0.157,0.29-0.12,0.451s0.15,0.294,0.305,0.354l0.882,0.348l0.759,0.299l-0.52,1.686
			c-0.049,0.158-0.017,0.33,0.087,0.459c0.103,0.131,0.262,0.199,0.428,0.188l1.761-0.131l0.265,1.745
			c0.024,0.163,0.128,0.304,0.277,0.375c0.148,0.072,0.323,0.065,0.467-0.017l1.528-0.882l0.994,1.457
			c0.094,0.136,0.248,0.218,0.413,0.218s0.319-0.082,0.413-0.218l0.994-1.457l1.528,0.882c0.143,0.081,0.318,0.088,0.467,0.017
			c0.149-0.071,0.253-0.212,0.277-0.375l0.265-1.745l1.759,0.131c0.163,0.013,0.325-0.057,0.428-0.188
			c0.104-0.129,0.136-0.301,0.087-0.458l-0.518-1.687l1.641-0.646c0.154-0.06,0.269-0.192,0.305-0.354
			c0.037-0.161-0.008-0.33-0.12-0.451L41.791,39.422z M40.742,39.762l1.017,1.097l-1.391,0.548
			c-0.243,0.096-0.372,0.362-0.295,0.611l0.438,1.43l-1.49-0.111c-0.285-0.029-0.492,0.166-0.531,0.424l-0.225,1.479l-1.295-0.747
			c-0.229-0.13-0.516-0.064-0.663,0.151l-0.843,1.234l-0.843-1.234c-0.097-0.141-0.253-0.218-0.413-0.218
			c-0.085,0-0.171,0.021-0.25,0.066l-1.295,0.747l-0.225-1.479c-0.039-0.258-0.252-0.453-0.531-0.424l-1.492,0.111l0.44-1.429
			c0.016-0.05,0.017-0.101,0.017-0.15c-0.001-0.199-0.116-0.386-0.312-0.462l-1.391-0.548l0.554-0.599l0.461-0.498
			c0.131-0.143,0.163-0.34,0.101-0.512c-0.021-0.061-0.055-0.118-0.101-0.168l-0.452-0.489l-0.563-0.607l1.391-0.548
			c0.244-0.096,0.372-0.362,0.295-0.612l-0.44-1.429l1.492,0.111c0.279,0.019,0.492-0.166,0.531-0.424l0.225-1.479l1.009,0.582
			l0.286,0.165c0.194,0.109,0.428,0.071,0.585-0.074c0.027-0.025,0.057-0.046,0.078-0.077l0.347-0.508l0.496-0.727l0.843,1.234
			c0.147,0.215,0.435,0.279,0.663,0.151l0.764-0.44l0.531-0.307l0.225,1.479c0.039,0.258,0.246,0.442,0.531,0.424l1.49-0.111
			l-0.438,1.43c-0.077,0.249,0.052,0.516,0.295,0.611l1.391,0.548l-1.017,1.097C40.565,39.273,40.565,39.57,40.742,39.762z"/>
		<path fill="#F8F8EA" d="M37.734,35.697c-0.663-0.405-1.436-0.651-2.27-0.651c-0.085,0-0.164,0.021-0.247,0.024
			c-0.235,0.014-0.468,0.033-0.691,0.082c-0.778,0.171-1.474,0.552-2.035,1.076c-0.385,0.357-0.697,0.784-0.934,1.26
			c-0.151,0.306-0.277,0.627-0.354,0.969c-0.057,0.252-0.084,0.513-0.096,0.778c-0.002,0.063-0.019,0.123-0.019,0.187
			c0,0.906,0.275,1.748,0.747,2.446c0.787,1.163,2.118,1.929,3.629,1.929c2.416,0,4.375-1.959,4.375-4.375
			C39.84,37.84,38.992,36.466,37.734,35.697z"/>
	</g>
	<g>
		<path fill="#5C677A" d="M10.569,32.085V7.091c0-0.53,0.43-0.959,0.958-0.959H26.98V1.166c0-0.22,0.143-0.212,0.341-0.278
			l5.243,5.244h0.575h0.251c0.082,0.018,0.158,0.058,0.217,0.118l0.729,0.729l3.398,3.398v-0.211
			c-0.018-0.082-0.059-0.157-0.119-0.218l-0.69-0.692l-8.41-8.409l-0.728-0.729c-0.062-0.06-0.137-0.1-0.219-0.117h-0.252H5.707
			c-0.529,0-0.96,0.43-0.96,0.959v35.235C5.978,34.082,8.083,32.546,10.569,32.085z"/>
		<g>
			<path fill="#CCCC66" d="M41.759,37.985l-1.391-0.548c-0.243-0.096-0.372-0.362-0.295-0.611l0.438-1.43l-1.49,0.111
				c-0.285,0.019-0.492-0.166-0.531-0.424l-0.225-1.479l-0.531,0.307l-0.764,0.44c-0.229,0.128-0.516,0.063-0.663-0.151
				l-0.843-1.234l-0.496,0.727L34.622,34.2c-0.021,0.031-0.051,0.052-0.078,0.077c-0.157,0.146-0.391,0.184-0.585,0.074
				l-0.286-0.165l-1.009-0.582l-0.225,1.479c-0.039,0.258-0.252,0.442-0.531,0.424l-1.492-0.111l0.44,1.429
				c0.077,0.25-0.051,0.517-0.295,0.612l-1.391,0.548l0.563,0.607l0.452,0.489c0.046,0.05,0.079,0.107,0.101,0.168
				c0.063,0.172,0.03,0.369-0.101,0.512l-0.461,0.498l-0.554,0.599l1.391,0.548c0.195,0.076,0.311,0.263,0.312,0.462
				c0,0.05-0.001,0.101-0.017,0.15l-0.44,1.429l1.492-0.111c0.279-0.029,0.492,0.166,0.531,0.424l0.225,1.479l1.295-0.747
				c0.079-0.045,0.165-0.066,0.25-0.066c0.16,0,0.316,0.077,0.413,0.218l0.843,1.234l0.843-1.234
				c0.147-0.216,0.435-0.281,0.663-0.151l1.295,0.747l0.225-1.479c0.039-0.258,0.246-0.453,0.531-0.424l1.49,0.111l-0.438-1.43
				c-0.077-0.249,0.052-0.516,0.295-0.611l1.391-0.548l-1.017-1.097c-0.177-0.191-0.177-0.488,0-0.68L41.759,37.985z M35.465,43.797
				c-1.511,0-2.842-0.766-3.629-1.929c-0.472-0.698-0.747-1.54-0.747-2.446c0-0.063,0.017-0.123,0.019-0.187
				c0.012-0.266,0.039-0.526,0.096-0.778c0.077-0.342,0.203-0.663,0.354-0.969c0.236-0.476,0.549-0.902,0.934-1.26
				c0.562-0.524,1.257-0.905,2.035-1.076c0.224-0.049,0.456-0.068,0.691-0.082c0.083-0.004,0.162-0.024,0.247-0.024
				c0.834,0,1.606,0.246,2.27,0.651c1.258,0.769,2.105,2.143,2.105,3.725C39.84,41.838,37.881,43.797,35.465,43.797z"/>
			<path fill="#CCCC66" d="M43.438,16.08l-0.693-0.693l-5.01-5.01l-3.398-3.398l-0.729-0.729c-0.059-0.06-0.135-0.1-0.217-0.118
				H33.14h-0.575H26.98H11.527c-0.528,0-0.958,0.43-0.958,0.959v24.994c0.509-0.095,1.032-0.15,1.568-0.15
				c4.727,0,8.559,3.831,8.559,8.558c0,0.47-0.048,0.927-0.121,1.376c-0.429,2.647-2.065,4.89-4.333,6.132h26.354
				c0.53,0,0.96-0.432,0.96-0.96V16.549v-0.252C43.538,16.215,43.498,16.139,43.438,16.08z M42.668,16.543
				c-0.067,0.198-0.06,0.34-0.278,0.34h-4.655h-4.436c-0.273,0-0.496-0.222-0.496-0.496v-5.635V7.297
				c0-0.22,0.143-0.211,0.342-0.277l3.625,3.625l0.965,0.965L42.668,16.543z M20.644,19.273c0-3.234,2.619-5.856,5.857-5.856
				c3.236,0,5.855,2.622,5.855,5.856c0,2.33-1.361,4.336-3.332,5.283c0.01,0.025,0.021,0.059,0.021,0.088l0.373,1.329l0.015,0.054
				c-0.002,0.213-0.176,0.389-0.391,0.391l-0.264-0.004l-1.02,0.002v0.416v0.865v0.389l1.026,1.021v0.371l-1.257,1.258l1.193,1.191
				l0.002,0.771l-1.41,1.412l0.896,0.895l0.004,1.154l-1.352,1.35V27.462v-0.956v-0.606v-0.19l-0.641-1.793v2.046l0.001,0.682v1.145
				l0.002,10.618l0.153,0.154l0.021,0.021c-0.569-0.126-1.124-0.623-1.475-1.142c-0.227-0.336-0.37-0.68-0.371-0.938v-7.808v-0.798
				v-0.644v-0.646c0.002-0.066,0.005-0.131,0.01-0.191l-1.026-0.002c-0.212,0.002-0.388-0.172-0.386-0.385l0.385-1.381
				c0.001-0.105,0.041-0.195,0.107-0.264C21.853,23.381,20.641,21.471,20.644,19.273z M42.99,40.716
				c0.112,0.121,0.157,0.29,0.12,0.451c-0.036,0.161-0.15,0.294-0.305,0.354l-1.641,0.646l0.518,1.687
				c0.049,0.157,0.017,0.329-0.087,0.458c-0.103,0.131-0.265,0.2-0.428,0.188l-1.759-0.131l-0.265,1.745
				c-0.024,0.163-0.128,0.304-0.277,0.375c-0.148,0.071-0.324,0.064-0.467-0.017l-1.528-0.882l-0.994,1.457
				c-0.094,0.136-0.248,0.218-0.413,0.218s-0.319-0.082-0.413-0.218l-0.994-1.457l-1.528,0.882
				c-0.144,0.082-0.318,0.089-0.467,0.017c-0.149-0.071-0.253-0.212-0.277-0.375l-0.265-1.745l-1.761,0.131
				c-0.166,0.012-0.325-0.057-0.428-0.188c-0.104-0.129-0.136-0.301-0.087-0.459l0.52-1.686l-0.759-0.299l-0.882-0.348
				c-0.154-0.06-0.268-0.192-0.305-0.354s0.008-0.33,0.12-0.451l0.669-0.723l0.437-0.473l0.092-0.099l-0.944-1.021l-0.253-0.273
				c-0.112-0.121-0.157-0.29-0.12-0.451s0.15-0.294,0.305-0.354l1.641-0.646l-0.52-1.686c-0.049-0.158-0.017-0.33,0.087-0.459
				c0.103-0.131,0.263-0.199,0.428-0.188l1.761,0.131l0.265-1.745c0.024-0.163,0.128-0.304,0.277-0.375
				c0.147-0.072,0.322-0.065,0.467,0.017l0.927,0.534l0.602,0.348l0.295-0.433l0.699-1.024c0.064-0.094,0.163-0.143,0.269-0.172
				c0.201-0.056,0.435-0.006,0.558,0.172l0.994,1.457l0.862-0.498l0.666-0.384c0.144-0.081,0.32-0.088,0.467-0.017
				c0.149,0.071,0.253,0.212,0.277,0.375l0.265,1.745l1.759-0.131c0.162-0.012,0.325,0.057,0.428,0.188
				c0.104,0.129,0.136,0.301,0.087,0.458l-0.518,1.687l1.641,0.646c0.154,0.06,0.269,0.192,0.305,0.354
				c0.037,0.161-0.008,0.33-0.12,0.451l-1.199,1.294L42.99,40.716z"/>
			<path fill="#CCCC66" d="M26.503,18.43c0.803,0,1.462-0.656,1.462-1.464c0-0.808-0.657-1.466-1.464-1.466
				c-0.807,0.003-1.465,0.659-1.463,1.464C25.036,17.773,25.693,18.43,26.503,18.43z"/>
		</g>
		<g>
			<path fill="#29CC29" d="M12.138,33.328c-0.54,0-1.063,0.064-1.569,0.178c-3.201,0.716-5.594,3.569-5.594,6.986
				c0,0.384,0.039,0.758,0.097,1.125c0.467,2.951,2.729,5.306,5.639,5.895c0.461,0.093,0.938,0.143,1.427,0.143
				c3.485,0,6.386-2.49,7.029-5.786c0.087-0.445,0.135-0.905,0.135-1.376C19.302,36.535,16.094,33.328,12.138,33.328z
				 M16.826,38.033l-3.085,3.088c-0.02,0.02-0.047,0.029-0.073,0.029c-0.014,0-0.025-0.004-0.039-0.008
				c-0.038-0.014-0.062-0.055-0.062-0.094v-1.828h-2.72c-0.057,0-0.102-0.048-0.102-0.1v-2.283c0-0.053,0.045-0.1,0.102-0.1h2.72
				v-1.867c0-0.037,0.024-0.074,0.062-0.09c0.014-0.008,0.025-0.01,0.039-0.01c0.026,0,0.053,0.016,0.073,0.031l3.085,3.084
				C16.866,37.928,16.866,37.994,16.826,38.033z"/>
			<g>
				<path fill="#E6E6E7" d="M13.525,41.868c-0.012-0.043-0.046-0.077-0.094-0.077h-2.718v-1.857c0-0.041-0.026-0.078-0.064-0.096
					c-0.013-0.004-0.026-0.008-0.04-0.008c-0.015,0-0.027,0.012-0.041,0.019c-0.011,0.006-0.024,0.006-0.033,0.015l-2.003,2.005
					l-1.081,1.081c-0.041,0.039-0.041,0.102,0,0.143l3.084,3.086c0.009,0.01,0.022,0.01,0.033,0.015
					c0.014,0.007,0.026,0.019,0.041,0.019c0.013,0,0.026-0.002,0.04-0.012c0.038-0.014,0.064-0.053,0.064-0.093V44.26h2.718
					c0.057,0,0.104-0.044,0.104-0.103v-2.267C13.535,41.882,13.528,41.876,13.525,41.868z"/>
			</g>
		</g>
	</g>
</g>
</svg>
