<?xml version="1.0" encoding="utf-8"?>
<!-- Generator: Adobe Illustrator 16.0.0, SVG Export Plug-In . SVG Version: 6.00 Build 0)  -->
<!DOCTYPE svg PUBLIC "-//W3C//DTD SVG 1.1//EN" "http://www.w3.org/Graphics/SVG/1.1/DTD/svg11.dtd">
<svg version="1.1" id="Layer_1" xmlns="http://www.w3.org/2000/svg" xmlns:xlink="http://www.w3.org/1999/xlink" x="0px" y="0px"
	 width="48px" height="48px" viewBox="0 0 48 48" enable-background="new 0 0 48 48" xml:space="preserve">
<g>
	<path fill="#FFCC00" d="M34.57,18.318c0.086-0.131,0.189-0.241,0.303-0.339c0.035-0.196,0.096-0.383,0.209-0.523l0.35-0.431H34.57
		V18.318z"/>
	<path fill="#FFCC00" d="M38.26,23.387L36.551,21c-0.451,0.353-1,0.547-1.619,0.547h-0.98c-0.697,0-1.334-0.254-1.834-0.734
		c-0.506-0.483-0.773-1.1-0.773-1.785v-2.119c-0.156-0.063-0.293-0.164-0.426-0.274v0.033c0,0.424-0.16,0.807-0.463,1.109
		c-0.299,0.295-0.717,0.464-1.148,0.464c-0.436,0-0.842-0.161-1.146-0.455c-0.186-0.182-0.32-0.405-0.398-0.647l-0.809,0.68v2.164
		c0,0.422-0.168,0.818-0.482,1.116c-0.248,0.236-0.564,0.381-0.9,0.428l1.332,1.861H38.26z"/>
	<path fill="#FFCC00" d="M27.602,13.892h0.721c0.713,0,1.33,0.248,1.834,0.739c0.107,0.103,0.195,0.215,0.283,0.331
		c0.078-0.227,0.203-0.437,0.381-0.612c0.156-0.149,0.336-0.266,0.535-0.344v-0.193c0-0.418,0.166-0.812,0.471-1.109
		c0.303-0.292,0.705-0.454,1.137-0.454c0.424,0,0.828,0.16,1.137,0.451c0.311,0.298,0.482,0.693,0.482,1.112v0.079h0.852
		c0.43,0,0.834,0.164,1.141,0.462c0.215,0.208,0.357,0.463,0.424,0.739l5.383-6.632c-1.131-1.309-2.41-2.494-3.809-3.534
		l-12.375,9.22c0.057,0.034,0.119,0.052,0.172,0.093C26.77,14.009,27.184,13.892,27.602,13.892z"/>
	<path fill="#FFCC00" d="M44.572,32.247c-0.014-0.05-0.041-0.099-0.072-0.142l-3.6-5.027v5.631c0,0.936-0.783,1.695-1.744,1.695
		h-7.195L21.048,47.852c0.969,0.116,1.953,0.183,2.953,0.183c0.866,0,1.72-0.047,2.565-0.135l17.695-13.184
		C45.021,34.157,44.686,32.688,44.572,32.247z"/>
</g>
<g>
	<path fill="#A3007A" d="M15.158,34.505c0.016-0.033,0.031-0.067,0.046-0.101h-0.107c-0.354,0.385-1.021,1.023-1.929,1.498
		c-0.188,0.084-0.385,0.164-0.591,0.231c-1.559,0.505-2.586,0.421-3.056,0.349c0.849-0.237,1.646-0.576,2.412-1.037
		c0.518-0.29,1.023-0.643,1.526-1.041H8.848c-0.173,0-0.335-0.031-0.492-0.076c-0.808,2.746-1.417,4.977-1.781,6.415
		c0.3,0.306,0.607,0.605,0.923,0.897c0.327-0.037,0.64-0.076,0.931-0.123c-0.017-0.014-0.032-0.029-0.048-0.043
		c3.494-0.591,4.471-2.045,5.311-3.764c-0.763,1.016-1.506,1.043-2.592,1.191l0.037-0.029c-0.009,0-0.015,0.002-0.025,0.004
		c0.023-0.012,0.04-0.023,0.061-0.031l0.223-0.18c1.168-0.632,1.952-1.308,2.548-2.08l0.561-0.457
		c0.36-0.519,0.658-1.101,0.954-1.725h-0.203C15.221,34.439,15.196,34.468,15.158,34.505z"/>
	<path fill="#A3007A" d="M19.539,23.387c0.047-0.187,0.09-0.364,0.128-0.518c-0.574,0.275-0.904,0.412-1.228,0.518H19.539z"/>
	<path fill="#A3007A" d="M17.083,18.715v-0.984c-0.057,0.067-0.117,0.132-0.18,0.193c-0.499,0.484-1.133,0.74-1.835,0.74H13.7v1.317
		c0,0.419-0.167,0.813-0.471,1.108c-0.188,0.183-0.418,0.308-0.666,0.381c-0.229,0.637-0.458,1.273-0.678,1.916h6.486
		c0.44-0.347,0.817-0.733,1.119-1.132c0.222-0.235,0.418-0.477,0.595-0.721c-0.73-0.005-1.414-0.287-2.031-0.841
		C17.409,20.11,17.083,19.445,17.083,18.715z"/>
	<rect x="20.321" y="17.013" fill="#A3007A" width="0.737" height="1.39"/>
	<path fill="#A3007A" d="M14.437,14.97H13.7v0.562h0.641c0.031-0.075,0.064-0.157,0.096-0.231V14.97z"/>
	<path fill="#A3007A" d="M25.598,0.19c-0.527-0.034-1.06-0.057-1.597-0.057c-1.903,0-3.752,0.222-5.527,0.627
		c-0.429,0.567-0.925,1.257-1.495,2.104c-0.586,0.871-1.243,1.895-1.985,3.122c-1.095,1.806-2.189,3.795-3.233,5.838h3.308
		c0.292,0,0.57,0.055,0.835,0.144c1.543-3.289,3.021-5.796,4.1-7.464c-0.937,1.657-2.072,3.842-3.319,6.631
		c-0.09,0.213-0.171,0.405-0.259,0.613c-0.042,0.091-0.08,0.171-0.121,0.263c-0.018,0.038-0.031,0.071-0.046,0.108
		c0.231,0.119,0.452,0.263,0.646,0.454c0.504,0.494,0.76,1.094,0.76,1.783v0.771c0.109-0.137,0.23-0.268,0.368-0.395
		c0.613-0.566,1.311-0.853,2.074-0.853h1.153c0.184,0,0.364,0.017,0.541,0.051c0.239-0.313,0.468-0.649,0.684-1.01
		c0.546-0.76,1.033-1.637,1.476-2.597c0.447-0.968,0.861-2.003,1.253-3.078C26.143,4.685,26.318,2.163,25.598,0.19z"/>
	<path fill="#A3007A" d="M22.633,14.246c0.012-0.099,0.021-0.195,0.026-0.27c-0.083,0.061-0.158,0.108-0.237,0.161
		C22.493,14.169,22.563,14.208,22.633,14.246z"/>
	<path fill="#A3007A" d="M7.102,32.709v-7.627c0-0.935,0.783-1.695,1.746-1.695h2.494c0.216-0.625,0.435-1.242,0.656-1.848
		c-0.398-0.021-0.771-0.172-1.055-0.442c-0.311-0.297-0.482-0.693-0.482-1.116v-5.521c-0.948,1.992-1.826,3.989-2.578,5.886
		c-0.678,1.714-1.258,3.344-1.694,4.81c-0.813,2.736-1.253,5.157-1.491,7.139c-0.252,1.989-0.295,3.539-0.285,4.496
		c-0.247-0.494-0.924-0.998-1.8-1.503c0.946,1.809,2.127,3.48,3.508,4.979c0.069-0.261,0.138-0.525,0.207-0.786
		c-0.015-0.016-0.031-0.035-0.047-0.053c0.067-0.249,0.134-0.498,0.203-0.746c0.018,0.014,0.034,0.031,0.051,0.047
		c0.417-1.514,0.857-3.032,1.337-4.614C7.406,33.809,7.102,33.293,7.102,32.709z"/>
</g>
<g>
	<path fill="#FFFFFF" d="M12.085,20.821c0.067,0,0.125-0.021,0.188-0.035c0.157-0.034,0.306-0.094,0.425-0.21
		c0.166-0.161,0.252-0.367,0.252-0.595V19v-1.062h0.414h0.48h1.222c0.506,0,0.946-0.176,1.305-0.526
		c0.36-0.348,0.542-0.775,0.542-1.267v-1.788c0-0.491-0.184-0.919-0.544-1.272c-0.124-0.121-0.259-0.213-0.4-0.293
		c-0.12-0.067-0.246-0.12-0.378-0.158c-0.167-0.048-0.34-0.081-0.525-0.081h-3.674h-0.185v0.363v7.066
		c0,0.229,0.09,0.436,0.258,0.597C11.634,20.737,11.848,20.821,12.085,20.821z M12.952,14.244h1.935h0.182l0.116,0.113v0.298v1.49
		l-0.116,0.113h-0.545h-0.481h-1.09V14.244z"/>
	<path fill="#FFFFFF" d="M19.162,20.567c0.011,0.005,0.021,0.012,0.031,0.017c0.294,0.145,0.598,0.226,0.911,0.226h0.444h0.708
		c0.534,0,1.05-0.215,1.534-0.639c0.494-0.433,0.747-0.923,0.747-1.456v-0.029v-1.986c0-0.163-0.03-0.32-0.076-0.474
		c-0.105-0.358-0.325-0.69-0.67-0.993c-0.091-0.081-0.187-0.147-0.281-0.213c-0.306-0.209-0.625-0.338-0.959-0.386
		c-0.098-0.014-0.194-0.029-0.293-0.029c-0.001,0-0.001,0-0.001,0h-0.052h-1.1c-0.565,0-1.089,0.221-1.559,0.654
		c-0.474,0.438-0.714,0.923-0.714,1.44v2.015c0,0.519,0.247,1.005,0.733,1.444C18.757,20.333,18.958,20.462,19.162,20.567z
		 M19.574,16.741c0-0.058,0.016-0.083,0.049-0.111l0.336-0.28c0.062-0.054,0.181-0.064,0.268-0.064h1.018
		c0.067,0,0.12,0.018,0.176,0.064l0.349,0.269c0.03,0.023,0.037,0.085,0.037,0.133v0.498v1.432c0,0.065-0.02,0.081-0.055,0.108
		l-0.299,0.256c-0.086,0.075-0.157,0.084-0.207,0.084h-0.612h-0.529c-0.076,0-0.101-0.014-0.101-0.014l-0.375-0.313
		c-0.028-0.022-0.054-0.05-0.054-0.133V16.741z"/>
	<path fill="#FFFFFF" d="M24.729,20.576c0.086,0.084,0.187,0.145,0.295,0.185c0.1,0.039,0.205,0.06,0.316,0.06
		c0.23,0,0.441-0.084,0.607-0.243c0.17-0.161,0.26-0.367,0.26-0.597v-2.496l1.266-1.065c0.146-0.122,0.213-0.123,0.213-0.123h0.637
		l0.117,0.114v0.267c0,0.229,0.088,0.435,0.252,0.595c0.336,0.322,0.898,0.322,1.229-0.005c0.164-0.163,0.25-0.37,0.25-0.601v-0.255
		c0-0.491-0.182-0.918-0.541-1.267c-0.363-0.35-0.799-0.527-1.307-0.527h-0.721c-0.404,0-0.809,0.167-1.211,0.496l-0.201,0.168
		c-0.033-0.16-0.113-0.305-0.234-0.424c-0.119-0.118-0.271-0.178-0.428-0.211c-0.285-0.059-0.591,0.003-0.805,0.217
		c-0.153,0.155-0.232,0.35-0.24,0.562c-0.001,0.012-0.008,0.021-0.008,0.034v4.523c0,0.007,0.005,0.014,0.005,0.022
		C24.486,20.221,24.568,20.421,24.729,20.576z"/>
	<path fill="#FFFFFF" d="M31.963,16.297h0.131v2.73c0,0.493,0.182,0.919,0.547,1.269c0.365,0.348,0.805,0.525,1.311,0.525h0.98
		c0.467,0,0.865-0.146,1.193-0.418c0.049-0.041,0.102-0.077,0.146-0.124c0.346-0.354,0.521-0.727,0.521-1.109
		c0-0.233-0.084-0.441-0.242-0.601c-0.162-0.165-0.379-0.251-0.625-0.251c-0.396,0-0.699,0.234-0.838,0.636
		c-0.004,0.012-0.012,0.021-0.016,0.034c-0.049,0.154-0.1,0.154-0.162,0.154h-0.959c-0.033,0-0.061-0.007-0.129-0.114v-2.73h1.611
		c0.232,0,0.439-0.083,0.611-0.242c0.168-0.161,0.256-0.368,0.256-0.597c0-0.224-0.088-0.43-0.254-0.591
		c-0.17-0.163-0.379-0.249-0.613-0.249h-1.6v-0.805c0-0.227-0.092-0.432-0.262-0.594c-0.346-0.328-0.891-0.316-1.217,0
		c-0.164,0.161-0.25,0.366-0.25,0.595v0.805h-0.143c-0.234,0-0.449,0.084-0.613,0.245s-0.252,0.367-0.252,0.595
		c0,0.233,0.09,0.441,0.256,0.601C31.518,16.216,31.73,16.297,31.963,16.297z"/>
	<path fill="#FFFFFF" d="M39.156,24.113h-0.377H27.424h-8.068H11.57h-0.477H8.848c-0.552,0-0.999,0.433-0.999,0.969v7.627
		c0,0.247,0.103,0.465,0.256,0.636c0.139,0.15,0.324,0.248,0.536,0.292c0.068,0.016,0.132,0.041,0.207,0.041h5.456h18.25h6.604
		c0.549,0,0.996-0.434,0.996-0.969v-6.676v-0.951C40.152,24.546,39.705,24.113,39.156,24.113z"/>
</g>
<g>
	<path fill="#3399CC" d="M47.988,23.418c0-5.695-2.107-10.911-5.607-14.958l-5.383,6.632c-0.066-0.276-0.209-0.531-0.424-0.739
		c-0.307-0.298-0.711-0.462-1.141-0.462h-0.852v-0.079c0-0.418-0.172-0.813-0.482-1.112c-0.309-0.291-0.713-0.451-1.137-0.451
		c-0.432,0-0.834,0.161-1.137,0.454c-0.305,0.297-0.471,0.691-0.471,1.109v0.193c-0.199,0.078-0.379,0.195-0.535,0.344
		c-0.178,0.175-0.303,0.385-0.381,0.612c-0.088-0.116-0.176-0.228-0.283-0.331c-0.504-0.491-1.121-0.739-1.834-0.739h-0.721
		c-0.418,0-0.832,0.117-1.232,0.347c-0.053-0.041-0.115-0.059-0.172-0.093l12.375-9.22c-3.643-2.71-8.109-4.425-12.975-4.736
		c0.721,1.973,0.545,4.495-0.387,7.057c-0.393,1.074-0.806,2.109-1.253,3.078c-0.443,0.959-0.93,1.836-1.476,2.597
		c-0.216,0.361-0.445,0.696-0.684,1.01c-0.177-0.034-0.356-0.051-0.541-0.051h-1.153c-0.763,0-1.46,0.287-2.074,0.853
		c-0.137,0.127-0.258,0.258-0.368,0.395v-0.771c0-0.688-0.256-1.289-0.76-1.783c-0.194-0.191-0.416-0.335-0.646-0.454
		c0.015-0.037,0.029-0.07,0.046-0.108c0.042-0.092,0.079-0.172,0.121-0.263c0.088-0.208,0.169-0.399,0.259-0.613
		c1.247-2.789,2.382-4.974,3.319-6.631c-1.079,1.667-2.556,4.175-4.1,7.464c-0.265-0.089-0.542-0.144-0.835-0.144H11.76
		c1.044-2.043,2.138-4.032,3.233-5.838c0.742-1.227,1.399-2.251,1.985-3.122c0.57-0.848,1.066-1.537,1.495-2.104
		C7.89,3.185,0.012,12.406,0.012,23.418c0,0.223,0.011,0.444,0.017,0.665c-0.006,0.222-0.017,0.443-0.017,0.666
		c0,3.794,0.941,7.374,2.6,10.538c0.876,0.505,1.553,1.009,1.8,1.503c-0.011-0.957,0.033-2.507,0.285-4.496
		c0.238-1.981,0.678-4.402,1.491-7.139c0.436-1.466,1.016-3.096,1.694-4.81c0.752-1.896,1.63-3.894,2.578-5.886v5.521
		c0,0.423,0.171,0.819,0.482,1.116c0.285,0.27,0.657,0.421,1.055,0.442c-0.221,0.606-0.44,1.223-0.656,1.848H8.848
		c-0.963,0-1.746,0.76-1.746,1.695v7.627c0,0.584,0.305,1.1,0.769,1.405c-0.479,1.582-0.92,3.101-1.337,4.614
		c-0.017-0.016-0.033-0.033-0.051-0.047c-0.069,0.248-0.136,0.497-0.203,0.746c0.017,0.018,0.032,0.037,0.047,0.053
		c-0.069,0.261-0.138,0.525-0.207,0.786c0.148,0.161,0.301,0.319,0.454,0.477c0.364-1.438,0.973-3.669,1.781-6.415
		c0.157,0.045,0.319,0.076,0.492,0.076h4.612c-0.502,0.398-1.008,0.751-1.526,1.041c-0.766,0.461-1.563,0.8-2.412,1.037
		c0.47,0.072,1.497,0.156,3.056-0.349c0.206-0.067,0.403-0.147,0.591-0.231c0.909-0.475,1.576-1.113,1.929-1.498h0.107
		c-0.015,0.033-0.031,0.067-0.046,0.101c0.038-0.037,0.063-0.065,0.097-0.101h0.203c-0.295,0.624-0.594,1.206-0.954,1.725
		l-0.561,0.457c-0.597,0.772-1.38,1.448-2.548,2.08l-0.223,0.18c-0.021,0.008-0.038,0.02-0.061,0.031
		c0.011-0.002,0.017-0.004,0.025-0.004l-0.037,0.029c1.086-0.148,1.829-0.176,2.592-1.191c-0.839,1.719-1.816,3.173-5.311,3.764
		c0.016,0.014,0.031,0.029,0.048,0.043c-0.291,0.047-0.604,0.086-0.931,0.123c3.628,3.338,8.329,5.588,13.55,6.211l10.913-13.447
		h7.195c0.961,0,1.744-0.76,1.744-1.695v-5.631l3.6,5.027c0.031,0.043,0.059,0.092,0.072,0.142c0.113,0.44,0.449,1.91-0.311,2.469
		L26.566,47.899c12.039-1.241,21.422-11.131,21.422-23.15c0-0.223-0.01-0.444-0.016-0.666
		C47.979,23.862,47.988,23.642,47.988,23.418z M31.35,14.863c0.164-0.161,0.379-0.245,0.613-0.245h0.143v-0.805
		c0-0.229,0.086-0.434,0.25-0.595c0.326-0.316,0.871-0.328,1.217,0c0.17,0.163,0.262,0.368,0.262,0.594v0.805h1.6
		c0.234,0,0.443,0.086,0.613,0.249c0.166,0.162,0.254,0.367,0.254,0.591c0,0.229-0.088,0.436-0.256,0.597
		c-0.172,0.159-0.379,0.242-0.611,0.242h-1.611v2.73c0.068,0.107,0.096,0.114,0.129,0.114h0.959c0.063,0,0.113,0,0.162-0.154
		c0.004-0.012,0.012-0.022,0.016-0.034c0.139-0.402,0.441-0.636,0.838-0.636c0.246,0,0.463,0.086,0.625,0.251
		c0.158,0.16,0.242,0.368,0.242,0.601c0,0.382-0.176,0.755-0.521,1.109c-0.045,0.047-0.098,0.083-0.146,0.124
		c-0.328,0.272-0.727,0.418-1.193,0.418h-0.98c-0.506,0-0.945-0.177-1.311-0.525c-0.365-0.349-0.547-0.776-0.547-1.269v-2.73h-0.131
		c-0.232,0-0.445-0.082-0.609-0.238c-0.166-0.16-0.256-0.368-0.256-0.601C31.098,15.23,31.186,15.023,31.35,14.863z M35.432,17.024
		l-0.35,0.431c-0.113,0.14-0.174,0.328-0.209,0.523c-0.113,0.098-0.217,0.208-0.303,0.339v-1.293H35.432z M30.455,17.775
		c0.303-0.302,0.463-0.685,0.463-1.109v-0.033c0.133,0.111,0.27,0.211,0.426,0.274v2.119c0,0.685,0.268,1.302,0.773,1.785
		c0.5,0.48,1.137,0.734,1.834,0.734h0.98c0.619,0,1.168-0.194,1.619-0.547l1.709,2.387H26.902l-1.332-1.861
		c0.336-0.047,0.652-0.192,0.9-0.428c0.314-0.298,0.482-0.694,0.482-1.116v-2.164l0.809-0.68c0.078,0.243,0.213,0.465,0.398,0.647
		c0.305,0.294,0.711,0.455,1.146,0.455C29.738,18.239,30.156,18.07,30.455,17.775z M24.475,15.458c0-0.012,0.007-0.022,0.008-0.034
		c0.008-0.212,0.086-0.406,0.24-0.562c0.213-0.214,0.52-0.276,0.805-0.217c0.156,0.033,0.309,0.093,0.428,0.211
		c0.121,0.119,0.201,0.264,0.234,0.424l0.201-0.168c0.402-0.329,0.807-0.496,1.211-0.496h0.721c0.508,0,0.943,0.177,1.307,0.527
		c0.359,0.348,0.541,0.776,0.541,1.267v0.255c0,0.231-0.086,0.438-0.25,0.601c-0.33,0.328-0.893,0.328-1.229,0.005
		c-0.164-0.16-0.252-0.366-0.252-0.595v-0.267l-0.117-0.114h-0.637c0,0-0.066,0.001-0.213,0.123l-1.266,1.065v2.496
		c0,0.229-0.09,0.436-0.26,0.597c-0.166,0.159-0.377,0.243-0.607,0.243c-0.111,0-0.217-0.021-0.316-0.06
		c-0.108-0.041-0.209-0.101-0.295-0.185c-0.16-0.155-0.243-0.354-0.249-0.573c0-0.008-0.005-0.015-0.005-0.022V15.458z
		 M22.66,13.976c-0.005,0.075-0.015,0.171-0.026,0.27c-0.07-0.038-0.14-0.077-0.211-0.108C22.502,14.084,22.577,14.037,22.66,13.976
		z M17.831,16.701c0-0.517,0.241-1.002,0.714-1.44c0.47-0.433,0.994-0.654,1.559-0.654h1.1h0.052c0,0,0,0,0.001,0
		c0.099,0,0.196,0.015,0.293,0.029c0.334,0.048,0.653,0.176,0.959,0.386c0.094,0.066,0.19,0.132,0.281,0.213
		c0.346,0.303,0.565,0.635,0.67,0.993c0.046,0.154,0.076,0.311,0.076,0.474v1.986v0.029c0,0.532-0.252,1.022-0.747,1.456
		c-0.484,0.424-1,0.639-1.534,0.639h-0.708h-0.444c-0.313,0-0.617-0.082-0.911-0.226c-0.01-0.005-0.021-0.011-0.031-0.017
		c-0.204-0.104-0.405-0.234-0.598-0.408c-0.486-0.438-0.733-0.925-0.733-1.444V16.701z M11.467,20.578
		c-0.168-0.161-0.258-0.367-0.258-0.597v-7.066v-0.363h0.185h3.674c0.185,0,0.358,0.033,0.525,0.081
		c0.132,0.038,0.258,0.091,0.378,0.158c0.141,0.08,0.277,0.173,0.4,0.293c0.361,0.353,0.544,0.781,0.544,1.272v1.788
		c0,0.491-0.183,0.918-0.542,1.267c-0.359,0.35-0.799,0.526-1.305,0.526h-1.222h-0.48h-0.414V19v0.981
		c0,0.228-0.087,0.434-0.252,0.595c-0.119,0.116-0.268,0.176-0.425,0.21c-0.063,0.014-0.122,0.035-0.188,0.035
		C11.848,20.821,11.634,20.737,11.467,20.578z M12.563,21.471c0.247-0.073,0.478-0.199,0.666-0.381
		c0.304-0.296,0.471-0.689,0.471-1.108v-1.317h1.368c0.702,0,1.336-0.256,1.835-0.74c0.063-0.061,0.124-0.125,0.18-0.193v0.984
		c0,0.729,0.326,1.395,0.971,1.977c0.617,0.554,1.301,0.836,2.031,0.841c-0.176,0.244-0.373,0.486-0.595,0.721
		c-0.302,0.399-0.679,0.785-1.119,1.132h-6.486C12.105,22.744,12.334,22.107,12.563,21.471z M19.667,22.869
		c-0.038,0.154-0.081,0.331-0.128,0.518h-1.1C18.763,23.281,19.093,23.145,19.667,22.869z M40.152,26.033v6.676
		c0,0.535-0.447,0.969-0.996,0.969h-6.604h-18.25H8.848c-0.074,0-0.139-0.025-0.207-0.041c-0.212-0.044-0.397-0.142-0.536-0.292
		c-0.154-0.171-0.256-0.389-0.256-0.636v-7.627c0-0.536,0.446-0.969,0.999-0.969h2.246h0.477h7.786h8.068h11.355h0.377
		c0.549,0,0.996,0.433,0.996,0.969V26.033z"/>
	<path fill="#3399CC" d="M14.522,16.258h0.545l0.116-0.113v-1.49v-0.298l-0.116-0.113h-0.182h-1.935v2.014h1.09H14.522z M13.7,14.97
		h0.737v0.33c-0.032,0.074-0.065,0.156-0.096,0.231H13.7V14.97z"/>
	<path fill="#3399CC" d="M20.003,19.116c0,0,0.025,0.014,0.101,0.014h0.529h0.612c0.05,0,0.121-0.01,0.207-0.084l0.299-0.256
		c0.035-0.027,0.055-0.042,0.055-0.108V17.25v-0.498c0-0.048-0.007-0.11-0.037-0.133l-0.349-0.269
		c-0.056-0.046-0.108-0.064-0.176-0.064h-1.018c-0.087,0-0.207,0.01-0.268,0.064l-0.336,0.28c-0.033,0.028-0.049,0.053-0.049,0.111
		v1.929c0,0.083,0.026,0.111,0.054,0.133L20.003,19.116z M20.321,17.016l0.737-0.003v1.39h-0.737V17.016z"/>
	<rect x="9.75" y="25.438" fill="#3399CC" width="2" height="6.938"/>
</g>
</svg>
