<?xml version="1.0" encoding="utf-8"?>
<!-- Generator: Adobe Illustrator 16.0.0, SVG Export Plug-In . SVG Version: 6.00 Build 0)  -->
<!DOCTYPE svg PUBLIC "-//W3C//DTD SVG 1.1//EN" "http://www.w3.org/Graphics/SVG/1.1/DTD/svg11.dtd">
<svg version="1.1" id="Layer_1" xmlns="http://www.w3.org/2000/svg" xmlns:xlink="http://www.w3.org/1999/xlink" x="0px" y="0px"
	 width="24px" height="24px" viewBox="4 4 24 24" enable-background="new 4 4 24 24" xml:space="preserve">
<g>
	<path fill="#E9E9E9" d="M25.31,4.03H6.69c-1.47,0-2.66,1.19-2.66,2.66V25.31c0,1.47,1.19,2.66,2.66,2.66H25.31
		c1.47,0,2.66-1.19,2.66-2.66V6.69C27.97,5.221,26.779,4.03,25.31,4.03z M14.923,9.164c0-0.595,0.482-1.077,1.077-1.077
		c0.595,0,1.077,0.482,1.077,1.077v3.726c0,0.595-0.482,1.077-1.077,1.077c-0.595,0-1.077-0.482-1.077-1.077V9.164z M16,23.769
		c-4.069,0-7.379-3.31-7.379-7.378c0-2.483,1.239-4.785,3.315-6.157c0.497-0.328,1.165-0.192,1.493,0.305
		c0.328,0.497,0.191,1.165-0.305,1.493c-1.471,0.972-2.349,2.602-2.349,4.359c0,2.88,2.344,5.224,5.225,5.224
		s5.225-2.344,5.225-5.224c0-1.807-0.917-3.461-2.451-4.425c-0.504-0.316-0.656-0.981-0.34-1.485c0.315-0.503,0.98-0.657,1.484-0.34
		c2.167,1.36,3.461,3.697,3.461,6.25C23.379,20.459,20.068,23.769,16,23.769z"/>
	<path fill="#FCFCFC" d="M16,13.967c0.595,0,1.077-0.482,1.077-1.077V9.164c0-0.595-0.482-1.077-1.077-1.077
		c-0.595,0-1.077,0.482-1.077,1.077v3.726C14.923,13.485,15.405,13.967,16,13.967z"/>
	<path fill="#FCFCFC" d="M19.918,10.141c-0.504-0.317-1.169-0.164-1.484,0.34c-0.316,0.504-0.164,1.169,0.34,1.485
		c1.534,0.963,2.451,2.618,2.451,4.425c0,2.88-2.344,5.224-5.225,5.224s-5.225-2.344-5.225-5.224c0-1.758,0.878-3.388,2.349-4.359
		c0.496-0.328,0.632-0.997,0.305-1.493c-0.329-0.497-0.997-0.633-1.493-0.305c-2.076,1.372-3.315,3.674-3.315,6.157
		c0,4.068,3.31,7.378,7.379,7.378c4.068,0,7.379-3.31,7.379-7.378C23.379,13.837,22.085,11.501,19.918,10.141z"/>
</g>
</svg>
