<?xml version="1.0" encoding="utf-8"?>
<!-- Generator: Adobe Illustrator 16.0.0, SVG Export Plug-In . SVG Version: 6.00 Build 0)  -->
<!DOCTYPE svg PUBLIC "-//W3C//DTD SVG 1.1//EN" "http://www.w3.org/Graphics/SVG/1.1/DTD/svg11.dtd">
<svg version="1.1" id="Layer_1" xmlns="http://www.w3.org/2000/svg" xmlns:xlink="http://www.w3.org/1999/xlink" x="0px" y="0px"
	 width="32px" height="32px" viewBox="0 0 32 32" enable-background="new 0 0 32 32" xml:space="preserve">
<path fill="#DE5C7D" d="M16,4.84C9.837,4.84,4.84,9.836,4.84,16S9.837,27.16,16,27.16c6.164,0,11.16-4.996,11.16-11.161
	C27.16,9.836,22.164,4.84,16,4.84z M16,8.574c0.752,0,1.365,0.61,1.365,1.364c0,0.238-0.129,2.011-0.326,4.686l-0.041,0.542
	c-0.1,1.352-0.196,2.66-0.253,3.496l0.003,0.084c0,0.051-0.02,0.1-0.031,0.128c-0.072,0.323-0.368,0.563-0.716,0.563
	c-0.344,0-0.64-0.234-0.719-0.572c-0.01-0.018-0.02-0.057-0.022-0.098l-0.003-0.112c-0.058-0.858-0.158-2.209-0.261-3.594
	l-0.034-0.474c-0.195-2.654-0.324-4.412-0.324-4.65C14.638,9.185,15.249,8.574,16,8.574z M16,23.426c-0.8,0-1.446-0.646-1.446-1.445
	c0-0.797,0.647-1.446,1.446-1.446c0.798,0,1.445,0.649,1.445,1.446C17.445,22.779,16.8,23.426,16,23.426z"/>
</svg>
