<?xml version="1.0" encoding="utf-8"?>
<!-- Generator: Adobe Illustrator 16.0.0, SVG Export Plug-In . SVG Version: 6.00 Build 0)  -->
<!DOCTYPE svg PUBLIC "-//W3C//DTD SVG 1.1//EN" "http://www.w3.org/Graphics/SVG/1.1/DTD/svg11.dtd">
<svg version="1.1" id="Layer_1" xmlns="http://www.w3.org/2000/svg" xmlns:xlink="http://www.w3.org/1999/xlink" x="0px" y="0px"
	 width="32px" height="32px" viewBox="0 0 32 32" enable-background="new 0 0 32 32" xml:space="preserve">
<path fill="#5C9DFF" d="M16,5.737c5.659,0,10.263,4.604,10.263,10.263S21.659,26.263,16,26.263S5.737,21.659,5.737,16
	S10.341,5.737,16,5.737 M16,3.6C9.151,3.6,3.6,9.151,3.6,16S9.151,28.4,16,28.4S28.4,22.849,28.4,16S22.849,3.6,16,3.6L16,3.6z
	 M16,7.749c-0.835,0-1.514,0.679-1.514,1.514c0,0.267,0.143,2.219,0.361,5.167l0.039,0.527c0.113,1.538,0.224,3.039,0.289,3.993
	l0.004,0.126c0.003,0.045,0.014,0.09,0.025,0.107c0.087,0.375,0.416,0.637,0.798,0.637c0.386,0,0.716-0.268,0.794-0.627
	c0.014-0.029,0.035-0.088,0.035-0.143l-0.002-0.094c0.063-0.928,0.17-2.382,0.281-3.884l0.045-0.602
	c0.219-2.973,0.361-4.942,0.361-5.208C17.516,8.428,16.835,7.749,16,7.749z M16,21.035c0.888,0,1.607,0.721,1.607,1.609
	c0,0.887-0.72,1.607-1.607,1.607c-0.887,0-1.607-0.721-1.607-1.607C14.393,21.756,15.113,21.035,16,21.035z"/>
</svg>
