<?xml version="1.0" encoding="utf-8"?>
<!-- Generator: Adobe Illustrator 16.0.0, SVG Export Plug-In . SVG Version: 6.00 Build 0)  -->
<!DOCTYPE svg PUBLIC "-//W3C//DTD SVG 1.1//EN" "http://www.w3.org/Graphics/SVG/1.1/DTD/svg11.dtd">
<svg version="1.1" id="Layer_1" xmlns="http://www.w3.org/2000/svg" xmlns:xlink="http://www.w3.org/1999/xlink" x="0px" y="0px"
	 width="24px" height="24px" viewBox="4 4 24 24" enable-background="new 4 4 24 24" xml:space="preserve">
<path fill="#DCDCDC" d="M16,5.144c-5.986,0-10.856,4.87-10.856,10.856c0,5.986,4.87,10.856,10.856,10.856
	c5.986,0,10.856-4.87,10.856-10.856C26.856,10.014,21.986,5.144,16,5.144z M16,8.069c1.602,0,3.145,0.481,4.473,1.393L9.462,20.474
	C8.55,19.146,8.069,17.603,8.069,16C8.069,11.627,11.627,8.069,16,8.069z M16,23.932c-1.6,0-3.143-0.48-4.469-1.391l11.01-11.011
	c0.91,1.327,1.391,2.869,1.391,4.47C23.932,20.373,20.373,23.932,16,23.932z"/>
</svg>
