<?xml version="1.0" encoding="utf-8"?>
<!-- Generator: Adobe Illustrator 16.0.0, SVG Export Plug-In . SVG Version: 6.00 Build 0)  -->
<!DOCTYPE svg PUBLIC "-//W3C//DTD SVG 1.1//EN" "http://www.w3.org/Graphics/SVG/1.1/DTD/svg11.dtd">
<svg version="1.1" id="Layer_1" xmlns="http://www.w3.org/2000/svg" xmlns:xlink="http://www.w3.org/1999/xlink" x="0px" y="0px"
	 width="48px" height="48px" viewBox="0 0 48 48" enable-background="new 0 0 48 48" xml:space="preserve">
<path fill="#504C71" d="M56.143-83.94c-0.281,0-0.558,0.021-0.83,0.053h1.303C56.461-83.92,56.303-83.94,56.143-83.94z"/>
<path fill="#CCCC66" d="M42.898,11.952v-0.289c0.003,0.017,0.004,0.035,0.006,0.052v-0.052c-0.021-0.094-0.066-0.182-0.137-0.249
	l-0.795-0.795l-9.637-9.638l-0.834-0.835c-0.068-0.068-0.154-0.115-0.25-0.136h-0.006h-0.281h-0.006H6.193
	c-0.604,0-1.098,0.492-1.098,1.1v45.788C5.096,47.505,5.589,48,6.193,48h35.609c0.609,0,1.102-0.495,1.102-1.101V11.952v-0.092
	C42.902,11.89,42.901,11.921,42.898,11.952z M36.227,4.991c0.006,0.034,0.01,0.069,0.01,0.104c0,0.063-0.004,0.123-0.01,0.185V4.991
	z M25.813,27.789l-1.34,1.343l1.273,1.271l0.002,0.823l-1.505,1.506l0.956,0.955l0.004,1.231l-1.442,1.44V23.768l-0.684-1.914
	l0.003,15.461l0.186,0.188c-1-0.222-1.967-1.516-1.97-2.22V24.726c0.002-0.071,0.005-0.14,0.01-0.204l-1.095-0.002
	c-0.227,0.002-0.414-0.183-0.412-0.411l0.411-1.473c0.001-0.113,0.043-0.208,0.114-0.281c-1.909-1.072-3.202-3.109-3.199-5.454
	c0-3.451,2.795-6.248,6.25-6.248c3.454,0,6.247,2.797,6.247,6.248c0,2.486-1.451,4.626-3.555,5.637
	c0.01,0.027,0.021,0.063,0.021,0.094l0.414,1.475c-0.002,0.228-0.188,0.415-0.416,0.417l-0.281-0.004l-1.089,0.002v1.782l1.095,1.09
	V27.789z M41.266,39.909c0.112,0.121,0.157,0.29,0.12,0.451c-0.036,0.161-0.15,0.294-0.305,0.354l-1.655,0.652l0.522,1.702
	c0.049,0.157,0.017,0.329-0.087,0.458c-0.103,0.13-0.266,0.203-0.428,0.188l-1.775-0.132l-0.268,1.761
	c-0.024,0.163-0.129,0.304-0.277,0.375s-0.323,0.065-0.467-0.017l-1.542-0.89l-1.004,1.471c-0.094,0.136-0.248,0.218-0.413,0.218
	s-0.319-0.082-0.413-0.218l-1.003-1.471l-1.543,0.89c-0.143,0.083-0.318,0.089-0.467,0.017c-0.149-0.071-0.253-0.212-0.277-0.375
	l-0.267-1.761l-1.777,0.132c-0.164,0.015-0.325-0.059-0.428-0.188c-0.104-0.129-0.136-0.301-0.087-0.459l0.524-1.701l-1.656-0.652
	c-0.154-0.06-0.268-0.192-0.305-0.354s0.008-0.33,0.12-0.451l1.209-1.307l-1.209-1.306c-0.112-0.121-0.157-0.29-0.12-0.451
	s0.15-0.294,0.305-0.354l1.656-0.652l-0.524-1.701c-0.049-0.158-0.017-0.33,0.087-0.459c0.103-0.129,0.265-0.198,0.428-0.188
	l1.777,0.132l0.267-1.762c0.024-0.163,0.128-0.304,0.277-0.375c0.147-0.072,0.323-0.065,0.467,0.017l1.543,0.89l1.003-1.47
	c0.188-0.271,0.639-0.273,0.826,0l1.004,1.47l1.542-0.889c0.143-0.084,0.318-0.09,0.467-0.018c0.148,0.071,0.253,0.212,0.277,0.375
	l0.268,1.762l1.775-0.132c0.162-0.012,0.325,0.058,0.428,0.188c0.104,0.129,0.136,0.301,0.087,0.458l-0.522,1.702l1.655,0.652
	c0.154,0.061,0.269,0.192,0.305,0.354c0.037,0.161-0.008,0.33-0.12,0.451l-1.21,1.306L41.266,39.909z M41.566,12.336h-10.42
	c-0.313,0-0.568-0.254-0.568-0.569V1.348c0-0.252,0.164-0.242,0.393-0.318l10.916,10.915C41.809,12.172,41.818,12.336,41.566,12.336
	z"/>
<path fill="#CCCC66" d="M40.034,37.154l-1.405-0.554c-0.243-0.096-0.372-0.362-0.295-0.611l0.443-1.445l-1.507,0.112
	c-0.278,0.014-0.492-0.166-0.531-0.424l-0.228-1.496l-1.309,0.755c-0.229,0.132-0.515,0.064-0.663-0.15l-0.853-1.248l-0.852,1.248
	c-0.148,0.215-0.436,0.28-0.663,0.151l-1.31-0.756l-0.227,1.496c-0.039,0.258-0.258,0.438-0.531,0.424l-1.509-0.112l0.445,1.444
	c0.077,0.25-0.051,0.517-0.295,0.612l-1.406,0.554l1.026,1.108c0.177,0.191,0.177,0.487,0,0.68l-1.026,1.109l1.406,0.554
	c0.244,0.096,0.372,0.362,0.295,0.612l-0.445,1.444l1.509-0.112c0.273-0.024,0.492,0.166,0.531,0.424l0.227,1.495l1.31-0.755
	c0.079-0.045,0.165-0.066,0.25-0.066c0.16,0,0.316,0.077,0.413,0.218l0.852,1.248l0.853-1.248c0.148-0.216,0.435-0.282,0.663-0.151
	l1.309,0.755l0.228-1.495c0.039-0.258,0.253-0.448,0.531-0.424l1.507,0.112l-0.443-1.445c-0.077-0.249,0.052-0.516,0.295-0.611
	l1.405-0.554l-1.027-1.109c-0.177-0.191-0.177-0.488,0-0.68L40.034,37.154z M33.688,42.679c-2.251,0-4.075-1.824-4.075-4.075
	s1.824-4.075,4.075-4.075s4.075,1.824,4.075,4.075S35.938,42.679,33.688,42.679z"/>
<path fill="#CCCC66" d="M23.376,12.874c-0.86,0.003-1.563,0.703-1.561,1.562c-0.002,0.865,0.699,1.565,1.563,1.565
	c0.857,0,1.562-0.7,1.562-1.563C24.939,13.577,24.237,12.874,23.376,12.874z"/>
<path fill="#F8F8EA" d="M41.386,36.846c-0.036-0.161-0.15-0.293-0.305-0.354l-1.655-0.652l0.522-1.702
	c0.049-0.157,0.017-0.329-0.087-0.458c-0.103-0.13-0.266-0.199-0.428-0.188l-1.775,0.132l-0.268-1.762
	c-0.024-0.163-0.129-0.304-0.277-0.375c-0.148-0.072-0.324-0.066-0.467,0.018l-1.542,0.889l-1.004-1.47
	c-0.188-0.273-0.639-0.271-0.826,0l-1.003,1.47l-1.543-0.89c-0.144-0.082-0.319-0.089-0.467-0.017
	c-0.149,0.071-0.253,0.212-0.277,0.375l-0.267,1.762l-1.777-0.132c-0.163-0.011-0.325,0.059-0.428,0.188
	c-0.104,0.129-0.136,0.301-0.087,0.459l0.524,1.701l-1.656,0.652c-0.154,0.06-0.268,0.192-0.305,0.354s0.008,0.33,0.12,0.451
	l1.209,1.306l-1.209,1.307c-0.112,0.121-0.157,0.29-0.12,0.451s0.15,0.294,0.305,0.354l1.656,0.652l-0.524,1.701
	c-0.049,0.158-0.017,0.33,0.087,0.459c0.103,0.129,0.264,0.202,0.428,0.188l1.777-0.132l0.267,1.761
	c0.024,0.163,0.128,0.304,0.277,0.375c0.148,0.072,0.324,0.066,0.467-0.017l1.543-0.89l1.003,1.471
	c0.094,0.136,0.248,0.218,0.413,0.218s0.319-0.082,0.413-0.218l1.004-1.471l1.542,0.89c0.144,0.082,0.318,0.088,0.467,0.017
	s0.253-0.212,0.277-0.375l0.268-1.761l1.775,0.132c0.162,0.016,0.325-0.058,0.428-0.188c0.104-0.129,0.136-0.301,0.087-0.458
	l-0.522-1.702l1.655-0.652c0.154-0.06,0.269-0.192,0.305-0.354c0.037-0.161-0.008-0.33-0.12-0.451l-1.21-1.307l1.21-1.306
	C41.378,37.176,41.423,37.007,41.386,36.846z M39.007,38.942l1.027,1.109l-1.405,0.554c-0.243,0.096-0.372,0.362-0.295,0.611
	l0.443,1.445l-1.507-0.112c-0.278-0.024-0.492,0.166-0.531,0.424l-0.228,1.495l-1.309-0.755c-0.229-0.131-0.515-0.064-0.663,0.151
	l-0.853,1.248l-0.852-1.248c-0.097-0.141-0.253-0.218-0.413-0.218c-0.085,0-0.171,0.021-0.25,0.066l-1.31,0.755l-0.227-1.495
	c-0.039-0.258-0.258-0.448-0.531-0.424l-1.509,0.112l0.445-1.444c0.077-0.25-0.051-0.517-0.295-0.612l-1.406-0.554l1.026-1.109
	c0.177-0.192,0.177-0.488,0-0.68l-1.026-1.108l1.406-0.554c0.244-0.096,0.372-0.362,0.295-0.612l-0.445-1.444l1.509,0.112
	c0.273,0.014,0.492-0.166,0.531-0.424l0.227-1.496l1.31,0.756c0.228,0.129,0.515,0.063,0.663-0.151l0.852-1.248l0.853,1.248
	c0.148,0.215,0.435,0.282,0.663,0.15l1.309-0.755l0.228,1.496c0.039,0.258,0.253,0.438,0.531,0.424l1.507-0.112l-0.443,1.445
	c-0.077,0.249,0.052,0.516,0.295,0.611l1.405,0.554l-1.027,1.108C38.83,38.454,38.83,38.751,39.007,38.942z"/>
<circle fill="#F8F8EA" cx="33.688" cy="38.604" r="4.075"/>
</svg>
