<?xml version="1.0" encoding="utf-8"?>
<!-- Generator: Adobe Illustrator 16.0.3, SVG Export Plug-In . SVG Version: 6.00 Build 0)  -->
<!DOCTYPE svg PUBLIC "-//W3C//DTD SVG 1.1//EN" "http://www.w3.org/Graphics/SVG/1.1/DTD/svg11.dtd">
<svg version="1.1" id="Layer_1" xmlns="http://www.w3.org/2000/svg" xmlns:xlink="http://www.w3.org/1999/xlink" x="0px" y="0px"
	 width="1000px" height="240px" viewBox="0 0 1000 240" enable-background="new 0 0 1000 240" xml:space="preserve">
<g>
	<path fill="#FFFFFF" d="M168.522,85.136l-13.75,13.749l13.816-13.807C168.574,85.082,168.562,85.096,168.522,85.136z"/>
</g>
<g>
	<polygon fill="#FFFFFF" points="145.352,108.303 145.354,108.305 154.772,98.885 	"/>
</g>
<g>
	<g>
		<g>
			<g>
				<path fill="#5E8CDA" d="M534.588,117.322L491.902,74.65l-18.175,23.071l19.601,19.601c1.805,1.81,1.805,4.767,0,6.571
					l-5.668,5.676c0,0,3.819,5.72,3.994,6.069c0.885,1.762,1.094,5.912-1.404,7.813l-44.584,34.224
					c-0.009,11.483-0.024,35.096-0.006,35.113c0.009,0,88.929-88.895,88.929-88.895
					C536.397,122.084,536.397,119.132,534.588,117.322z"/>
			</g>
			<g>
				<path fill="#093071" d="M435.455,122.693c-1.805-1.803-1.805-4.752,0-6.564l5.674-5.678l-3.88-5.576
					c-1.851-2.623-1.271-6.348,1.284-8.301l44.589-34.223l0.031-35.087l-0.031-0.018l-0.021-0.035l-88.906,88.917
					c-1.807,1.813-1.807,4.762,0.004,6.574l42.673,42.677l18.186-23.079L435.455,122.693z"/>
			</g>
		</g>
		<g>
			<g>
				<g>
					<path fill="#5E8CDA" d="M505.591,48.092c0.812,0,1.598,0.491,1.955,1.221c0.661,1.354-0.306,2.577-0.833,3.245l-39.067,49.583
						c-0.417,0.533-0.454,1.642-0.072,2.196c0.211,0.307,21.102,30.601,21.817,31.627c1.005,1.457,0.908,5.198-1.098,6.718
						l-62.815,48.224c-0.839,0.646-1.503,1.021-2.397,1.028c-0.757-0.047-1.516-0.545-1.845-1.212
						c-0.654-1.329,0.294-2.572,0.824-3.267l39.063-49.569c0.419-0.557,0.46-1.626,0.08-2.206L439.4,104.327
						c-1.554-2.208-1.071-5.342,1.077-6.986l62.827-48.228C504.234,48.388,504.896,48.092,505.591,48.092 M505.591,47.842
						c-0.755,0-1.46,0.31-2.44,1.074l-62.826,48.227c-2.255,1.727-2.761,5.009-1.129,7.328l21.801,31.352
						c0.32,0.488,0.281,1.442-0.074,1.913l-39.06,49.565c-0.512,0.672-1.584,2.041-0.852,3.531c0.366,0.742,1.208,1.299,2.054,1.352
						c0.981-0.008,1.683-0.4,2.565-1.08l62.815-48.224c2.171-1.644,2.18-5.567,1.151-7.058
						c-0.724-1.039-21.816-31.627-21.816-31.627c-0.318-0.463-0.286-1.455,0.063-1.9l39.066-49.583
						c0.517-0.654,1.596-2.006,0.861-3.509C507.37,48.386,506.497,47.842,505.591,47.842L505.591,47.842z"/>
				</g>
			</g>
			<g>
				<path fill="#F5CD21" d="M487.337,136.406c0.51,0.768,0.964,3.662-0.305,4.629l-62.831,48.224
					c-0.525,0.405-0.866,0.606-1.016,0.589c-0.216,0.018-0.059-0.367,0.519-1.107l39.052-49.563
					c0.985-1.271,1.051-3.369,0.142-4.682l-21.795-31.363C441.104,103.133,486.836,135.639,487.337,136.406z"/>
			</g>
			<g>
				<path fill="#FDDD75" d="M487.337,136.406l-21.465-30.886c-0.909-1.312-0.839-3.409,0.142-4.655l39.053-49.578
					c0.584-0.742,0.732-1.112,0.523-1.112c-0.156,0-0.506,0.184-1.02,0.592L441.744,98.99c-1.262,0.967-1.557,2.838-0.639,4.143
					L487.337,136.406z"/>
			</g>
		</g>
	</g>
	<g>
		<path fill="#5E8CDA" d="M21.404,150.293V83.354h3.75v63.095h18.844v3.844H21.404z"/>
		<path fill="#5E8CDA" d="M50.748,104.636c-0.688,0-1.406-0.281-2.156-0.844c-0.563-0.563-0.876-1.313-0.938-2.25
			c0-1.688,1.031-2.719,3.094-3.094c1.562,0,2.593,1.031,3.094,3.094C53.842,103.604,52.811,104.636,50.748,104.636z
			 M48.779,150.293v-38.72h3.844v38.72H48.779z"/>
		<path fill="#5E8CDA" d="M71.185,115.417v34.876h-3.844v-34.876h-5.25v-3.844h5.25V94.604h3.844v16.969h9v3.844H71.185z"/>
		<path fill="#5E8CDA" d="M89.561,130.137c0,5.25,1.406,9.407,4.219,12.469c2.937,3.126,6.969,4.688,12.094,4.688
			c2.625,0,5-0.437,7.125-1.313c2.687-1.125,5.093-3.406,7.219-6.844l3.469,1.594c-2.438,4.626-6.188,7.75-11.25,9.375
			c-1.938,0.624-4.125,0.938-6.563,0.938c-5.813,0-10.594-1.906-14.344-5.719c-3.813-3.812-5.719-8.593-5.719-14.344
			c0-5.813,1.875-10.595,5.625-14.345c3.812-3.812,8.625-5.719,14.438-5.719c5.75,0,10.5,1.781,14.25,5.344
			c3.812,3.563,5.719,8.189,5.719,13.876H89.561z M115.999,117.854c-2.938-2.124-6.313-3.188-10.125-3.188
			c-8.001,0-13.251,3.938-15.75,11.813h31.407C120.904,122.918,119.06,120.043,115.999,117.854z"/>
		<path fill="#5E8CDA" d="M158.468,149.73c-2.438,0.875-5.313,1.313-8.625,1.313c-10.251,0-16.845-4.843-19.782-14.531l3.844-1.313
			c2.187,8.001,7.5,12,15.938,12c4.812,0,8.593-1.187,11.344-3.563c2.813-2.438,4.219-6,4.219-10.688
			c0-4.438-1.657-8.124-4.969-11.063c-0.876-0.813-2.219-1.719-4.031-2.72c-1.813-0.999-4.125-2.124-6.938-3.375
			c-5.313-2.374-8.939-4.437-10.875-6.188c-3.25-2.813-4.875-6.53-4.875-11.156c0-4.624,1.655-8.344,4.969-11.156
			c3.25-2.874,7.25-4.313,12-4.313c7.875,0,13.437,2.938,16.688,8.813l-3.656,1.594c-1.251-2.063-2.751-3.594-4.5-4.594
			c-2.188-1.374-5.032-2.063-8.531-2.063c-3.688,0-6.75,1.031-9.188,3.094c-2.625,2.188-3.938,5.063-3.938,8.625
			c0,3.188,1.374,5.97,4.125,8.344c1.562,1.251,4.688,2.938,9.375,5.063c2.937,1.313,5.468,2.61,7.594,3.891
			c2.124,1.282,3.844,2.578,5.156,3.891c3.624,3.563,5.438,8.002,5.438,13.313C169.25,141.449,165.655,147.044,158.468,149.73z"/>
		<path fill="#5E8CDA" d="M213.03,145.137c-3.876,3.876-8.625,5.813-14.25,5.813c-6.438,0-11.751-2.625-15.938-7.875v25.406h-3.844
			v-56.907h3.844v7.313c3.999-5.25,9.313-7.875,15.938-7.875c5.625,0,10.343,1.907,14.156,5.719
			c3.875,3.876,5.813,8.626,5.813,14.251S216.842,141.325,213.03,145.137z M210.218,119.542c-3.188-3.188-7-4.781-11.438-4.781
			c-4.5,0-8.313,1.563-11.438,4.688c-3.188,3.188-4.781,7.032-4.781,11.532c0,4.438,1.594,8.25,4.781,11.438
			c3.188,3.188,7,4.781,11.438,4.781c4.5,0,8.312-1.562,11.438-4.688c3.188-3.188,4.781-7.031,4.781-11.531
			C214.999,126.543,213.405,122.73,210.218,119.542z"/>
		<path fill="#5E8CDA" d="M228.029,130.137c0,5.25,1.406,9.407,4.219,12.469c2.937,3.126,6.969,4.688,12.094,4.688
			c2.625,0,5-0.437,7.125-1.313c2.687-1.125,5.093-3.406,7.219-6.844l3.469,1.594c-2.438,4.626-6.188,7.75-11.25,9.375
			c-1.938,0.624-4.125,0.938-6.563,0.938c-5.813,0-10.594-1.906-14.344-5.719c-3.813-3.812-5.719-8.593-5.719-14.344
			c0-5.813,1.875-10.595,5.625-14.345c3.812-3.812,8.625-5.719,14.438-5.719c5.75,0,10.5,1.781,14.25,5.344
			c3.812,3.563,5.719,8.189,5.719,13.876H228.029z M254.467,117.854c-2.938-2.124-6.313-3.188-10.125-3.188
			c-8.001,0-13.251,3.938-15.75,11.813h31.407C259.373,122.918,257.529,120.043,254.467,117.854z"/>
		<path fill="#5E8CDA" d="M277.622,130.137c0,5.25,1.406,9.407,4.219,12.469c2.937,3.126,6.969,4.688,12.094,4.688
			c2.625,0,5-0.437,7.125-1.313c2.687-1.125,5.093-3.406,7.219-6.844l3.469,1.594c-2.438,4.626-6.188,7.75-11.25,9.375
			c-1.938,0.624-4.125,0.938-6.563,0.938c-5.813,0-10.594-1.906-14.344-5.719c-3.813-3.812-5.719-8.593-5.719-14.344
			c0-5.813,1.875-10.595,5.625-14.345c3.812-3.812,8.625-5.719,14.438-5.719c5.75,0,10.5,1.781,14.25,5.344
			c3.812,3.563,5.719,8.189,5.719,13.876H277.622z M304.06,117.854c-2.938-2.124-6.313-3.188-10.125-3.188
			c-8.001,0-13.251,3.938-15.75,11.813h31.407C308.966,122.918,307.122,120.043,304.06,117.854z"/>
		<path fill="#5E8CDA" d="M356.373,150.293v-6.938c-4.125,5.063-9.375,7.594-15.75,7.594c-5.625,0-10.345-1.906-14.157-5.719
			c-3.876-3.875-5.813-8.625-5.813-14.25s1.906-10.344,5.719-14.157c3.875-3.874,8.625-5.813,14.25-5.813
			c6.188,0,11.438,2.531,15.75,7.594V80.917h3.844v69.376H356.373z M352.06,119.542c-3.188-3.188-7-4.781-11.438-4.781
			c-4.5,0-8.313,1.563-11.438,4.688c-3.188,3.188-4.781,7.032-4.781,11.532c0,4.438,1.594,8.25,4.781,11.438
			c3.188,3.188,7,4.781,11.438,4.781c4.5,0,8.312-1.562,11.438-4.688c3.188-3.188,4.781-7.031,4.781-11.531
			C356.841,126.543,355.248,122.73,352.06,119.542z"/>
		<path fill="#093071" stroke="#093071" stroke-width="0.1" stroke-miterlimit="10" d="M614.837,151.23l-16.688-56.157
			l-16.782,56.157l-21.469-67.876h3.75l17.531,54.751l16.97-55.97l16.875,55.97l17.531-54.751h3.938L614.837,151.23z"/>
		<path fill="#093071" stroke="#093071" stroke-width="0.1" stroke-miterlimit="10" d="M637.993,130.137
			c0,5.25,1.406,9.407,4.219,12.469c2.938,3.126,6.969,4.688,12.094,4.688c2.625,0,5-0.437,7.126-1.313
			c2.687-1.125,5.093-3.406,7.219-6.844l3.469,1.594c-2.438,4.626-6.188,7.75-11.25,9.375c-1.938,0.624-4.126,0.938-6.563,0.938
			c-5.813,0-10.594-1.906-14.344-5.719c-3.813-3.812-5.719-8.593-5.719-14.344c0-5.813,1.875-10.595,5.625-14.345
			c3.812-3.812,8.625-5.719,14.438-5.719c5.75,0,10.501,1.781,14.251,5.344c3.812,3.563,5.719,8.189,5.719,13.876H637.993z
			 M664.432,117.854c-2.938-2.124-6.314-3.188-10.126-3.188c-8.001,0-13.251,3.938-15.75,11.813h31.407
			C669.337,122.918,667.493,120.043,664.432,117.854z"/>
		<path fill="#093071" stroke="#093071" stroke-width="0.1" stroke-miterlimit="10" d="M716.088,145.137
			c-3.876,3.876-8.625,5.813-14.251,5.813c-6.438,0-11.719-2.593-15.844-7.781v7.125h-3.844V80.917h3.844v37.875
			c4.063-5.187,9.343-7.781,15.844-7.781c5.626,0,10.344,1.907,14.157,5.719c3.874,3.876,5.813,8.626,5.813,14.251
			S719.899,141.325,716.088,145.137z M713.275,119.542c-3.188-3.188-7.001-4.781-11.438-4.781c-4.5,0-8.313,1.563-11.438,4.688
			c-3.188,3.188-4.781,7.032-4.781,11.532c0,4.438,1.594,8.25,4.781,11.438s6.999,4.781,11.438,4.781
			c4.501,0,8.313-1.562,11.438-4.688c3.188-3.188,4.781-7.031,4.781-11.531C718.057,126.543,716.463,122.73,713.275,119.542z"/>
		<path fill="#093071" stroke="#093071" stroke-width="0.1" stroke-miterlimit="10" d="M781.525,149.73
			c-2.438,0.875-5.313,1.313-8.626,1.313c-10.251,0-16.844-4.843-19.781-14.531l3.844-1.313c2.188,8.001,7.5,12,15.938,12
			c4.813,0,8.594-1.187,11.345-3.563c2.813-2.438,4.219-6,4.219-10.688c0-4.438-1.657-8.124-4.969-11.063
			c-0.876-0.813-2.22-1.719-4.031-2.72c-1.814-0.999-4.126-2.124-6.938-3.375c-5.313-2.374-8.938-4.437-10.875-6.188
			c-3.25-2.813-4.875-6.53-4.875-11.156c0-4.624,1.655-8.344,4.969-11.156c3.249-2.874,7.25-4.313,12-4.313
			c7.876,0,13.438,2.938,16.688,8.813l-3.656,1.594c-1.251-2.063-2.751-3.594-4.5-4.594c-2.188-1.374-5.032-2.063-8.532-2.063
			c-3.688,0-6.75,1.031-9.188,3.094c-2.625,2.188-3.938,5.063-3.938,8.625c0,3.188,1.374,5.97,4.125,8.344
			c1.562,1.251,4.688,2.938,9.375,5.063c2.938,1.313,5.469,2.61,7.595,3.891c2.124,1.282,3.844,2.578,5.156,3.891
			c3.624,3.563,5.438,8.002,5.438,13.313C792.307,141.449,788.712,147.044,781.525,149.73z"/>
		<path fill="#093071" stroke="#093071" stroke-width="0.1" stroke-miterlimit="10" d="M802.992,130.137
			c0,5.25,1.406,9.407,4.219,12.469c2.938,3.126,6.969,4.688,12.094,4.688c2.625,0,5-0.437,7.126-1.313
			c2.687-1.125,5.093-3.406,7.219-6.844l3.469,1.594c-2.438,4.626-6.188,7.75-11.25,9.375c-1.938,0.624-4.126,0.938-6.563,0.938
			c-5.813,0-10.594-1.906-14.344-5.719c-3.813-3.812-5.719-8.593-5.719-14.344c0-5.813,1.875-10.595,5.625-14.345
			c3.812-3.812,8.625-5.719,14.438-5.719c5.75,0,10.501,1.781,14.251,5.344c3.812,3.563,5.719,8.189,5.719,13.876H802.992z
			 M829.431,117.854c-2.938-2.124-6.314-3.188-10.126-3.188c-8.001,0-13.251,3.938-15.75,11.813h31.407
			C834.336,122.918,832.492,120.043,829.431,117.854z"/>
		<path fill="#093071" stroke="#093071" stroke-width="0.1" stroke-miterlimit="10" d="M866.461,117.292
			c-1-0.75-2.063-1.343-3.188-1.781c-1.125-0.437-2.313-0.656-3.563-0.656c-1.063,0-2.063,0.328-3,0.984s-1.75,1.47-2.438,2.438
			c-0.688,0.97-1.234,2.048-1.641,3.235c-0.407,1.188-0.609,2.282-0.609,3.281v25.5h-3.844v-38.72h3.844v5.25
			c0.812-1.437,1.875-2.749,3.188-3.938c1.313-1.187,2.75-1.781,4.313-1.781c1.937,0,3.53,0.22,4.781,0.656
			c1.25,0.438,2.656,1.219,4.219,2.344L866.461,117.292z"/>
		<path fill="#093071" stroke="#093071" stroke-width="0.1" stroke-miterlimit="10" d="M891.867,151.98l-18.281-40.407h4.125
			l14.063,30.845l14.157-30.845h4.313L891.867,151.98z"/>
		<path fill="#093071" stroke="#093071" stroke-width="0.1" stroke-miterlimit="10" d="M918.773,130.137
			c0,5.25,1.406,9.407,4.219,12.469c2.938,3.126,6.969,4.688,12.094,4.688c2.625,0,5-0.437,7.126-1.313
			c2.687-1.125,5.093-3.406,7.219-6.844l3.469,1.594c-2.438,4.626-6.188,7.75-11.25,9.375c-1.938,0.624-4.126,0.938-6.563,0.938
			c-5.813,0-10.594-1.906-14.344-5.719c-3.813-3.812-5.719-8.593-5.719-14.344c0-5.813,1.875-10.595,5.625-14.345
			c3.812-3.812,8.625-5.719,14.438-5.719c5.75,0,10.501,1.781,14.251,5.344c3.812,3.563,5.719,8.189,5.719,13.876H918.773z
			 M945.212,117.854c-2.938-2.124-6.314-3.188-10.126-3.188c-8.001,0-13.251,3.938-15.75,11.813h31.407
			C950.117,122.918,948.273,120.043,945.212,117.854z"/>
		<path fill="#093071" stroke="#093071" stroke-width="0.1" stroke-miterlimit="10" d="M982.242,117.292
			c-1-0.75-2.063-1.343-3.188-1.781c-1.125-0.437-2.313-0.656-3.563-0.656c-1.063,0-2.063,0.328-3,0.984s-1.75,1.47-2.438,2.438
			c-0.688,0.97-1.234,2.048-1.641,3.235c-0.407,1.188-0.609,2.282-0.609,3.281v25.5h-3.844v-38.72h3.844v5.25
			c0.812-1.437,1.875-2.749,3.188-3.938c1.313-1.187,2.75-1.781,4.313-1.781c1.937,0,3.53,0.22,4.781,0.656
			c1.25,0.438,2.656,1.219,4.219,2.344L982.242,117.292z"/>
	</g>
</g>
</svg>
