<?xml version="1.0" encoding="utf-8"?>
<!-- Generator: Adobe Illustrator 16.0.0, SVG Export Plug-In . SVG Version: 6.00 Build 0)  -->
<!DOCTYPE svg PUBLIC "-//W3C//DTD SVG 1.1//EN" "http://www.w3.org/Graphics/SVG/1.1/DTD/svg11.dtd">
<svg version="1.1" id="Layer_1" xmlns="http://www.w3.org/2000/svg" xmlns:xlink="http://www.w3.org/1999/xlink" x="0px" y="0px"
	 width="48px" height="48px" viewBox="0 0 48 48" enable-background="new 0 0 48 48" xml:space="preserve">
<g>
	<path fill="#006699" d="M10.913,29.9L1.366,16.171c-0.014-0.021-0.017-0.044-0.028-0.065C0.475,18.579,0,21.233,0,24
		c0,5.682,1.979,10.899,5.28,15.01l5.565-7.062C11.277,31.394,11.31,30.479,10.913,29.9z"/>
	<path fill="#006699" d="M1.372,16.015c0.252-0.715,0.533-1.416,0.849-2.098C1.905,14.599,1.625,15.3,1.372,16.015z"/>
	<path fill="#006699" d="M6.917,40.853c-0.573-0.583-1.116-1.194-1.628-1.832C5.801,39.658,6.343,40.271,6.917,40.853z"/>
	<path fill="#006699" d="M20.023,0.341c0.607-0.102,1.221-0.185,1.842-0.241C21.244,0.154,20.631,0.239,20.023,0.341z"/>
	<path fill="#006699" d="M2.222,13.916L19.873,0.37C12.021,1.732,5.476,6.899,2.222,13.916z"/>
	<path fill="#006699" d="M45.743,34.161c-0.761,1.624-1.698,3.147-2.786,4.548C44.046,37.309,44.983,35.785,45.743,34.161z"/>
	<path fill="#006699" d="M30.854,21.917c-5.146,0-9.333,4.187-9.333,9.333c0,5.147,4.187,9.335,9.333,9.335
		c5.147,0,9.335-4.188,9.335-9.335C40.188,26.104,36.001,21.917,30.854,21.917z"/>
	<path fill="#006699" d="M39.498,42.318c-0.379,0.322-0.771,0.63-1.169,0.928C38.728,42.948,39.118,42.641,39.498,42.318z"/>
	<path fill="#006699" d="M8.688,42.477c-0.614-0.51-1.204-1.047-1.763-1.615C7.485,41.429,8.074,41.967,8.688,42.477z"/>
	<path fill="#006699" d="M24,0c0.075,0,0.148,0.005,0.222,0.006L12.271,15.175c-0.429,0.554-0.459,1.466-0.065,2.043l5.594,8.045
		c-0.246,0.53-0.468,1.063-0.639,1.594l-4.046,1.438c-0.287,0.102-0.489,0.352-0.53,0.654c-0.113,0.849-0.165,1.58-0.165,2.3
		c0,0.721,0.052,1.452,0.165,2.302c0.04,0.299,0.242,0.549,0.529,0.652l4.047,1.439c0.036,0.11,0.083,0.22,0.122,0.33l-8.533,6.551
		C12.895,45.943,18.206,48,24,48c1.524,0,3.014-0.148,4.459-0.42l-1.141-3.206c-0.052-0.147-0.171-0.262-0.321-0.309l-0.15-0.048
		c-0.731-0.231-1.465-0.538-2.176-0.908l-0.14-0.074c-0.141-0.075-0.307-0.08-0.45-0.01l-3.989,1.917
		c-1.086-0.855-2.067-1.836-2.918-2.916l1.905-4.005c0.067-0.143,0.064-0.308-0.009-0.447l-0.073-0.139
		c-0.376-0.718-0.683-1.451-0.911-2.178l-0.047-0.151c-0.047-0.149-0.162-0.27-0.31-0.321l-4.169-1.483
		c-0.096-0.754-0.141-1.409-0.141-2.052c0-0.642,0.045-1.297,0.141-2.051l4.169-1.483c0.147-0.052,0.262-0.171,0.309-0.32
		l0.048-0.151c0.228-0.725,0.535-1.458,0.91-2.178l0.074-0.14c0.073-0.14,0.077-0.305,0.009-0.448l-1.905-4.004
		c0.852-1.08,1.827-2.056,2.901-2.903l4.006,1.904c0.142,0.067,0.306,0.064,0.445-0.008l0.142-0.074
		c0.722-0.377,1.455-0.684,2.176-0.91l0.15-0.047c0.15-0.047,0.27-0.162,0.322-0.31l1.484-4.171c1.523-0.19,2.575-0.191,4.102,0
		l1.484,4.171c0.053,0.148,0.172,0.263,0.322,0.31l0.149,0.046c0.724,0.228,1.457,0.534,2.178,0.91l0.14,0.073
		c0.141,0.074,0.305,0.077,0.447,0.009l3.99-1.917c1.082,0.853,2.063,1.833,2.917,2.916l-1.904,4.005
		c-0.067,0.142-0.064,0.307,0.008,0.446l0.073,0.14c0.378,0.725,0.685,1.458,0.912,2.181l0.048,0.15
		c0.048,0.149,0.162,0.268,0.309,0.319l3.506,1.247C47.82,27.361,48,25.702,48,24C48,10.745,37.255,0,24,0z"/>
	<path fill="#006699" d="M43.669,35.104l-0.049,0.154c-0.23,0.729-0.537,1.462-0.912,2.179l-0.072,0.139
		c-0.072,0.14-0.075,0.305-0.008,0.446l0.328,0.689c0,0,0.001-0.001,0.001-0.002c1.088-1.4,2.025-2.924,2.786-4.548
		c0.001-0.001,0.002-0.003,0.003-0.005l-1.769,0.629C43.831,34.837,43.717,34.955,43.669,35.104z"/>
	<path fill="#006699" d="M37.624,43.025c-0.142-0.069-0.308-0.064-0.444,0.007l-0.143,0.074c-0.717,0.377-1.449,0.684-2.177,0.911
		l-0.151,0.048c-0.149,0.047-0.269,0.161-0.32,0.309l-0.537,1.51c0.003-0.001,0.005-0.003,0.008-0.004
		c0.378-0.17,0.751-0.351,1.118-0.54c0.016-0.008,0.03-0.016,0.045-0.022c0.354-0.183,0.701-0.375,1.043-0.574
		c0.028-0.016,0.056-0.031,0.084-0.048c0.333-0.195,0.661-0.4,0.984-0.611c0.029-0.02,0.06-0.037,0.088-0.057
		c0.345-0.229,0.68-0.469,1.011-0.713L37.624,43.025z"/>
	<path fill="#006699" d="M37.222,44.027c0.346-0.229,0.686-0.465,1.018-0.71l-0.007-0.003
		C37.901,43.559,37.566,43.799,37.222,44.027z"/>
	<path fill="#85ADFF" d="M43.669,27.396l-0.048-0.15c-0.228-0.723-0.534-1.456-0.912-2.181l-0.073-0.14
		c-0.072-0.139-0.075-0.304-0.008-0.446l1.904-4.005c-0.854-1.083-1.835-2.063-2.917-2.916l-3.99,1.917
		c-0.143,0.068-0.307,0.065-0.447-0.009l-0.14-0.073c-0.721-0.376-1.454-0.683-2.178-0.91l-0.149-0.046
		c-0.15-0.047-0.27-0.162-0.322-0.31l-1.484-4.171c-1.526-0.191-2.578-0.19-4.102,0l-1.484,4.171
		c-0.053,0.148-0.172,0.263-0.322,0.31l-0.15,0.047c-0.722,0.227-1.454,0.533-2.176,0.91l-0.142,0.074
		c-0.14,0.072-0.303,0.075-0.445,0.008l-4.006-1.904c-1.074,0.847-2.05,1.823-2.901,2.903l1.905,4.004
		c0.067,0.143,0.064,0.308-0.009,0.448l-0.074,0.14c-0.375,0.72-0.682,1.453-0.91,2.178l-0.048,0.151
		c-0.047,0.149-0.162,0.269-0.309,0.32l-4.169,1.483c-0.096,0.754-0.141,1.409-0.141,2.051c0,0.643,0.045,1.298,0.141,2.052
		l4.169,1.483c0.148,0.052,0.263,0.172,0.31,0.321l0.047,0.151c0.229,0.727,0.535,1.46,0.911,2.178l0.073,0.139
		c0.073,0.14,0.076,0.305,0.009,0.447l-1.905,4.005c0.851,1.08,1.833,2.061,2.918,2.916l3.989-1.917
		c0.143-0.07,0.309-0.065,0.45,0.01l0.14,0.074c0.711,0.37,1.444,0.677,2.176,0.908l0.15,0.048c0.15,0.047,0.27,0.161,0.321,0.309
		l1.141,3.206c0.002,0,0.004-0.001,0.005-0.001c1.881-0.354,3.684-0.928,5.382-1.692c0.002-0.001,0.004-0.002,0.006-0.003
		l0.537-1.51c0.052-0.147,0.171-0.262,0.32-0.309l0.151-0.048c0.728-0.228,1.46-0.534,2.177-0.911l0.143-0.074
		c0.137-0.071,0.303-0.076,0.444-0.007l0.608,0.289c0.031-0.023,0.064-0.045,0.097-0.068c0.398-0.298,0.79-0.605,1.169-0.928
		c0.032-0.027,0.063-0.055,0.096-0.083c0.396-0.339,0.781-0.688,1.153-1.052c0.004-0.004,0.009-0.008,0.013-0.012
		c0.786-0.769,1.52-1.59,2.195-2.459c0-0.001,0-0.001,0.001-0.002l-0.328-0.689c-0.067-0.142-0.064-0.307,0.008-0.446l0.072-0.139
		c0.375-0.717,0.682-1.449,0.912-2.179l0.049-0.154c0.048-0.148,0.162-0.267,0.309-0.318l1.769-0.629
		c0.002-0.005,0.004-0.01,0.006-0.015c0.181-0.386,0.35-0.776,0.509-1.173c0.021-0.05,0.04-0.1,0.06-0.149
		c0.141-0.356,0.272-0.717,0.396-1.08c0.024-0.07,0.049-0.14,0.071-0.21c0.118-0.356,0.227-0.717,0.328-1.081
		c0.02-0.067,0.04-0.135,0.058-0.202c0.113-0.421,0.217-0.845,0.308-1.274c0.001-0.003,0.001-0.006,0.002-0.009l-3.506-1.247
		C43.831,27.664,43.717,27.546,43.669,27.396z M30.854,40.585c-5.146,0-9.333-4.188-9.333-9.335c0-5.146,4.187-9.333,9.333-9.333
		c5.147,0,9.335,4.187,9.335,9.333C40.188,36.397,36.001,40.585,30.854,40.585z"/>
	<path fill="#85ADFF" d="M38.239,43.317c0.03-0.022,0.059-0.048,0.09-0.071c-0.032,0.023-0.065,0.045-0.097,0.068L38.239,43.317z"/>
	<path fill="#FFCC00" d="M17.16,35.644l-4.047-1.439c-0.287-0.104-0.489-0.354-0.529-0.652c-0.113-0.85-0.165-1.581-0.165-2.302
		c0-0.72,0.052-1.451,0.165-2.3c0.041-0.303,0.243-0.553,0.53-0.654l4.046-1.438c0.171-0.531,0.393-1.063,0.639-1.594l-5.594-8.045
		c-0.394-0.577-0.363-1.489,0.065-2.043L24.222,0.006C24.148,0.005,24.075,0,24,0c-0.67,0-1.332,0.033-1.987,0.088
		c-0.049,0.004-0.099,0.007-0.147,0.011c-0.621,0.057-1.234,0.14-1.842,0.241c-0.05,0.008-0.1,0.02-0.15,0.029L2.222,13.916
		c0,0,0,0,0,0.001c-0.316,0.682-0.597,1.383-0.849,2.098c-0.011,0.031-0.023,0.061-0.034,0.092c0.012,0.021,0.015,0.044,0.028,0.065
		L10.913,29.9c0.396,0.579,0.364,1.493-0.067,2.048L5.28,39.01c0.003,0.004,0.005,0.008,0.008,0.011
		c0.512,0.638,1.055,1.249,1.628,1.832c0.003,0.003,0.006,0.006,0.009,0.009c0.56,0.568,1.149,1.105,1.763,1.615
		c0.02,0.016,0.04,0.031,0.06,0.048l8.533-6.551C17.243,35.863,17.195,35.754,17.16,35.644z"/>
	<path fill="#FFCC00" d="M1.336,16.103c0,0.001,0.001,0.002,0.001,0.004c0.011-0.031,0.023-0.061,0.034-0.092
		C1.361,16.044,1.347,16.073,1.336,16.103z"/>
	<polygon fill="#FFCC00" points="5.28,39.011 5.289,39.021 5.28,39.01 	"/>
	<path fill="#FFCC00" d="M19.888,0.358L19.873,0.37c0.051-0.009,0.1-0.021,0.15-0.029C19.979,0.348,19.933,0.351,19.888,0.358z"/>
	<path fill="#FFCC00" d="M8.744,42.527l0.004-0.003c-0.02-0.017-0.041-0.032-0.06-0.048C8.708,42.492,8.725,42.512,8.744,42.527z"/>
</g>
</svg>
