<?xml version="1.0" encoding="utf-8"?>
<!-- Generator: Adobe Illustrator 16.0.0, SVG Export Plug-In . SVG Version: 6.00 Build 0)  -->
<!DOCTYPE svg PUBLIC "-//W3C//DTD SVG 1.1//EN" "http://www.w3.org/Graphics/SVG/1.1/DTD/svg11.dtd">
<svg version="1.1" id="Layer_1" xmlns="http://www.w3.org/2000/svg" xmlns:xlink="http://www.w3.org/1999/xlink" x="0px" y="0px"
	 width="48px" height="48px" viewBox="0 0 48 48" enable-background="new 0 0 48 48" xml:space="preserve">
<path fill="#006699" d="M46.615,3H1.556C0.746,3,0.085,3.66,0.085,4.473V43.53c0,0.811,0.66,1.47,1.471,1.47h45.059
	c0.811,0,1.471-0.659,1.471-1.47V4.473C48.086,3.66,47.426,3,46.615,3z"/>
<rect x="1.29" y="6.428" fill="#F1F6FF" width="45.421" height="35.145"/>
<g>
	<path fill="none" d="M1.189,30.525c0,0.427,0.042,0.844,0.101,1.255v-2.508C1.23,29.683,1.189,30.099,1.189,30.525z"/>
	<path fill="none" d="M9.881,39.224c4.795,0,8.693-3.9,8.693-8.698c0-4.789-3.898-8.688-8.693-8.688
		c-4.363,0-7.979,3.239-8.591,7.435v2.508C1.901,35.983,5.518,39.224,9.881,39.224z"/>
	<path fill="none" d="M35.77,11.361c-4.018,1.57-6.008,6.116-4.438,10.132c1.568,4.022,6.11,6.011,10.135,4.444
		c4.016-1.574,6.01-6.12,4.438-10.136C44.334,11.782,39.788,9.788,35.77,11.361z"/>
	<path fill="#ACDDEE" d="M19.826,31.207h2.089v-5.319c-0.173-0.443-0.363-0.887-0.591-1.325l-0.139-0.261l0.73-1.534v-0.255h-2.497
		v-4.479h1.561c-0.274-0.244-0.536-0.503-0.825-0.728l-4.041,1.918l-0.261-0.134c-0.7-0.365-1.408-0.658-2.105-0.878l-0.281-0.09
		l-1.495-4.209c-0.773-0.098-1.444-0.149-2.09-0.149c-0.64,0-1.311,0.051-2.083,0.149L6.3,18.122l-0.283,0.09
		c-0.7,0.22-1.405,0.514-2.102,0.878l-0.263,0.134L1.29,18.103v11.169c0.611-4.196,4.228-7.435,8.591-7.435
		c4.795,0,8.693,3.899,8.693,8.688c0,4.798-3.898,8.698-8.693,8.698c-4.363,0-7.979-3.24-8.591-7.443v9.792h21.137
		c0.227-0.258,0.47-0.5,0.682-0.771l-1.924-4.043l0.139-0.263c0.119-0.228,0.218-0.458,0.322-0.688h-1.82V31.207z"/>
	<path fill="#ACDDEE" d="M46.248,9.898l-0.199-0.172l0.234-3.299h-5.481l-0.663,0.706l-0.268-0.031
		c-0.699-0.073-1.393-0.091-2.051-0.046l-0.268,0.02l-0.561-0.648h-5.533l0.09,2.997L31.342,9.59
		c-0.512,0.411-1.01,0.893-1.473,1.424l-0.174,0.199l-4.021-0.284c-0.28,0.47-0.522,0.96-0.75,1.456
		c0.323,0.123,0.606,0.302,0.847,0.542c0.488,0.488,0.735,1.154,0.735,1.979c0,0.525-0.111,0.978-0.311,1.37l0.906,0.852
		l-0.031,0.264c-0.073,0.704-0.086,1.394-0.048,2.049l0.02,0.268l-0.536,0.464v5.631l2.883-0.089l0.168,0.211
		c0.412,0.511,0.889,1.01,1.424,1.472l0.199,0.177l-0.288,4.018c1.081,0.646,2.235,1.15,3.444,1.506l2.764-2.936l0.26,0.027
		c0.7,0.08,1.393,0.094,2.052,0.051l0.261-0.018l2.64,3.035c0.679-0.168,1.253-0.346,1.796-0.557
		c0.539-0.209,1.093-0.472,1.699-0.809l-0.123-4.02l0.205-0.166c0.279-0.224,0.553-0.471,0.82-0.733V10.337
		C46.559,10.19,46.41,10.041,46.248,9.898z M41.467,25.938c-4.024,1.566-8.566-0.422-10.135-4.444
		c-1.57-4.016,0.42-8.562,4.438-10.132c4.019-1.573,8.564,0.42,10.135,4.44C47.477,19.818,45.482,24.364,41.467,25.938z"/>
</g>
<g>
	<path fill="#0099FF" d="M22.54,31.832v-9.944h-2.497v-3.229h5.84v13.173h2.074v3.351h-7.506v-3.351H22.54z M25.333,16.442
		c-0.369,0.367-0.881,0.554-1.537,0.554c-0.657,0-1.17-0.187-1.537-0.554c-0.371-0.37-0.553-0.878-0.553-1.536
		c0-0.655,0.183-1.17,0.553-1.536c0.366-0.366,0.879-0.553,1.537-0.553c0.656,0,1.168,0.187,1.537,0.553
		c0.366,0.366,0.55,0.881,0.55,1.536C25.883,15.564,25.699,16.072,25.333,16.442z"/>
</g>
</svg>
