<?xml version="1.0" encoding="utf-8"?>
<!-- Generator: Adobe Illustrator 16.0.0, SVG Export Plug-In . SVG Version: 6.00 Build 0)  -->
<!DOCTYPE svg PUBLIC "-//W3C//DTD SVG 1.1//EN" "http://www.w3.org/Graphics/SVG/1.1/DTD/svg11.dtd">
<svg version="1.1" id="Layer_1" xmlns="http://www.w3.org/2000/svg" xmlns:xlink="http://www.w3.org/1999/xlink" x="0px" y="0px"
	 width="48px" height="48px" viewBox="0 0 48 48" enable-background="new 0 0 48 48" xml:space="preserve">
<g>
	<path fill="#33CCFF" d="M47.949,23.854c-0.004-0.022-0.013-0.044-0.019-0.065c-0.008-0.025-0.014-0.051-0.023-0.074
		c-0.011-0.026-0.025-0.049-0.038-0.073c-0.01-0.019-0.02-0.038-0.029-0.055c-0.027-0.041-0.059-0.079-0.094-0.114l-0.001-0.001
		L24.528,0.255h-0.001c-0.002-0.002-0.004-0.003-0.006-0.005C24.388,0.118,24.204,0.036,24,0.036c-0.203,0-0.388,0.082-0.521,0.214
		c-0.002,0.002-0.004,0.003-0.006,0.005h-0.001L0.255,23.472v0.001c-0.036,0.035-0.067,0.073-0.093,0.114
		c-0.012,0.017-0.02,0.036-0.03,0.055c-0.014,0.024-0.028,0.047-0.039,0.073c-0.01,0.023-0.016,0.049-0.022,0.074
		c-0.007,0.021-0.016,0.043-0.02,0.065C0.041,23.901,0.036,23.95,0.036,24c0,0.051,0.005,0.099,0.015,0.146
		c0.004,0.022,0.013,0.044,0.02,0.065c0.007,0.025,0.013,0.051,0.022,0.074c0.011,0.025,0.025,0.049,0.039,0.074
		c0.011,0.018,0.019,0.037,0.03,0.055c0.025,0.04,0.057,0.077,0.093,0.113v0.001l23.217,23.216l0.001,0.002
		c0.034,0.034,0.072,0.064,0.112,0.092c0.008,0.006,0.018,0.01,0.025,0.014c0.033,0.021,0.067,0.04,0.103,0.055
		c0.014,0.006,0.028,0.009,0.043,0.014c0.031,0.011,0.063,0.022,0.097,0.029c0.047,0.01,0.097,0.015,0.147,0.015
		s0.1-0.005,0.147-0.015c0.033-0.007,0.065-0.019,0.098-0.029c0.014-0.005,0.027-0.008,0.041-0.014
		c0.036-0.015,0.07-0.033,0.104-0.055c0.008-0.004,0.018-0.008,0.025-0.014c0.04-0.027,0.077-0.058,0.112-0.092l0.001-0.002
		l23.217-23.216l0.001-0.001c0.035-0.036,0.066-0.073,0.094-0.113c0.01-0.018,0.02-0.037,0.029-0.055
		c0.013-0.025,0.027-0.049,0.038-0.074c0.01-0.023,0.016-0.049,0.023-0.074c0.006-0.021,0.015-0.043,0.019-0.065
		c0.01-0.047,0.015-0.095,0.015-0.146C47.964,23.95,47.959,23.901,47.949,23.854z"/>
</g>
<path fill="#006699" d="M47.949,23.854c-0.004-0.022-0.013-0.044-0.019-0.065c-0.008-0.025-0.014-0.051-0.023-0.074
	c-0.011-0.026-0.025-0.049-0.038-0.073c-0.01-0.019-0.02-0.038-0.029-0.055c-0.027-0.041-0.059-0.079-0.094-0.114l-0.001-0.001
	L24.528,0.255h-0.001c-0.002-0.002-0.004-0.003-0.006-0.005C24.388,0.118,24.204,0.036,24,0.036c-0.203,0-0.388,0.082-0.521,0.214
	c-0.002,0.002-0.004,0.003-0.006,0.005h-0.001L0.255,23.472v0.001c-0.036,0.035-0.067,0.073-0.093,0.114
	c-0.012,0.017-0.02,0.036-0.03,0.055c-0.014,0.024-0.028,0.047-0.039,0.073c-0.01,0.023-0.016,0.049-0.022,0.074
	c-0.007,0.021-0.016,0.043-0.02,0.065C0.041,23.901,0.036,23.95,0.036,24c0,0.051,0.005,0.099,0.015,0.146
	c0.004,0.022,0.013,0.044,0.02,0.065c0.007,0.025,0.013,0.051,0.022,0.074c0.011,0.025,0.025,0.049,0.039,0.074
	c0.011,0.018,0.019,0.037,0.03,0.055c0.025,0.04,0.057,0.077,0.093,0.113v0.001l23.217,23.216l0.001,0.002
	c0.034,0.034,0.072,0.064,0.112,0.092c0.008,0.006,0.018,0.01,0.025,0.014c0.033,0.021,0.067,0.04,0.103,0.055
	c0.014,0.006,0.028,0.009,0.043,0.014c0.031,0.011,0.063,0.022,0.097,0.029c0.047,0.01,0.097,0.015,0.147,0.015
	s0.1-0.005,0.147-0.015c0.033-0.007,0.065-0.019,0.098-0.029c0.014-0.005,0.027-0.008,0.041-0.014
	c0.036-0.015,0.07-0.033,0.104-0.055c0.008-0.004,0.018-0.008,0.025-0.014c0.04-0.027,0.077-0.058,0.112-0.092l0.001-0.002
	l23.217-23.216l0.001-0.001c0.035-0.036,0.066-0.073,0.094-0.113c0.01-0.018,0.02-0.037,0.029-0.055
	c0.013-0.025,0.027-0.049,0.038-0.074c0.01-0.023,0.016-0.049,0.023-0.074c0.006-0.021,0.015-0.043,0.019-0.065
	c0.01-0.047,0.015-0.095,0.015-0.146C47.964,23.95,47.959,23.901,47.949,23.854z M37.24,23.254L24.746,10.76V2.584l20.67,20.67
	H37.24z M23.254,2.584v8.176L10.761,23.254H2.584L23.254,2.584z M10.761,24.746l12.493,12.493v8.177l-20.67-20.67H10.761z
	 M24.746,45.416V37.24L37.24,24.746h8.176L24.746,45.416z"/>
<path fill="#F7C600" d="M28.389,16.81c0.063-0.079,0.115-0.156,0.076-0.235c-0.018-0.039-0.066-0.068-0.111-0.068
	c-0.049,0-0.1,0.025-0.18,0.087l-6.637,5.095c-0.183,0.14-0.225,0.407-0.091,0.596l2.303,3.313c0.066,0.097,0.062,0.265-0.012,0.356
	l-4.126,5.236c-0.062,0.08-0.114,0.159-0.075,0.236c0.02,0.04,0.066,0.068,0.11,0.068c0.05,0,0.101-0.024,0.18-0.088l6.637-5.094
	c0.182-0.138,0.102-0.501,0.074-0.609c-0.004-0.013-0.01-0.024-0.018-0.035l-2.268-3.265c-0.067-0.096-0.062-0.263,0.011-0.354
	L28.389,16.81z"/>
</svg>
