<?xml version="1.0" encoding="utf-8"?>
<!-- Generator: Adobe Illustrator 16.0.0, SVG Export Plug-In . SVG Version: 6.00 Build 0)  -->
<!DOCTYPE svg PUBLIC "-//W3C//DTD SVG 1.1//EN" "http://www.w3.org/Graphics/SVG/1.1/DTD/svg11.dtd">
<svg version="1.1" id="Layer_1" xmlns="http://www.w3.org/2000/svg" xmlns:xlink="http://www.w3.org/1999/xlink" x="0px" y="0px"
	 width="48px" height="48px" viewBox="0 0 48 48" enable-background="new 0 0 48 48" xml:space="preserve">
<g>
	<path fill="#3385AD" d="M26.811,31.051c0.101-0.287,0.171-0.588,0.208-0.9c0.02-0.166,0.032-0.334,0.032-0.504v-1.045
		c0-1.154-0.449-2.238-1.266-3.053c-0.814-0.816-1.898-1.266-3.052-1.266h-1.045c-0.432,0-0.86,0.065-1.27,0.191l3.157,1.955
		c0.011,0.006,0.02,0.013,0.029,0.02c0.777,0.563,0.718,2.047-0.138,3.464c-0.896,1.486-2.224,2.215-3.087,1.694
		c-0.031-0.019-1.848-1.146-3.009-1.867c0.023,1.117,0.471,2.165,1.264,2.958c0.814,0.816,1.899,1.265,3.053,1.265h1.045
		c0.437,0,0.857-0.065,1.255-0.187c0.299-0.092,0.584-0.215,0.852-0.366C25.756,32.896,26.463,32.057,26.811,31.051z"/>
	<path fill="#3385AD" d="M41.634,0H10.753v48h30.881c0.57,0,1.032-0.462,1.032-1.032V30.193V21.85v-0.043v-8.344v-0.043V5.075V1.033
		C42.666,0.462,42.204,0,41.634,0z M36.075,9.424h3.396v1.024h-2.146v1.294h1.996v1.024h-1.996v1.52h2.146v1.032h-3.396V9.424z
		 M29.757,9.424h1.25v2.311h2.335V9.424h1.246v5.895h-1.246v-2.544h-2.335v2.544h-1.25V9.424z M33.596,18.807
		c0.102,0.089,0.102,0.234,0,0.323l-6.775,3.017c-0.102,0.089-0.265,0.089-0.366,0l-6.776-3.017c-0.102-0.089-0.102-0.234,0-0.323
		h3.074v-1.48c0-0.126,0.116-0.228,0.26-0.228h7.25c0.144,0,0.26,0.101,0.26,0.228v1.48H33.596z M24.568,10.769
		c0.223-0.461,0.543-0.814,0.961-1.061c0.418-0.246,0.908-0.369,1.47-0.369c0.573,0,1.148,0.138,1.726,0.415l-0.402,1.016
		c-0.221-0.104-0.442-0.196-0.666-0.274c-0.223-0.078-0.442-0.117-0.657-0.117c-0.47,0-0.834,0.177-1.093,0.53
		c-0.258,0.354-0.387,0.846-0.387,1.478c0,1.314,0.493,1.972,1.479,1.972c0.414,0,0.916-0.104,1.504-0.311v1.048
		c-0.483,0.202-1.023,0.303-1.62,0.303c-0.858,0-1.514-0.26-1.968-0.78c-0.455-0.521-0.682-1.267-0.682-2.24
		C24.233,11.767,24.345,11.229,24.568,10.769z M20.137,9.4h1.528l2.088,5.919h-1.347l-0.427-1.403H19.83l-0.428,1.403h-1.347
		L20.137,9.4z M13.955,14.62c-0.454-0.521-0.682-1.267-0.682-2.24c0-0.613,0.111-1.15,0.335-1.611
		c0.223-0.461,0.544-0.814,0.962-1.061c0.418-0.246,0.907-0.369,1.47-0.369c0.572,0,1.147,0.138,1.726,0.415l-0.403,1.016
		c-0.221-0.104-0.442-0.196-0.665-0.274c-0.224-0.078-0.442-0.117-0.657-0.117c-0.471,0-0.835,0.177-1.093,0.53
		s-0.388,0.846-0.388,1.478c0,1.314,0.493,1.972,1.48,1.972c0.414,0,0.915-0.104,1.504-0.311v1.048
		C17.06,15.299,16.52,15.4,15.923,15.4C15.065,15.4,14.409,15.14,13.955,14.62z M38.917,45.252c-0.997,0.998-2.62,0.998-3.618,0
		l-8.287-8.287l-2.43-2.429c-0.575,0.219-1.197,0.344-1.849,0.344h-1.045c-1.398,0-2.712-0.545-3.701-1.533
		c-0.988-0.988-1.533-2.303-1.533-3.701v-0.729c0-0.167,0.09-0.32,0.236-0.4c0.145-0.082,0.322-0.077,0.464,0.01
		c1.547,0.961,3.639,2.26,3.699,2.297c0.291,0.175,1.169-0.287,1.829-1.383c0.639-1.059,0.647-1.988,0.41-2.227
		c-0.006-0.006-0.012-0.011-0.018-0.016l-3.894-2.411c-0.03-0.019-0.058-0.04-0.083-0.065c-0.001-0.001-0.003-0.004-0.004-0.004
		c-0.18-0.18-0.18-0.469,0-0.648c0.051-0.051,0.112-0.088,0.177-0.109c0.742-0.388,1.576-0.592,2.417-0.592h1.045
		c1.398,0,2.712,0.545,3.7,1.533s1.533,2.303,1.533,3.701v1.045c0,0.329-0.034,0.65-0.093,0.963c0.065,0.054,0.13,0.111,0.19,0.172
		l1.67,1.67l0.896,0.896l8.287,8.287C39.915,42.632,39.915,44.255,38.917,45.252z"/>
	<path fill="#3385AD" d="M29.086,33.1L29.086,33.1l-1.5-1.501c-0.424,1.049-1.179,1.927-2.134,2.511l2.208,2.208l8.287,8.287
		c0.64,0.641,1.682,0.641,2.322,0s0.641-1.683,0-2.322L29.086,33.1z M35.597,41.984c-0.146,0.146-0.38,0.146-0.525,0l-6.539-6.539
		l-1.33-1.331c-0.146-0.146-0.146-0.38,0-0.525c0.145-0.145,0.379-0.145,0.524,0l0.436,0.436l7.435,7.436
		C35.741,41.604,35.741,41.839,35.597,41.984z M37.607,44.023c-0.275,0.276-0.723,0.276-0.999,0c-0.276-0.275-0.276-0.723,0-0.999
		c0.276-0.275,0.724-0.275,0.999,0C37.883,43.301,37.883,43.748,37.607,44.023z"/>
	<path fill="#3385AD" d="M21.014,10.71c-0.05-0.167-0.086-0.299-0.107-0.396c-0.088,0.344-0.343,1.195-0.762,2.553h1.536
		C21.286,11.596,21.063,10.877,21.014,10.71z"/>
</g>
<path fill="#424262" d="M3.785,0c-0.57,0-1.032,0.462-1.032,1.033v45.935c0,0.57,0.462,1.032,1.032,1.032h6.968V0H3.785z"/>
<path fill="#9FC54D" d="M30.262,17.099h-7.25c-0.144,0-0.26,0.101-0.26,0.228v1.48h-3.074c-0.102,0.089-0.102,0.234,0,0.323
	l6.776,3.017c0.102,0.089,0.265,0.089,0.366,0l6.775-3.017c0.102-0.089,0.102-0.234,0-0.323h-3.074v-1.48
	C30.521,17.2,30.405,17.099,30.262,17.099z"/>
<path fill="#6360A6" d="M44.73,13.419c0.285,0,0.517-0.231,0.517-0.516V5.591c0-0.285-0.231-0.516-0.517-0.516h-2.064v8.344H44.73z"
	/>
<path fill="#CCAB39" d="M44.73,21.807c0.285,0,0.517-0.231,0.517-0.517v-7.312c0-0.285-0.231-0.516-0.517-0.516h-2.064v8.344H44.73z
	"/>
<path fill="#6FB353" d="M44.73,30.193c0.285,0,0.517-0.23,0.517-0.516v-7.312c0-0.285-0.231-0.516-0.517-0.516h-2.064v8.344H44.73z"
	/>
<path fill="#DDDDAC" d="M28.162,34.024L28.162,34.024l0.895,0.896l-0.524,0.525l6.539,6.539c0.146,0.146,0.38,0.146,0.525,0
	c0.145-0.146,0.145-0.38,0-0.524L28.162,34.024z"/>
<path fill="#DDDDAC" d="M30.63,33.347l-0.896-0.896l-1.67-1.67c-0.061-0.061-0.125-0.118-0.19-0.172
	c0.059-0.313,0.093-0.634,0.093-0.963v-1.045c0-1.398-0.545-2.713-1.533-3.701s-2.302-1.533-3.7-1.533h-1.045
	c-0.841,0-1.675,0.204-2.417,0.592c-0.064,0.021-0.126,0.059-0.177,0.109c-0.18,0.18-0.18,0.469,0,0.648
	c0.001,0,0.003,0.003,0.004,0.004c0.025,0.025,0.053,0.047,0.083,0.065l3.894,2.411c0.006,0.005,0.012,0.01,0.018,0.016
	c0.237,0.238,0.229,1.168-0.41,2.227c-0.66,1.096-1.538,1.558-1.829,1.383c-0.061-0.037-2.152-1.336-3.699-2.297
	c-0.142-0.087-0.319-0.092-0.464-0.01c-0.146,0.08-0.236,0.233-0.236,0.4v0.729c0,1.398,0.545,2.713,1.533,3.701
	c0.989,0.988,2.303,1.533,3.701,1.533h1.045c0.651,0,1.273-0.125,1.849-0.344l2.43,2.429l8.287,8.287
	c0.998,0.998,2.621,0.998,3.618,0c0.998-0.997,0.998-2.62,0-3.618L30.63,33.347z M23.988,33.776
	c-0.397,0.121-0.818,0.187-1.255,0.187h-1.045c-1.153,0-2.238-0.448-3.053-1.265c-0.793-0.793-1.24-1.841-1.264-2.958
	c1.161,0.721,2.978,1.849,3.009,1.867c0.863,0.521,2.191-0.208,3.087-1.694c0.855-1.417,0.915-2.9,0.138-3.464
	c-0.01-0.007-0.019-0.014-0.029-0.02l-3.157-1.955c0.409-0.126,0.838-0.191,1.27-0.191h1.045c1.153,0,2.237,0.449,3.052,1.266
	c0.816,0.814,1.266,1.898,1.266,3.053v1.045c0,0.17-0.013,0.338-0.032,0.504c-0.037,0.313-0.107,0.613-0.208,0.9
	c-0.348,1.006-1.055,1.845-1.971,2.359C24.572,33.562,24.287,33.685,23.988,33.776z M38.27,44.604c-0.641,0.641-1.683,0.641-2.322,0
	l-8.287-8.287l-2.208-2.208c0.955-0.584,1.71-1.462,2.134-2.511l1.501,1.501h-0.001l9.184,9.183
	C38.91,42.922,38.91,43.964,38.27,44.604z"/>
<circle fill="#DDDDAC" cx="37.108" cy="43.524" r="0.706"/>
<path fill="#DDDDAC" d="M28.162,34.024l-0.436-0.436c-0.146-0.145-0.38-0.145-0.524,0c-0.146,0.146-0.146,0.38,0,0.525l1.33,1.331
	l0,0l-0.896-0.896L28.162,34.024z"/>
<rect x="27.976" y="34.101" transform="matrix(0.7078 -0.7064 0.7064 0.7078 -16.2543 30.1766)" fill="#DDDDAC" width="0.742" height="1.267"/>
</svg>
