<?xml version="1.0" encoding="utf-8"?>
<!-- Generator: Adobe Illustrator 16.0.0, SVG Export Plug-In . SVG Version: 6.00 Build 0)  -->
<!DOCTYPE svg PUBLIC "-//W3C//DTD SVG 1.1//EN" "http://www.w3.org/Graphics/SVG/1.1/DTD/svg11.dtd">
<svg version="1.1" id="Layer_1" xmlns="http://www.w3.org/2000/svg" xmlns:xlink="http://www.w3.org/1999/xlink" x="0px" y="0px"
	 width="48px" height="48px" viewBox="0 0 48 48" enable-background="new 0 0 48 48" xml:space="preserve">
<path fill="#29527A" d="M47.777,23.443L36.369,3.683c-0.198-0.343-0.567-0.557-0.965-0.557H12.588c-0.396,0-0.767,0.213-0.965,0.557
	L0.215,23.443c-0.198,0.343-0.198,0.77,0,1.113l11.408,19.76c0.198,0.344,0.568,0.557,0.965,0.557h22.816
	c0.397,0,0.767-0.213,0.965-0.557l11.408-19.76C47.976,24.213,47.976,23.787,47.777,23.443z"/>
<path fill="#99CC00" d="M47.386,23.388h-9.657l-6.333-10.968l4.825-8.357c0.169-0.294,0.069-0.669-0.225-0.839
	c-0.293-0.169-0.669-0.069-0.839,0.225l-4.822,8.353H17.713l-4.718-8.229c-0.169-0.294-0.544-0.396-0.838-0.227
	c-0.294,0.168-0.396,0.543-0.228,0.837l4.695,8.189l-6.361,11.016h-9.65C0.274,23.388,0,23.663,0,24.002
	c0,0.339,0.274,0.614,0.613,0.614h9.652l6.335,10.972l-4.823,8.354c-0.17,0.293-0.069,0.67,0.225,0.84
	c0.097,0.055,0.202,0.082,0.307,0.082c0.212,0,0.419-0.111,0.532-0.309l4.824-8.355h12.618l4.72,8.232
	c0.113,0.197,0.32,0.309,0.533,0.309c0.104,0,0.209-0.025,0.305-0.082c0.294-0.168,0.396-0.543,0.228-0.838l-4.698-8.196
	l6.355-11.008h9.659c0.339,0,0.614-0.275,0.614-0.614C48,23.663,47.725,23.388,47.386,23.388z"/>
<path fill="#339900" d="M27.588,15.691h-7.191c-0.208,0-0.377,0.169-0.377,0.376v15.869c0,0.207,0.169,0.374,0.377,0.374h7.191
	c0.208,0,0.375-0.167,0.375-0.374V16.067C27.963,15.86,27.796,15.691,27.588,15.691z"/>
<path fill="#FFFFFF" d="M27.588,14.752h-7.191c-0.726,0-1.315,0.59-1.315,1.315v15.869c0,0.724,0.59,1.317,1.315,1.317h7.191
	c0.726,0,1.315-0.594,1.315-1.317V16.067C28.903,15.342,28.313,14.752,27.588,14.752z M27.963,31.937
	c0,0.207-0.167,0.374-0.375,0.374h-7.191c-0.208,0-0.377-0.167-0.377-0.374V16.067c0-0.207,0.169-0.376,0.377-0.376h7.191
	c0.208,0,0.375,0.169,0.375,0.376V31.937z"/>
<path fill="#E6E6E7" d="M27.458,24.209h-6.932c-0.13,0-0.235,0.105-0.235,0.234v7.378c0,0.13,0.105,0.233,0.235,0.233h6.932
	c0.13,0,0.234-0.104,0.234-0.233v-7.378C27.692,24.314,27.588,24.209,27.458,24.209z"/>
<path fill="#BBBCBF" d="M27.458,23.738h-6.932c-0.39,0-0.705,0.316-0.705,0.705v7.378c0,0.39,0.315,0.705,0.705,0.705h6.932
	c0.39,0,0.705-0.315,0.705-0.705v-7.378C28.163,24.055,27.848,23.738,27.458,23.738z M27.692,31.821c0,0.13-0.104,0.233-0.234,0.233
	h-6.932c-0.13,0-0.235-0.104-0.235-0.233v-7.378c0-0.129,0.105-0.234,0.235-0.234h6.932c0.13,0,0.234,0.105,0.234,0.234V31.821z"/>
<g>
	<path fill="#FFFFFF" d="M23.992,22.567c-0.26,0-0.469-0.21-0.469-0.47v-4.25c0-0.26,0.209-0.471,0.469-0.471s0.47,0.211,0.47,0.471
		v4.25C24.462,22.357,24.252,22.567,23.992,22.567z"/>
</g>
</svg>
