<?xml version="1.0" encoding="utf-8"?>
<!-- Generator: Adobe Illustrator 16.0.0, SVG Export Plug-In . SVG Version: 6.00 Build 0)  -->
<!DOCTYPE svg PUBLIC "-//W3C//DTD SVG 1.1//EN" "http://www.w3.org/Graphics/SVG/1.1/DTD/svg11.dtd">
<svg version="1.1" id="Layer_1" xmlns="http://www.w3.org/2000/svg" xmlns:xlink="http://www.w3.org/1999/xlink" x="0px" y="0px"
     width="48px" height="48px" viewBox="0 0 48 48" enable-background="new 0 0 48 48" xml:space="preserve">
<g>
	<g>
		<path fill="#F3FAFF" d="M13.554,15.468h19.139c1.429,0,2.592,1.163,2.592,2.592v6.296h2.112c2.3,0,4.171-1.87,4.171-4.168
			c0-2.3-1.871-4.171-4.171-4.171c-0.103,0-0.202,0.017-0.301,0.031l-0.169,0.022c-0.34,0.042-0.668-0.09-0.885-0.348
			c-0.218-0.258-0.291-0.607-0.194-0.931c0.149-0.501,0.219-0.922,0.219-1.325c0-2.559-2.081-4.641-4.64-4.641
			c-0.748,0-1.486,0.195-2.193,0.579c-0.294,0.161-0.65,0.162-0.946,0.005c-0.296-0.157-0.493-0.452-0.526-0.785
			c-0.334-3.396-3.163-5.958-6.581-5.958c-3.647,0-6.614,2.967-6.614,6.614c0,0.483,0.056,0.964,0.17,1.47
			c0.072,0.322-0.019,0.659-0.243,0.901c-0.226,0.242-0.552,0.356-0.881,0.308c-0.361-0.054-0.659-0.08-0.939-0.08
			c-3.44,0-6.239,2.799-6.239,6.239c0,2.846,1.919,5.248,4.53,5.993V18.06C10.963,16.631,12.125,15.468,13.554,15.468z"/>
        <path fill="#99CCFF" d="M6.433,18.12c0-3.44,2.799-6.239,6.239-6.239c0.28,0,0.578,0.025,0.939,0.08
			c0.33,0.049,0.656-0.065,0.881-0.308c0.225-0.242,0.315-0.579,0.243-0.901c-0.114-0.506-0.17-0.987-0.17-1.47
			c0-3.647,2.967-6.614,6.614-6.614c3.418,0,6.247,2.561,6.581,5.958c0.033,0.333,0.23,0.628,0.526,0.785
			c0.296,0.157,0.652,0.156,0.946-0.005c0.707-0.384,1.445-0.579,2.193-0.579c2.559,0,4.64,2.082,4.64,4.641
			c0,0.403-0.069,0.824-0.219,1.325c-0.097,0.323-0.023,0.673,0.194,0.931c0.217,0.258,0.545,0.39,0.885,0.348l0.169-0.022
			c0.099-0.014,0.198-0.031,0.301-0.031c2.3,0,4.171,1.871,4.171,4.171c0,2.298-1.871,4.168-4.171,4.168h-2.112v1
			c0.959,0,1.697,0,2.112,0c2.857,0,5.171-2.313,5.171-5.168c0-2.856-2.313-5.171-5.171-5.171c-0.202,0-0.395,0.037-0.591,0.061
			c0.153-0.514,0.261-1.048,0.261-1.611c0-3.116-2.524-5.641-5.64-5.641c-0.971,0-1.873,0.267-2.671,0.701
			c-0.379-3.851-3.625-6.859-7.576-6.859c-4.205,0-7.614,3.41-7.614,7.614c0,0.583,0.071,1.146,0.194,1.69
			c-0.356-0.054-0.718-0.091-1.088-0.091c-3.998,0-7.239,3.241-7.239,7.239c0,3.407,2.358,6.257,5.53,7.025v-1.032
			C8.352,23.367,6.433,20.966,6.433,18.12z"/>
	</g>
    <g>
		<path fill="#99CCFF" d="M5.433,18.12c0-3.998,3.241-7.239,7.239-7.239c0.37,0,0.731,0.037,1.088,0.091
			c-0.123-0.545-0.194-1.108-0.194-1.69c0-4.205,3.409-7.614,7.614-7.614c3.951,0,7.197,3.009,7.576,6.859
			c0.798-0.434,1.7-0.701,2.671-0.701c3.115,0,5.64,2.525,5.64,5.641c0,0.563-0.107,1.097-0.261,1.611
			c0.196-0.024,0.389-0.061,0.591-0.061c2.857,0,5.171,2.315,5.171,5.171c0,2.855-2.313,5.168-5.171,5.168c-0.415,0-1.153,0-2.112,0
			v1h2.112c3.402,0,6.171-2.767,6.171-6.168c0-3.187-2.428-5.817-5.531-6.138c0.021-0.196,0.03-0.39,0.03-0.583
			c0-3.662-2.979-6.641-6.64-6.641c-0.646,0-1.284,0.098-1.905,0.293c-0.961-3.757-4.342-6.452-8.342-6.452
			c-4.75,0-8.614,3.864-8.614,8.614c0,0.198,0.007,0.398,0.022,0.6c-4.505,0.045-8.155,3.724-8.155,8.239
			c0,3.956,2.805,7.267,6.53,8.056v-1.031C7.791,24.376,5.433,21.527,5.433,18.12z"/>
        <g>
			<g>
				<path fill="#FFFFFF" d="M25.104,39.275h-5.986c-0.414,0-0.75-0.336-0.75-0.75s0.336-0.75,0.75-0.75h6.494
					c0.419-0.908,1.013-1.715,1.74-2.381h-8.234c-0.414,0-0.75-0.336-0.75-0.75s0.336-0.75,0.75-0.75h10.51
					c0.042,0,0.078,0.018,0.118,0.023c0.82-0.311,1.704-0.488,2.632-0.488c0.18,0,0.355,0.014,0.532,0.027V18.185
					c0-0.051-0.04-0.092-0.092-0.092H13.679c-0.05,0-0.091,0.041-0.091,0.092v24.016c0,0.051,0.041,0.092,0.091,0.092h11.385
					c-0.089-0.459-0.139-0.93-0.139-1.412C24.925,40.328,24.989,39.793,25.104,39.275z M19.117,22.25h10.51
					c0.414,0,0.75,0.336,0.75,0.75s-0.336,0.75-0.75,0.75h-10.51c-0.414,0-0.75-0.336-0.75-0.75S18.703,22.25,19.117,22.25z
					 M19.117,26.133h10.51c0.414,0,0.75,0.336,0.75,0.75s-0.336,0.75-0.75,0.75h-10.51c-0.414,0-0.75-0.336-0.75-0.75
					S18.703,26.133,19.117,26.133z M19.117,30.014h10.51c0.414,0,0.75,0.336,0.75,0.75s-0.336,0.75-0.75,0.75h-10.51
					c-0.414,0-0.75-0.336-0.75-0.75S18.703,30.014,19.117,30.014z M16.514,39.24c-0.414,0-0.78-0.336-0.78-0.75
					s0.307-0.75,0.721-0.75h0.06c0.414,0,0.75,0.336,0.75,0.75S16.928,39.24,16.514,39.24z M16.514,35.369
					c-0.414,0-0.78-0.336-0.78-0.75s0.307-0.75,0.721-0.75h0.06c0.414,0,0.75,0.336,0.75,0.75S16.928,35.369,16.514,35.369z
					 M16.514,31.496c-0.414,0-0.78-0.336-0.78-0.75s0.307-0.75,0.721-0.75h0.06c0.414,0,0.75,0.336,0.75,0.75
					S16.928,31.496,16.514,31.496z M16.514,27.623c-0.414,0-0.78-0.336-0.78-0.75s0.307-0.75,0.721-0.75h0.06
					c0.414,0,0.75,0.336,0.75,0.75S16.928,27.623,16.514,27.623z M16.514,23.75c-0.414,0-0.78-0.336-0.78-0.75
					s0.307-0.75,0.721-0.75h0.06c0.414,0,0.75,0.336,0.75,0.75S16.928,23.75,16.514,23.75z"/>
                <path fill="#B0BACC" d="M32.817,16.593H13.679c-0.877,0-1.591,0.714-1.591,1.592v24.016c0,0.877,0.714,1.592,1.591,1.592h11.84
					c-0.104-0.244-0.193-0.494-0.271-0.75c-0.074-0.246-0.135-0.496-0.184-0.75H13.679c-0.05,0-0.091-0.041-0.091-0.092V18.185
					c0-0.051,0.041-0.092,0.091-0.092h19.139c0.052,0,0.092,0.041,0.092,0.092v15.272c0.254,0.018,0.504,0.047,0.75,0.09
					c0.255,0.045,0.505,0.102,0.75,0.172V18.185C34.409,17.307,33.695,16.593,32.817,16.593z"/>
                <path fill="#99CCFF" d="M17.264,23c0,0.414-0.336,0.75-0.75,0.75s-0.78-0.336-0.78-0.75s0.307-0.75,0.721-0.75h0.06
					C16.928,22.25,17.264,22.586,17.264,23z M16.514,33.869h-0.06c-0.414,0-0.721,0.336-0.721,0.75s0.366,0.75,0.78,0.75
					s0.75-0.336,0.75-0.75S16.928,33.869,16.514,33.869z M16.514,26.123h-0.06c-0.414,0-0.721,0.336-0.721,0.75
					s0.366,0.75,0.78,0.75s0.75-0.336,0.75-0.75S16.928,26.123,16.514,26.123z M16.514,37.74h-0.06c-0.414,0-0.721,0.336-0.721,0.75
					s0.366,0.75,0.78,0.75s0.75-0.336,0.75-0.75S16.928,37.74,16.514,37.74z M16.514,29.996h-0.06c-0.414,0-0.721,0.336-0.721,0.75
					s0.366,0.75,0.78,0.75s0.75-0.336,0.75-0.75S16.928,29.996,16.514,29.996z M19.117,23.75h10.51c0.414,0,0.75-0.336,0.75-0.75
					s-0.336-0.75-0.75-0.75h-10.51c-0.414,0-0.75,0.336-0.75,0.75S18.703,23.75,19.117,23.75z M19.117,27.633h10.51
					c0.414,0,0.75-0.336,0.75-0.75s-0.336-0.75-0.75-0.75h-10.51c-0.414,0-0.75,0.336-0.75,0.75S18.703,27.633,19.117,27.633z
					 M19.117,31.514h10.51c0.414,0,0.75-0.336,0.75-0.75s-0.336-0.75-0.75-0.75h-10.51c-0.414,0-0.75,0.336-0.75,0.75
					S18.703,31.514,19.117,31.514z M19.117,33.895c-0.414,0-0.75,0.336-0.75,0.75s0.336,0.75,0.75,0.75h8.234
					c0.692-0.635,1.501-1.139,2.394-1.477c-0.04-0.006-0.076-0.023-0.118-0.023H19.117z M18.367,38.525
					c0,0.414,0.336,0.75,0.75,0.75h5.986c0.116-0.523,0.289-1.025,0.508-1.5h-6.494C18.703,37.775,18.367,38.111,18.367,38.525z"/>
			</g>
            <g>
				<g>
					<path fill="#3399FF" d="M32.377,34.43c-3.563,0-6.452,2.889-6.452,6.451c0,3.564,2.889,6.453,6.452,6.453
						s6.452-2.889,6.452-6.453C38.829,37.318,35.94,34.43,32.377,34.43z M30.37,44.756h-1.321v-6.768h1.321V44.756z M34.57,42.209
						h-1.303v2.547h-1.321v-6.768h2.624c1.397,0,2.233,0.959,2.233,2.109S35.968,42.209,34.57,42.209z"/>
				</g>
                <g>
					<path fill="#3399FF" d="M32.768,41.52v-2.854h1.735c0.871,0,1.479,0.589,1.479,1.432c0,0.837-0.608,1.422-1.479,1.422H32.768z"
                    />
                    <path fill="#FFFFFF" d="M34.503,39.166c0.6,0,0.979,0.381,0.979,0.932c0,0.553-0.38,0.922-0.979,0.922h-1.235v-1.854H34.503
						 M34.503,38.166h-1.235h-1v1v1.854v1h1h1.235c1.147,0,1.979-0.809,1.979-1.922C36.482,38.979,35.65,38.166,34.503,38.166
						L34.503,38.166z"/>
				</g>
                <rect x="29.049" y="37.988" fill="#FFFFFF" width="1.321" height="6.768"/>
                <path fill="#FFFFFF" d="M34.57,37.988h-2.624v6.768h1.321v-2.547h1.303c1.397,0,2.233-0.961,2.233-2.111
					S35.968,37.988,34.57,37.988z M34.503,41.02h-1.235v-1.854h1.235c0.6,0,0.979,0.381,0.979,0.932
					C35.482,40.65,35.103,41.02,34.503,41.02z"/>
			</g>
		</g>
	</g>
</g>
    <path fill="#F3FAFF" stroke="#99CCFF" stroke-width="2" stroke-linecap="round" stroke-linejoin="round" stroke-miterlimit="10" d="
	M-21.438,14.808c-0.202,0-0.395,0.037-0.591,0.061c0.153-0.514,0.261-1.048,0.261-1.611c0-3.116-2.524-5.641-5.64-5.641
	c-0.971,0-1.873,0.267-2.671,0.701c-0.379-3.851-3.625-6.859-7.576-6.859c-4.205,0-7.614,3.41-7.614,7.614
	c0,0.583,0.071,1.146,0.194,1.69c-0.356-0.054-0.718-0.091-1.088-0.091c-3.998,0-7.239,3.241-7.239,7.239
	c0,3.997,3.241,7.236,7.239,7.236c3.997,0,21.868,0,24.725,0c2.857,0,5.171-2.313,5.171-5.168
	C-16.268,17.123-18.581,14.808-21.438,14.808z"/>
    <g>
	<path fill="#FFFFFF" d="M-26.583,48.5c-3.081,0-5.864-1.771-7.182-4.541h-11.517c-1.153,0-2.091-0.938-2.091-2.092V17.852
		c0-1.153,0.938-2.092,2.091-2.092h19.139c1.153,0,2.092,0.938,2.092,2.092v15.165c3.21,1.082,5.42,4.125,5.42,7.53
		C-18.631,44.933-22.198,48.5-26.583,48.5z"/>
        <path fill="#FFFFFF" d="M-26.143,16.26c0.878,0,1.592,0.714,1.592,1.592v15.533c3.123,0.888,5.42,3.759,5.42,7.162
		c0,4.109-3.343,7.453-7.452,7.453c-3.076,0-5.723-1.874-6.858-4.541h-11.84c-0.877,0-1.591-0.714-1.591-1.592V17.852
		c0-0.878,0.714-1.592,1.591-1.592H-26.143 M-26.143,15.26h-19.139c-1.429,0-2.591,1.163-2.591,2.592v24.016
		c0,1.429,1.162,2.592,2.591,2.592h11.208c1.451,2.779,4.322,4.541,7.49,4.541c4.66,0,8.452-3.792,8.452-8.453
		c0-3.498-2.193-6.637-5.42-7.881V17.852C-23.551,16.422-24.714,15.26-26.143,15.26L-26.143,15.26z"/>
</g>
    <g>
	<path fill="#FFFFFF" stroke="#B0BACC" stroke-width="1.5" stroke-miterlimit="10" d="M-25.176,41.992
		c0,0.465-0.375,0.842-0.842,0.842h-19.139c-0.465,0-0.841-0.377-0.841-0.842V17.977c0-0.465,0.376-0.842,0.841-0.842h19.139
		c0.467,0,0.842,0.377,0.842,0.842V41.992z"/>
        <g>
		<g>

				<line fill="none" stroke="#99CCFF" stroke-width="1.5" stroke-linecap="round" stroke-linejoin="round" stroke-miterlimit="10" x1="-42.381" y1="22.792" x2="-42.321" y2="22.792"/>

            <line fill="none" stroke="#99CCFF" stroke-width="1.5" stroke-linecap="round" stroke-linejoin="round" stroke-miterlimit="10" x1="-42.381" y1="34.41" x2="-42.321" y2="34.41"/>

            <line fill="none" stroke="#99CCFF" stroke-width="1.5" stroke-linecap="round" stroke-linejoin="round" stroke-miterlimit="10" x1="-42.381" y1="26.664" x2="-42.321" y2="26.664"/>

            <line fill="none" stroke="#99CCFF" stroke-width="1.5" stroke-linecap="round" stroke-linejoin="round" stroke-miterlimit="10" x1="-42.381" y1="38.281" x2="-42.321" y2="38.281"/>

            <line fill="none" stroke="#99CCFF" stroke-width="1.5" stroke-linecap="round" stroke-linejoin="round" stroke-miterlimit="10" x1="-42.381" y1="30.537" x2="-42.321" y2="30.537"/>
		</g>
            <g>
			<g>

					<line fill="none" stroke="#99CCFF" stroke-width="1.5" stroke-linecap="round" stroke-linejoin="round" stroke-miterlimit="10" x1="-39.718" y1="22.792" x2="-29.208" y2="22.792"/>
			</g>
                <g>

					<line fill="none" stroke="#99CCFF" stroke-width="1.5" stroke-linecap="round" stroke-linejoin="round" stroke-miterlimit="10" x1="-39.718" y1="26.674" x2="-29.208" y2="26.674"/>
			</g>
                <g>

					<line fill="none" stroke="#99CCFF" stroke-width="1.5" stroke-linecap="round" stroke-linejoin="round" stroke-miterlimit="10" x1="-39.718" y1="30.555" x2="-29.208" y2="30.555"/>
			</g>
                <g>

					<line fill="none" stroke="#99CCFF" stroke-width="1.5" stroke-linecap="round" stroke-linejoin="round" stroke-miterlimit="10" x1="-39.718" y1="34.436" x2="-29.208" y2="34.436"/>
			</g>
                <g>

					<line fill="none" stroke="#99CCFF" stroke-width="1.5" stroke-linecap="round" stroke-linejoin="round" stroke-miterlimit="10" x1="-39.718" y1="38.316" x2="-29.208" y2="38.316"/>
			</g>
		</g>
	</g>
        <g>
		<g>
			<path fill="#3399FF" d="M-26.458,47.625c-3.833,0-6.952-3.119-6.952-6.953c0-3.833,3.119-6.951,6.952-6.951
				s6.952,3.118,6.952,6.951C-19.506,44.506-22.625,47.625-26.458,47.625z"/>
            <path fill="#FFFFFF" d="M-26.458,34.221c3.563,0,6.452,2.889,6.452,6.451c0,3.564-2.889,6.453-6.452,6.453
				s-6.452-2.889-6.452-6.453C-32.91,37.109-30.021,34.221-26.458,34.221 M-26.458,33.221c-4.109,0-7.452,3.343-7.452,7.451
				c0,4.109,3.343,7.453,7.452,7.453s7.452-3.344,7.452-7.453C-19.006,36.563-22.349,33.221-26.458,33.221L-26.458,33.221z"/>
		</g>
            <rect x="-30.575" y="37.785" fill="none" width="8.867" height="7.043"/>
            <text transform="matrix(1 0 0 1 -30.5752 44.5479)" fill="#FFFFFF" font-family="'DINPro-Bold'" font-size="9.5">IP</text>
	</g>
</g>
</svg>