<?xml version="1.0" encoding="utf-8"?>
<!-- Generator: Adobe Illustrator 16.0.0, SVG Export Plug-In . SVG Version: 6.00 Build 0)  -->
<!DOCTYPE svg PUBLIC "-//W3C//DTD SVG 1.1//EN" "http://www.w3.org/Graphics/SVG/1.1/DTD/svg11.dtd">
<svg version="1.1" id="Layer_1" xmlns="http://www.w3.org/2000/svg" xmlns:xlink="http://www.w3.org/1999/xlink" x="0px" y="0px"
	 width="24px" height="24px" viewBox="4 4 24 24" enable-background="new 4 4 24 24" xml:space="preserve">
<path fill="#75B575" d="M25.31,4.03H6.69c-1.47,0-2.66,1.19-2.66,2.66V25.31c0,1.47,1.19,2.66,2.66,2.66H25.31
	c1.47,0,2.66-1.19,2.66-2.66V6.69C27.97,5.221,26.779,4.03,25.31,4.03z M9.389,13.631c1.043-2.728,3.705-4.563,6.62-4.563
	c1.823,0,3.577,0.719,4.889,1.975l1.342-0.874c0.092-0.06,0.21-0.059,0.299,0.003c0.09,0.061,0.135,0.17,0.112,0.278l-0.767,3.622
	c-0.031,0.146-0.174,0.238-0.318,0.208l-3.621-0.766c-0.107-0.022-0.19-0.107-0.209-0.214c-0.004-0.018-0.005-0.033-0.005-0.05
	c0-0.09,0.044-0.175,0.122-0.226l1.16-0.755c-0.857-0.664-1.91-1.046-3.004-1.046c-2.029,0-3.88,1.277-4.608,3.178
	c-0.164,0.429-0.573,0.692-1.006,0.692c-0.128,0-0.258-0.022-0.385-0.071C9.455,14.81,9.176,14.187,9.389,13.631z M22.627,18.686
	c-1.043,2.73-3.703,4.563-6.618,4.563c-1.824,0-3.577-0.719-4.89-1.975L9.835,22.11c-0.049,0.059-0.123,0.095-0.206,0.095
	c-0.15,0-0.253-0.145-0.269-0.274c0-0.003,0-0.006,0-0.009c0-0.02,0.002-0.035,0.006-0.055l0.767-3.621
	c0.03-0.146,0.173-0.238,0.319-0.207l3.62,0.765c0.107,0.022,0.19,0.105,0.21,0.213c0.02,0.108-0.026,0.216-0.118,0.276
	l-1.161,0.755c0.858,0.664,1.911,1.048,3.006,1.048c2.029,0,3.877-1.277,4.606-3.18c0.213-0.557,0.834-0.83,1.393-0.621
	C22.563,17.508,22.84,18.131,22.627,18.686z"/>
</svg>
