<?xml version="1.0" encoding="utf-8"?>
<!-- Generator: Adobe Illustrator 16.0.0, SVG Export Plug-In . SVG Version: 6.00 Build 0)  -->
<!DOCTYPE svg PUBLIC "-//W3C//DTD SVG 1.1//EN" "http://www.w3.org/Graphics/SVG/1.1/DTD/svg11.dtd">
<svg version="1.1" id="Layer_1" xmlns="http://www.w3.org/2000/svg" xmlns:xlink="http://www.w3.org/1999/xlink" x="0px" y="0px"
	 width="24px" height="24px" viewBox="4 4 24 24" enable-background="new 4 4 24 24" xml:space="preserve">
<path fill="#66CC66" d="M25.31,4.03H6.69c-1.47,0-2.66,1.19-2.66,2.66V25.31c0,1.47,1.19,2.66,2.66,2.66H25.31
	c1.47,0,2.66-1.19,2.66-2.66V6.69C27.97,5.221,26.779,4.03,25.31,4.03z M9.389,13.633c1.043-2.729,3.704-4.563,6.62-4.563
	c1.822,0,3.577,0.719,4.889,1.975l1.342-0.874c0.092-0.061,0.21-0.059,0.299,0.003c0.09,0.061,0.135,0.17,0.112,0.278l-0.767,3.622
	c-0.031,0.146-0.174,0.238-0.318,0.208l-3.621-0.765c-0.107-0.022-0.19-0.107-0.209-0.214c-0.004-0.018-0.005-0.033-0.005-0.05
	c0-0.09,0.044-0.176,0.122-0.226l1.16-0.755c-0.857-0.664-1.91-1.047-3.004-1.047c-2.029,0-3.881,1.277-4.607,3.178
	c-0.164,0.429-0.573,0.693-1.006,0.693c-0.128,0-0.258-0.023-0.385-0.071C9.455,14.812,9.177,14.189,9.389,13.633z M22.628,18.688
	c-1.043,2.729-3.702,4.563-6.619,4.563c-1.824,0-3.579-0.719-4.891-1.975l-1.284,0.835c-0.049,0.06-0.123,0.097-0.206,0.097
	c-0.15,0-0.253-0.146-0.269-0.276c0-0.004,0-0.005,0-0.007c0-0.02,0.002-0.037,0.006-0.056l0.767-3.621
	c0.03-0.146,0.173-0.24,0.319-0.208l3.62,0.765c0.107,0.023,0.19,0.106,0.21,0.215c0.02,0.107-0.026,0.216-0.118,0.275l-1.161,0.755
	c0.857,0.664,1.91,1.047,3.006,1.047c2.029,0,3.879-1.277,4.605-3.178c0.212-0.556,0.833-0.833,1.392-0.622
	C22.562,17.51,22.84,18.132,22.628,18.688z"/>
</svg>
