<?xml version="1.0" encoding="utf-8"?>
<!-- Generator: Adobe Illustrator 16.0.0, SVG Export Plug-In . SVG Version: 6.00 Build 0)  -->
<!DOCTYPE svg PUBLIC "-//W3C//DTD SVG 1.1//EN" "http://www.w3.org/Graphics/SVG/1.1/DTD/svg11.dtd">
<svg version="1.1" id="Layer_1" xmlns="http://www.w3.org/2000/svg" xmlns:xlink="http://www.w3.org/1999/xlink" x="0px" y="0px"
	 width="48px" height="48px" viewBox="0 0 48 48" enable-background="new 0 0 48 48" xml:space="preserve">
<circle fill="#66CC66" cx="24" cy="24" r="24"/>
<path fill="#FFFFFF" d="M39.642,19.237l-3.282,1.259l-0.006,0.007c0.314,1.113,0.486,2.285,0.486,3.497
	c0,7.08-5.76,12.839-12.84,12.839c-7.081,0-12.84-5.76-12.84-12.839c0-7.081,5.759-12.84,12.84-12.84
	c1.939,0,3.777,0.434,5.428,1.207l0.046-0.046l-1.315,1.887c-0.016,0.021-0.019,0.05-0.008,0.075
	c0.012,0.024,0.035,0.041,0.063,0.042l7.707,0.66c0.025,0.002,0.052-0.01,0.066-0.032c0.016-0.022,0.019-0.05,0.006-0.075
	l-3.281-7.003c-0.011-0.024-0.035-0.041-0.062-0.043c-0.026-0.002-0.052,0.009-0.067,0.032L31.468,9.46
	C29.228,8.305,26.689,7.65,24,7.65C14.984,7.65,7.649,14.985,7.649,24c0,9.015,7.335,16.349,16.351,16.349S40.35,33.016,40.35,24
	C40.35,22.344,40.103,20.745,39.642,19.237z"/>
<path fill="#FFCC00" d="M28.698,16.825l-0.055-0.114c-0.08-0.168-0.247-0.278-0.433-0.285l-0.135-0.005c-0.007,0-0.013,0-0.019,0
	c-0.233,0-0.403,0.109-0.526,0.204l-6.188,4.749c-0.42,0.325-0.514,0.921-0.214,1.359l2.02,2.902l-3.705,4.701
	c-0.282,0.36-0.23,0.661-0.137,0.85l0.054,0.11c0.082,0.167,0.251,0.275,0.438,0.279l0.131,0.003h0c0.282,0,0.466-0.146,0.544-0.21
	l6.182-4.745c0.316-0.239,0.419-0.674,0.278-1.19c-0.017-0.062-0.055-0.152-0.093-0.204l-1.992-2.864l3.705-4.703
	C28.854,17.309,28.774,16.985,28.698,16.825z"/>
</svg>
