<?xml version="1.0" encoding="utf-8"?>
<!-- Generator: Adobe Illustrator 16.0.0, SVG Export Plug-In . SVG Version: 6.00 Build 0)  -->
<!DOCTYPE svg PUBLIC "-//W3C//DTD SVG 1.1//EN" "http://www.w3.org/Graphics/SVG/1.1/DTD/svg11.dtd">
<svg version="1.1" id="Layer_1" xmlns="http://www.w3.org/2000/svg" xmlns:xlink="http://www.w3.org/1999/xlink" x="0px" y="0px"
	 width="48px" height="48px" viewBox="0 0 48 48" enable-background="new 0 0 48 48" xml:space="preserve">
<g>
	<path fill="#8585D6" d="M45.902,26.722l-3.1-1.785c0.02-0.309,0.029-0.621,0.029-0.936c0-0.316-0.01-0.626-0.029-0.938L45.9,21.28
		c0.392-0.224,0.602-0.676,0.522-1.121c-0.365-2.162-1.044-4.257-2.017-6.224c-0.182-0.375-0.555-0.607-0.974-0.607
		c-0.018,0-0.096,0.005-0.113,0.007l-3.572,0.375c-0.337-0.519-0.701-1.024-1.089-1.506l1.466-3.287
		c0.185-0.421,0.093-0.898-0.235-1.217c-1.566-1.525-3.346-2.821-5.302-3.859c-0.4-0.195-0.896-0.128-1.214,0.166l-2.667,2.396
		c-0.564-0.211-1.163-0.402-1.785-0.568l-0.744-3.5c-0.094-0.445-0.444-0.778-0.898-0.849c-2.38-0.349-4.182-0.349-6.557,0
		c-0.451,0.07-0.804,0.403-0.9,0.848l-0.742,3.501c-0.622,0.167-1.22,0.356-1.784,0.567l-2.66-2.396
		c-0.33-0.297-0.798-0.373-1.229-0.159c-1.932,1.02-3.713,2.316-5.301,3.857C7.783,8.029,7.695,8.505,7.88,8.92l1.466,3.284
		c-0.386,0.48-0.751,0.985-1.092,1.507l-3.515-0.367c-0.036-0.008-0.133-0.016-0.169-0.016c-0.409,0-0.78,0.229-0.972,0.604
		C2.623,15.905,1.942,18,1.574,20.167c-0.069,0.447,0.146,0.895,0.529,1.112l3.099,1.785c-0.019,0.311-0.03,0.622-0.03,0.937
		c0,0.315,0.011,0.626,0.029,0.935l-3.104,1.788c-0.387,0.229-0.592,0.665-0.523,1.12C1.942,30,2.623,32.096,3.603,34.084
		c0.19,0.363,0.561,0.589,0.967,0.589c0.018,0,0.096-0.001,0.114-0.003l3.571-0.379c0.337,0.518,0.703,1.023,1.092,1.508
		l-1.468,3.285c-0.184,0.418-0.094,0.894,0.231,1.214c1.563,1.525,3.345,2.821,5.283,3.844c0.388,0.217,0.906,0.158,1.243-0.145
		l2.658-2.4c0.554,0.209,1.153,0.398,1.786,0.565l0.742,3.51c0.098,0.448,0.466,0.786,0.903,0.839
		c1.201,0.18,2.242,0.264,3.276,0.264c1.038,0,2.078-0.084,3.261-0.262c0.451-0.054,0.818-0.393,0.915-0.844l0.744-3.506
		c0.629-0.166,1.227-0.355,1.786-0.566L33.37,44c0.335,0.297,0.824,0.362,1.229,0.148c1.949-1.03,3.729-2.325,5.286-3.847
		c0.329-0.314,0.423-0.792,0.237-1.22l-1.465-3.283c0.39-0.487,0.755-0.992,1.089-1.508l3.568,0.379
		c0.018,0.002,0.097,0.003,0.114,0.003c0.414,0,0.786-0.228,0.974-0.599c0.975-1.97,1.654-4.066,2.019-6.227
		C46.501,27.399,46.3,26.96,45.902,26.722z M37.691,35.402c-0.122,0.146-0.149,0.35-0.072,0.523l1.571,3.657
		c-1.492,1.458-3.193,2.696-5.153,3.672l-2.89-2.607c-0.142-0.128-0.344-0.164-0.521-0.093c-0.685,0.274-1.441,0.516-2.25,0.715
		c-0.186,0.046-0.329,0.194-0.369,0.382l-0.879,3.871c-2.292,0.344-3.878,0.405-6.328-0.061l-0.806-3.811
		c-0.04-0.188-0.183-0.336-0.369-0.382c-0.816-0.202-1.573-0.442-2.25-0.715c-0.061-0.024-0.124-0.036-0.187-0.036
		c-0.122,0-0.242,0.044-0.335,0.129l-2.98,2.616c-1.866-0.984-3.57-2.223-5.08-3.773l1.592-3.564
		c0.078-0.174,0.05-0.377-0.072-0.523c-0.501-0.604-0.966-1.246-1.381-1.907c-0.102-0.162-0.292-0.256-0.476-0.231l-3.826,0.409
		l-0.137-0.041c-0.932-1.892-1.583-3.896-1.932-5.946c-0.006-0.043,0.01-0.079,0.04-0.097l3.37-1.941
		c0.167-0.097,0.264-0.28,0.249-0.472c-0.03-0.388-0.048-0.778-0.048-1.174s0.019-0.784,0.048-1.176
		c0.015-0.192-0.082-0.375-0.249-0.471l-3.411-2.027c0.351-2.063,1.001-4.066,2.018-5.997l3.878,0.408
		c0.191,0.019,0.374-0.07,0.476-0.231c0.419-0.667,0.884-1.308,1.38-1.905c0.122-0.146,0.15-0.35,0.072-0.524L8.793,8.512
		C8.778,8.479,8.786,8.439,8.807,8.418c1.514-1.469,3.218-2.709,5.159-3.667l2.887,2.601c0.141,0.127,0.343,0.164,0.518,0.094
		c0.697-0.274,1.456-0.516,2.256-0.718c0.185-0.047,0.327-0.195,0.367-0.381l0.806-3.802c0.009-0.043,0.045-0.063,0.072-0.068
		c2.271-0.333,3.915-0.401,6.327,0.067l0.809,3.804c0.04,0.187,0.183,0.334,0.367,0.381c0.799,0.2,1.557,0.442,2.255,0.718
		c0.177,0.069,0.378,0.034,0.518-0.093l2.986-2.62c1.857,0.985,3.56,2.225,5.076,3.78l-1.59,3.566
		c-0.077,0.174-0.049,0.377,0.072,0.523c0.5,0.601,0.963,1.241,1.376,1.903c0.101,0.162,0.285,0.252,0.477,0.232l3.964-0.362
		c0.932,1.883,1.58,3.885,1.896,6.038l-3.371,1.941c-0.168,0.096-0.265,0.281-0.249,0.474c0.032,0.391,0.049,0.778,0.049,1.173
		c0,0.395-0.017,0.785-0.049,1.171c-0.017,0.192,0.081,0.378,0.248,0.475l3.405,2.03c-0.349,2.067-0.998,4.07-2.016,5.998
		l-3.877-0.412c-0.186-0.02-0.375,0.07-0.478,0.232C38.658,34.152,38.195,34.794,37.691,35.402z"/>
	<path fill="#DBEEFC" d="M37.416,19.308c-0.551,0.154-0.874,0.725-0.721,1.276c0.722,2.587,0.633,5.29-0.252,7.819
		c-2.385,6.809-9.862,10.409-16.672,8.024c-6.81-2.384-10.409-9.863-8.025-16.672c2.384-6.81,9.863-10.409,16.673-8.025
		c0.812,0.284,1.588,0.649,2.322,1.08l-1.373,1.501l6.055,1.337l-1.869-5.912l-1.389,1.518c-0.959-0.604-1.984-1.104-3.062-1.481
		c-7.889-2.762-16.553,1.407-19.315,9.296c-2.762,7.889,1.408,16.551,9.297,19.314c7.888,2.762,16.553-1.407,19.314-9.296
		c1.026-2.931,1.127-6.063,0.292-9.06C38.54,19.477,37.967,19.154,37.416,19.308z"/>
	<path fill="#DBEEFC" d="M13.405,19.52v8.973h1.467v-3.357h0.933c1.133,0,2.007-0.25,2.621-0.749c0.613-0.499,0.92-1.217,0.92-2.153
		c0-0.893-0.278-1.567-0.838-2.025c-0.558-0.459-1.397-0.688-2.52-0.688H13.405z M17.836,22.28c0,0.557-0.176,0.966-0.528,1.228
		c-0.351,0.263-0.903,0.393-1.656,0.393h-0.779v-3.153h1.019c0.667,0,1.158,0.126,1.473,0.38
		C17.679,21.381,17.836,21.766,17.836,22.28z"/>
	<path fill="#DBEEFC" d="M29.268,19.52v8.973h1.467v-3.357h0.932c1.135,0,2.008-0.25,2.621-0.749s0.92-1.217,0.92-2.153
		c0-0.893-0.279-1.567-0.838-2.025c-0.557-0.459-1.396-0.688-2.52-0.688H29.268z M33.699,22.28c0,0.557-0.178,0.966-0.527,1.228
		c-0.354,0.263-0.906,0.393-1.658,0.393h-0.779v-3.153h1.02c0.666,0,1.156,0.126,1.471,0.38
		C33.541,21.381,33.699,21.766,33.699,22.28z"/>
	<path fill="#5252A3" d="M15.891,20.747c0.667,0,1.158,0.126,1.473,0.38c0.315,0.254,0.473,0.639,0.473,1.153
		c0,0.557-0.176,0.966-0.528,1.228c-0.351,0.263-0.903,0.393-1.656,0.393h-0.779v-3.153H15.891z M30.734,20.747V23.9h0.779
		c0.752,0,1.305-0.13,1.658-0.393c0.35-0.262,0.527-0.671,0.527-1.228c0-0.515-0.158-0.899-0.475-1.153
		c-0.314-0.254-0.805-0.38-1.471-0.38H30.734z M45.437,27.678c-0.349,2.067-0.998,4.07-2.016,5.998l-3.877-0.412
		c-0.186-0.02-0.375,0.07-0.478,0.232c-0.408,0.656-0.871,1.298-1.375,1.906c-0.122,0.146-0.149,0.35-0.072,0.523l1.571,3.657
		c-1.492,1.458-3.193,2.696-5.153,3.672l-2.89-2.607c-0.142-0.128-0.344-0.164-0.521-0.093c-0.685,0.274-1.441,0.516-2.25,0.715
		c-0.186,0.046-0.329,0.194-0.369,0.382l-0.879,3.871c-2.292,0.344-3.878,0.405-6.328-0.061l-0.806-3.811
		c-0.04-0.188-0.183-0.336-0.369-0.382c-0.816-0.202-1.573-0.442-2.25-0.715c-0.061-0.024-0.124-0.036-0.187-0.036
		c-0.122,0-0.242,0.044-0.335,0.129l-2.98,2.616c-1.866-0.984-3.57-2.223-5.08-3.773l1.592-3.564
		c0.078-0.174,0.05-0.377-0.072-0.523c-0.501-0.604-0.966-1.246-1.381-1.907c-0.102-0.162-0.292-0.256-0.476-0.231l-3.826,0.409
		l-0.137-0.041c-0.932-1.892-1.583-3.896-1.932-5.946c-0.006-0.043,0.01-0.079,0.04-0.097l3.37-1.941
		c0.167-0.097,0.264-0.28,0.249-0.472c-0.03-0.388-0.048-0.778-0.048-1.174s0.019-0.784,0.048-1.176
		c0.015-0.192-0.082-0.375-0.249-0.471l-3.411-2.027c0.351-2.063,1.001-4.066,2.018-5.997l3.878,0.408
		c0.191,0.019,0.374-0.07,0.476-0.231c0.419-0.667,0.884-1.308,1.38-1.905c0.122-0.146,0.15-0.35,0.072-0.524L8.793,8.512
		C8.778,8.479,8.786,8.439,8.807,8.418c1.514-1.469,3.218-2.709,5.159-3.667l2.887,2.601c0.141,0.127,0.343,0.164,0.518,0.094
		c0.697-0.274,1.456-0.516,2.256-0.718c0.185-0.047,0.327-0.195,0.367-0.381l0.806-3.802c0.009-0.043,0.045-0.063,0.072-0.068
		c2.271-0.333,3.915-0.401,6.327,0.067l0.809,3.804c0.04,0.187,0.183,0.334,0.367,0.381c0.799,0.2,1.557,0.442,2.255,0.718
		c0.177,0.069,0.378,0.034,0.518-0.093l2.986-2.62c1.857,0.985,3.56,2.225,5.076,3.78l-1.59,3.566
		c-0.077,0.174-0.049,0.377,0.072,0.523c0.5,0.601,0.963,1.241,1.376,1.903c0.101,0.162,0.285,0.252,0.477,0.232l3.964-0.362
		c0.932,1.883,1.58,3.885,1.896,6.038l-3.371,1.941c-0.168,0.096-0.265,0.281-0.249,0.474c0.032,0.391,0.049,0.778,0.049,1.173
		c0,0.395-0.017,0.785-0.049,1.171c-0.017,0.192,0.081,0.378,0.248,0.475L45.437,27.678z M38.692,20.028
		c-0.152-0.551-0.726-0.874-1.276-0.72s-0.874,0.725-0.721,1.276c0.722,2.587,0.633,5.29-0.252,7.819
		c-2.385,6.809-9.862,10.409-16.672,8.024c-6.81-2.384-10.409-9.863-8.025-16.672c2.384-6.81,9.863-10.409,16.673-8.025
		c0.812,0.284,1.588,0.649,2.322,1.08l-1.373,1.501l6.055,1.337l-1.869-5.912l-1.389,1.518c-0.959-0.604-1.984-1.104-3.062-1.481
		c-7.889-2.762-16.553,1.407-19.315,9.296c-2.762,7.889,1.408,16.551,9.297,19.314c7.888,2.762,16.553-1.407,19.314-9.296
		C39.427,26.157,39.527,23.024,38.692,20.028z M34.369,20.207c-0.557-0.459-1.396-0.688-2.52-0.688h-2.582v8.973h1.467v-3.357h0.932
		c1.135,0,2.008-0.25,2.621-0.749s0.92-1.217,0.92-2.153C35.207,21.34,34.928,20.665,34.369,20.207z M26.977,24.618l0.064-0.307
		h0.004l0.191-0.954l0.777-3.848h-1.5l-0.777,3.848h-3.721h-1.5l-0.063,0.308H20.45l-0.193,0.953l-0.779,3.849h1.501l0.779-3.849
		h3.717H26.977z M25.234,25.806l-0.543,2.661h1.5l0.543-2.661H25.234z M22.267,22.131l0.534-2.621H21.3l-0.534,2.621H22.267z
		 M18.508,20.207c-0.558-0.459-1.397-0.688-2.52-0.688h-2.583v8.973h1.467v-3.357h0.933c1.133,0,2.007-0.25,2.621-0.749
		c0.613-0.499,0.92-1.217,0.92-2.153C19.346,21.34,19.067,20.665,18.508,20.207z"/>
	<polygon fill="#CCFFFF" points="27.952,19.56 26.555,19.56 25.777,23.407 20.557,23.407 20.306,24.628 19.539,28.417 
		20.938,28.417 21.717,24.568 26.936,24.568 27.004,24.262 	"/>
	<polygon fill="#FFFFFF" points="21.341,19.56 20.827,22.081 22.226,22.081 22.74,19.56 	"/>
	<polygon fill="#FFFFFF" points="26.15,28.417 26.673,25.855 25.275,25.855 24.752,28.417 	"/>
</g>
</svg>
