<?xml version="1.0" encoding="utf-8"?>
<!-- Generator: Adobe Illustrator 16.0.0, SVG Export Plug-In . SVG Version: 6.00 Build 0)  -->
<!DOCTYPE svg PUBLIC "-//W3C//DTD SVG 1.1//EN" "http://www.w3.org/Graphics/SVG/1.1/DTD/svg11.dtd">
<svg version="1.1" id="Layer_1" xmlns="http://www.w3.org/2000/svg" xmlns:xlink="http://www.w3.org/1999/xlink" x="0px" y="0px"
	 width="21px" height="21px" viewBox="0 0 21 21" enable-background="new 0 0 21 21" xml:space="preserve">
<path fill="#5CADAD" d="M18.859,0.131H2.141c-0.891,0-1.613,0.689-1.613,1.541v13.864c0,0.853,0.724,1.54,1.613,1.54h4.892
	l-1.088,3.072C5.871,20.375,5.95,20.62,6.14,20.761c0.095,0.069,0.211,0.108,0.329,0.108c0.108,0,0.214-0.032,0.308-0.094
	l5.247-3.488l0.354-0.211h6.481c0.892,0,1.613-0.688,1.613-1.54V1.672C20.473,0.82,19.75,0.131,18.859,0.131z M9.481,2.408
	c0.221-0.223,0.487-0.336,0.797-0.336c0.305,0,0.569,0.113,0.791,0.336c0.22,0.222,0.328,0.488,0.328,0.791
	c0,0.309-0.108,0.575-0.323,0.792c-0.22,0.217-0.486,0.327-0.794,0.327c-0.307,0-0.574-0.11-0.795-0.326
	C9.265,3.775,9.152,3.508,9.152,3.2C9.151,2.896,9.263,2.63,9.481,2.408z M8.163,13.154h1.393V6.88H8.163V5.584h3.298v7.57h1.375
	v1.289H8.163V13.154z"/>
</svg>
