<?xml version="1.0" encoding="utf-8"?>
<!-- Generator: Adobe Illustrator 16.0.0, SVG Export Plug-In . SVG Version: 6.00 Build 0)  -->
<!DOCTYPE svg PUBLIC "-//W3C//DTD SVG 1.1//EN" "http://www.w3.org/Graphics/SVG/1.1/DTD/svg11.dtd">
<svg version="1.1" id="Layer_1" xmlns="http://www.w3.org/2000/svg" xmlns:xlink="http://www.w3.org/1999/xlink" x="0px" y="0px"
	 width="48px" height="48px" viewBox="0 0 48 48" enable-background="new 0 0 48 48" xml:space="preserve">
<path fill="#CACA7D" d="M19.776,47.61c-0.653,0-1.333-0.048-2.116-0.15l-1.517-4.27l-0.287-0.092
	c-0.708-0.219-1.425-0.518-2.13-0.889l-0.265-0.139L9.36,44.019c-1.118-0.868-2.124-1.871-2.993-2.99l1.95-4.101l-0.14-0.267
	c-0.368-0.705-0.669-1.424-0.891-2.13l-0.09-0.287L2.93,32.728c-0.104-0.781-0.152-1.461-0.152-2.116
	c0-0.651,0.048-1.333,0.152-2.115l4.268-1.518l0.09-0.286c0.222-0.707,0.522-1.424,0.891-2.129l0.14-0.268l-1.95-4.101
	c0.869-1.119,1.875-2.122,2.993-2.993l4.101,1.949l0.266-0.138c0.705-0.37,1.423-0.67,2.131-0.892l0.287-0.09l1.516-4.27
	c0.785-0.101,1.465-0.15,2.116-0.15c0.653,0,1.333,0.05,2.117,0.15l1.518,4.27l0.285,0.09c0.708,0.222,1.427,0.521,2.131,0.892
	l0.269,0.138l4.098-1.949c1.118,0.869,2.121,1.874,2.992,2.993l-1.947,4.101l0.138,0.268c0.368,0.704,0.671,1.42,0.891,2.129
	l0.088,0.286l4.271,1.518c0.102,0.785,0.148,1.465,0.148,2.115c0,0.653-0.047,1.33-0.148,2.116l-4.271,1.517l-0.088,0.287
	c-0.223,0.708-0.524,1.427-0.891,2.13l-0.138,0.267l1.947,4.102c-0.871,1.118-1.874,2.122-2.992,2.991l-4.1-1.949l-0.267,0.139
	c-0.704,0.371-1.423,0.67-2.131,0.889l-0.285,0.092l-1.518,4.27C21.111,47.563,20.432,47.61,19.776,47.61z M19.775,21.797
	c-4.859,0-8.813,3.954-8.813,8.814s3.953,8.813,8.813,8.813c4.862,0,8.816-3.953,8.816-8.813S24.638,21.797,19.775,21.797z"/>
<g>
	<path fill="#6666CC" d="M12.18,4.24c0,1.339-0.439,2.363-1.318,3.074C9.982,8.021,8.734,8.376,7.112,8.376H5.924v4.428h-2.77V0.36
		h4.174c1.584,0,2.789,0.324,3.615,0.973C11.768,1.983,12.18,2.953,12.18,4.24z M5.924,6.214h0.912c0.852,0,1.489-0.159,1.912-0.48
		c0.424-0.321,0.635-0.787,0.635-1.399c0-0.618-0.176-1.075-0.531-1.369C8.498,2.669,7.943,2.521,7.184,2.521h-1.26V6.214z"/>
	<path fill="#6666CC" d="M25.353,12.804H22.59V7.433h-5.172v5.371h-2.771V0.36h2.771v4.875h5.172V0.36h2.763V12.804z"/>
	<path fill="#6666CC" d="M37.676,4.24c0,1.339-0.441,2.363-1.319,3.074c-0.878,0.707-2.13,1.062-3.751,1.062H31.42v4.428h-2.77V0.36
		h4.173c1.585,0,2.79,0.324,3.615,0.973C37.264,1.983,37.676,2.953,37.676,4.24z M31.42,6.214h0.911c0.853,0,1.488-0.159,1.911-0.48
		c0.424-0.321,0.638-0.787,0.638-1.399c0-0.618-0.179-1.075-0.534-1.369c-0.354-0.296-0.91-0.443-1.666-0.443h-1.26V6.214z"/>
</g>
<g>
	<path fill="#DEBD5C" d="M40.745,10.935L26.098,31.853l-2.313,3.303c-0.289,0.412-0.268,0.924,0.043,1.145l1.266,0.885
		c0.312,0.217,0.798,0.059,1.084-0.352l2.314-3.305l14.648-20.917L40.745,10.935z"/>
	<g>
		<path fill="#FFEAC1" d="M27.746,38.483l-1.527-0.513c-0.311-0.217-0.327-0.728-0.041-1.138c-0.286,0.41-0.772,0.568-1.084,0.352
			L23.828,36.3c-0.311-0.221-0.332-0.732-0.043-1.145c-0.289,0.412-0.776,0.568-1.083,0.354l-1.007-1.261
			c-0.144-0.1-0.217-0.266-0.234-0.45l-1.143,6.899c0.244,0.252,0.531,0.498,0.86,0.732c0.325,0.229,0.658,0.41,0.977,0.554
			l6.095-3.431C28.068,38.599,27.889,38.586,27.746,38.483z"/>
		<path fill="#FFEAC1" d="M45.387,12.105l-0.518-1.063l-3.238-2.267l-1.176-0.122l-0.521-0.055l0.75,1.533l0.408,0.286l0.02,0.014
			l2.376,1.662l0.021,0.015l0.41,0.287l1.697,0.18L45.387,12.105z M42.537,10.928c-0.395-0.273-0.614-0.631-0.533-0.833
			c0.006-0.014,0-0.032,0.008-0.044c0.133-0.188,0.58-0.104,1.004,0.195c0.419,0.291,0.652,0.684,0.521,0.871
			c-0.009,0.012-0.027,0.013-0.038,0.022C43.34,11.286,42.931,11.203,42.537,10.928z"/>
		<path fill="#CCA300" d="M46.42,12.808l-1.029-2.113c-0.025-0.045-0.059-0.087-0.1-0.119l-3.369-2.357
			c-0.041-0.029-0.092-0.048-0.145-0.053l-2.338-0.247c-0.112-0.012-0.221,0.039-0.288,0.133c-0.041,0.06-0.175,0.315-0.228,0.391
			L21.651,33.107c-0.038,0.056-0.058,0.116-0.085,0.175c-0.011,0.02-0.022,0.041-0.031,0.061l-0.074,0.456
			c0.018,0.185,0.091,0.351,0.234,0.45l1.007,1.261c0.307,0.214,0.794,0.058,1.083-0.354l2.313-3.303l14.647-20.918l2.396,1.677
			L28.492,33.528l-2.314,3.305c-0.286,0.41-0.27,0.921,0.041,1.138l1.527,0.513c0.143,0.103,0.322,0.115,0.504,0.07l0.398-0.226
			c0.018-0.015,0.033-0.035,0.051-0.053c0.046-0.047,0.096-0.085,0.135-0.142l17.268-24.66c0.055-0.077,0.251-0.291,0.293-0.353
			C46.461,13.028,46.47,12.908,46.42,12.808z M41.111,10.432c-0.018,0.022-0.039,0.036-0.056,0.06
			c0.017-0.023,0.022-0.049,0.036-0.073l-0.408-0.286l-0.75-1.533l0.521,0.055l1.176,0.122l3.238,2.267l0.518,1.063l0.229,0.47
			l-1.697-0.18l-0.41-0.287c-0.02,0.023-0.043,0.039-0.061,0.063c0.018-0.024,0.023-0.053,0.04-0.078L41.111,10.432z"/>
		<path fill="#3E3E3E" d="M43.016,10.246c-0.424-0.299-0.871-0.384-1.004-0.195c-0.008,0.012-0.002,0.03-0.008,0.044
			c-0.081,0.202,0.139,0.56,0.533,0.833c0.394,0.275,0.803,0.358,0.962,0.212c0.011-0.01,0.029-0.011,0.038-0.022
			C43.668,10.93,43.435,10.537,43.016,10.246z"/>
	</g>
	<path fill="#3E3E3E" d="M22.155,41.984c-0.318-0.144-0.651-0.325-0.977-0.554c-0.329-0.234-0.616-0.48-0.86-0.732
		c-0.006-0.006-0.015-0.012-0.021-0.018l-0.442,2.639l2.324-1.322C22.172,41.995,22.164,41.987,22.155,41.984z"/>
</g>
</svg>
