<?xml version="1.0" encoding="utf-8"?>
<!-- Generator: Adobe Illustrator 16.0.0, SVG Export Plug-In . SVG Version: 6.00 Build 0)  -->
<!DOCTYPE svg PUBLIC "-//W3C//DTD SVG 1.1//EN" "http://www.w3.org/Graphics/SVG/1.1/DTD/svg11.dtd">
<svg version="1.1" id="Layer_1" xmlns="http://www.w3.org/2000/svg" xmlns:xlink="http://www.w3.org/1999/xlink" x="0px" y="0px"
	 width="48px" height="48px" viewBox="0 0 48 48" enable-background="new 0 0 48 48" xml:space="preserve">
<path fill="#BDBD9D" d="M41.866,7.979c-0.62-0.691-1.282-1.345-1.978-1.96C40.584,6.634,41.245,7.288,41.866,7.979z"/>
<path fill="#BDBD9D" d="M38.818,5.128c0.317,0.25,0.628,0.507,0.933,0.771C39.446,5.635,39.136,5.378,38.818,5.128z"/>
<path fill="#BDBD9D" d="M36.146,3.302c0.456,0.268,0.903,0.547,1.34,0.844C37.049,3.85,36.602,3.57,36.146,3.302z"/>
<path fill="#BDBD9D" d="M12.095,27.608c1.829,0,3.52,0.578,4.91,1.555c0.538-1.52,1.223-3.201,2.101-4.994
	c2.633-5.357,7.621-12.703,12.229-18.106c1.284-1.507,2.358-2.678,3.256-3.601c0.468,0.23,0.926,0.479,1.376,0.738
	C32.442,1.168,28.358,0,24,0C10.744,0,0,10.745,0,24c0,4.612,1.304,8.919,3.559,12.577c-0.006-0.138-0.021-0.272-0.021-0.411
	C3.538,31.439,7.37,27.608,12.095,27.608z"/>
<path fill="#BDBD9D" d="M41.867,7.98c-0.182,0.391-0.376,0.781-0.595,1.169c-1.919,3.397-3.966,6.46-6.65,7.197
	c0.817-0.117,1.597-0.076,2.896-0.745c-0.289,1.16-1.666,5.17-5.326,6.285c1.341-0.207,1.65-0.342,2.83-0.862
	c-0.633,1.053-1.964,2.993-4.367,3.59c0.898-0.086,1.145-0.088,2.279-0.423c-0.813,1.874-2.727,6.46-5.959,9.175
	c-2.211,1.764-4.159,2.655-6.326,2.899c-0.001,0.062-0.007,0.122-0.009,0.183c0.534,0.149,1.467,0.301,2.841,0.096
	c1.83-0.272,3.204-1.451,3.498-1.718c-1.363,2.04-2.482,3.398-5.451,4.273c1.268,0.028,2.063,0.21,3.095-0.783
	c-1.136,1.598-2.351,2.918-5.716,3.014c-0.406,0.535-0.867,1.025-1.386,1.451c0.043,0.263,0.059,0.561,0.091,0.973
	c-0.149-0.278-0.251-0.531-0.359-0.771c-0.905,0.686-1.948,1.192-3.083,1.476c-0.176,0.399-0.355,0.805-0.527,1.196
	c-0.186-0.089-0.366-0.185-0.549-0.278c0.113-0.263,0.223-0.515,0.333-0.769c-0.435,0.068-0.877,0.114-1.332,0.114
	c-0.074,0-0.145-0.009-0.218-0.011C15.435,46.798,19.576,48,24,48c13.255,0,24-10.745,24-24C48,17.843,45.679,12.229,41.867,7.98z"
	/>
<g>
	<path fill="#A30052" d="M23.949,24.381c3.431-6.479,7.434-12.421,7.434-12.421c2.421-3.574,4.615-6.182,6.104-7.813
		c-0.001,0-0.002-0.001-0.002-0.001c-0.437-0.296-0.884-0.576-1.34-0.844c-0.06-0.035-0.12-0.069-0.18-0.103
		c-0.45-0.259-0.908-0.507-1.376-0.738c-0.897,0.923-1.972,2.094-3.256,3.601c-4.607,5.403-9.596,12.749-12.229,18.106
		c-0.878,1.793-1.563,3.475-2.101,4.994c1.179,0.828,2.135,1.946,2.773,3.251C21,29.988,22.354,27.391,23.949,24.381z"/>
	<path fill="#A30052" d="M13.093,45.376c0.183,0.094,0.363,0.189,0.549,0.278c0.172-0.392,0.351-0.797,0.527-1.196
		c-0.244,0.061-0.491,0.11-0.742,0.149C13.316,44.861,13.206,45.113,13.093,45.376z"/>
	<path fill="#A30052" d="M20.639,36.448c-0.06,1.833-0.695,3.517-1.733,4.882c3.365-0.096,4.58-1.416,5.716-3.014
		c-1.031,0.993-1.827,0.812-3.095,0.783c2.969-0.875,4.088-2.233,5.451-4.273c-0.294,0.267-1.668,1.445-3.498,1.718
		C22.106,36.749,21.173,36.598,20.639,36.448z"/>
	<path fill="#A30052" d="M41.272,9.149c0.219-0.388,0.413-0.778,0.595-1.169c0,0-0.001-0.001-0.001-0.001
		c-0.621-0.691-1.282-1.345-1.978-1.96c-0.046-0.041-0.092-0.08-0.138-0.12c-0.305-0.265-0.615-0.522-0.933-0.771
		c-0.049-0.038-0.097-0.076-0.146-0.114c-0.356-0.276-0.719-0.543-1.091-0.799c-1.359,1.605-3.252,4.026-5.496,7.425
		c-4.755,7.442-6.617,10.847-9.881,17.257c-0.764,1.504-1.47,2.923-2.114,4.239c0.357,0.943,0.562,1.961,0.562,3.029
		c0,0.034-0.005,0.066-0.005,0.1c2.167-0.244,4.115-1.136,6.326-2.899c3.232-2.715,5.146-7.301,5.959-9.175
		c-1.135,0.335-1.381,0.337-2.279,0.423c2.403-0.597,3.734-2.537,4.367-3.59c-1.18,0.521-1.489,0.655-2.83,0.862
		c3.66-1.115,5.037-5.125,5.326-6.285c-1.299,0.669-2.078,0.628-2.896,0.745C37.307,15.609,39.354,12.547,41.272,9.149z"/>
	<path fill="#A30052" d="M17.252,42.982c0.108,0.24,0.21,0.493,0.359,0.771c-0.033-0.412-0.048-0.71-0.091-0.973
		C17.434,42.853,17.341,42.915,17.252,42.982z"/>
</g>
<path fill="#FFFFFF" d="M20.639,36.448c0.002-0.061,0.008-0.121,0.009-0.183c-0.138,0.016-0.274,0.037-0.414,0.048
	C20.325,36.35,20.46,36.398,20.639,36.448z"/>
<path fill="#999933" d="M12.126,28.981c-0.446,0-0.881,0.046-1.305,0.124c-3.106,0.573-5.51,3.145-5.822,6.334
	c-0.023,0.232-0.036,0.468-0.036,0.706c0,3.956,3.207,7.163,7.163,7.163c0.235,0,0.467-0.013,0.696-0.035
	c3.193-0.309,5.769-2.713,6.343-5.82c0.079-0.425,0.125-0.86,0.125-1.308C19.291,32.189,16.083,28.981,12.126,28.981z
	 M16.182,36.281l-1.428,1.43l-2.649,2.65c-0.012,0.012-0.029,0.012-0.043,0.02c-0.018,0.009-0.035,0.024-0.054,0.024
	c-0.018,0-0.035-0.005-0.052-0.011c-0.05-0.022-0.084-0.072-0.084-0.126v-0.021c-0.021-0.024-0.051-0.043-0.051-0.076v-1.942h-0.999
	H8.275c-0.074,0-0.134-0.061-0.134-0.133v-0.413c0-0.001-0.001-0.001-0.001-0.002v-2.996c0-0.001,0.001-0.001,0.001-0.002v-0.486
	c0-0.074,0.06-0.134,0.134-0.134h0.376h2.17h0.999V32.3v-0.18c0-0.054,0.033-0.104,0.083-0.124c0.017-0.006,0.034-0.01,0.051-0.01
	c0.001,0,0-0.002,0.001-0.002c0.017-0.013,0.035-0.016,0.052-0.016c0.019,0,0.036,0.016,0.054,0.025
	C12.076,32,12.093,32,12.104,32.013l4.077,4.08C16.235,36.147,16.235,36.229,16.182,36.281z"/>
<g>
	<path fill="#BDBD9D" d="M37.065,3.869c-1.446,1.589-3.662,4.216-6.097,7.811c-0.041,0.061-4.058,6.04-7.461,12.467
		c-1.68,3.169-2.931,5.579-4.035,7.763c0.257,0.448,0.538,1.014,0.759,1.687c0.13-0.04,0.247-0.114,0.309-0.24
		c0.691-1.414,1.402-2.838,2.11-4.232c3.115-6.117,4.988-9.594,9.856-17.214c1.743-2.64,3.479-5.001,5.163-7.021
		c0.137-0.166,0.215-0.303,0.266-0.425C37.64,4.251,37.35,4.055,37.065,3.869z"/>
</g>
</svg>
