<?xml version="1.0" encoding="utf-8"?>
<!-- Generator: Adobe Illustrator 16.0.0, SVG Export Plug-In . SVG Version: 6.00 Build 0)  -->
<!DOCTYPE svg PUBLIC "-//W3C//DTD SVG 1.1//EN" "http://www.w3.org/Graphics/SVG/1.1/DTD/svg11.dtd">
<svg version="1.1" id="Layer_1" xmlns="http://www.w3.org/2000/svg" xmlns:xlink="http://www.w3.org/1999/xlink" x="0px" y="0px"
	 width="48px" height="48px" viewBox="0 0 48 48" enable-background="new 0 0 48 48" xml:space="preserve">
<polygon fill="#FFCC00" points="31.421,1.175 31.421,1.175 31.429,1.178 "/>
<path fill="#85D633" d="M11.761,27.526c4.619,0,8.373,3.66,8.542,8.237l2.784-3.532c0.362-0.466,0.389-1.269,0.058-1.752
	l-9.546-13.728c-0.471-0.684-0.321-1.651,0.334-2.157l17.488-13.42C29.083,0.416,26.591,0,24,0C10.744,0,0,10.745,0,24
	c0,4.366,1.172,8.456,3.209,11.983C3.264,31.304,7.07,27.526,11.761,27.526z"/>
<path fill="#85D633" d="M33.851,2.133c0.399,0.18,0.798,0.36,1.185,0.561C34.648,2.494,34.25,2.313,33.851,2.133z"/>
<path fill="#85D633" d="M35.153,2.76L24.904,15.768c-0.359,0.463-0.385,1.264-0.055,1.748l9.436,13.598
	c0.078,0.294,0.433,1.782-0.226,2.28L16.568,46.821c-1.297-0.422-2.546-0.951-3.735-1.578l0.607-0.771
	c-0.543,0.108-1.104,0.167-1.679,0.167c-0.003,0-0.005,0-0.008,0C15.338,46.771,19.525,48,24,48c13.255,0,24-10.745,24-24
	C48,14.774,42.787,6.777,35.153,2.76z"/>
<path fill="#85D633" d="M31.429,1.178c0.626,0.204,1.238,0.435,1.841,0.687C32.667,1.612,32.055,1.381,31.429,1.178z"/>
<path fill="#FFCC00" d="M13.599,16.752l9.546,13.728c0.331,0.483,0.304,1.286-0.058,1.752l-2.784,3.532
	c0.004,0.107,0.016,0.212,0.016,0.32c0,4.149-2.957,7.608-6.879,8.389l-0.607,0.771c1.189,0.627,2.438,1.156,3.735,1.578
	L34.06,33.394c0.658-0.498,0.304-1.986,0.226-2.28l-9.436-13.598c-0.33-0.483-0.304-1.284,0.055-1.748L35.153,2.76
	c-0.04-0.021-0.078-0.045-0.118-0.066c-0.387-0.201-0.785-0.381-1.185-0.561c-0.194-0.088-0.384-0.186-0.581-0.269
	c-0.603-0.252-1.215-0.483-1.841-0.687c-0.003-0.001-0.005-0.002-0.008-0.003l-17.488,13.42
	C13.278,15.101,13.127,16.068,13.599,16.752z"/>
<path fill="#FFCC00" d="M35.159,2.753c-0.04-0.021-0.083-0.038-0.124-0.059c0.04,0.021,0.078,0.045,0.118,0.066L35.159,2.753z"/>
<path fill="#FFCC00" d="M33.27,1.865c0.197,0.083,0.387,0.181,0.581,0.269C33.656,2.045,33.467,1.947,33.27,1.865z"/>
<path fill="#52A300" d="M11.762,28.888c-0.446,0-0.881,0.046-1.305,0.124c-3.106,0.573-5.51,3.145-5.822,6.334
	c-0.023,0.232-0.036,0.468-0.036,0.706c0,3.956,3.207,7.163,7.163,7.163c0.235,0,0.467-0.013,0.696-0.035
	c3.193-0.309,5.769-2.713,6.343-5.82c0.079-0.425,0.125-0.86,0.125-1.308C18.926,32.096,15.718,28.888,11.762,28.888z
	 M15.817,36.188l-1.428,1.43l-2.649,2.65c-0.012,0.012-0.029,0.012-0.043,0.02c-0.018,0.009-0.035,0.024-0.054,0.024
	c-0.018,0-0.035-0.005-0.052-0.011c-0.05-0.022-0.084-0.072-0.084-0.126v-0.021c-0.021-0.024-0.051-0.043-0.051-0.076v-1.942h-0.999
	H7.91c-0.074,0-0.134-0.061-0.134-0.133v-0.413c0-0.001-0.001-0.001-0.001-0.002v-2.996c0-0.001,0.001-0.001,0.001-0.002v-0.486
	c0-0.074,0.06-0.134,0.134-0.134h0.376h2.17h0.999v-1.763v-0.18c0-0.054,0.033-0.104,0.083-0.124c0.017-0.006,0.034-0.01,0.051-0.01
	c0.001,0,0-0.002,0.001-0.002c0.017-0.013,0.035-0.016,0.052-0.016c0.019,0,0.036,0.016,0.054,0.025
	c0.014,0.006,0.031,0.006,0.043,0.019l4.077,4.08C15.871,36.054,15.871,36.136,15.817,36.188z"/>
</svg>
