<?xml version="1.0" encoding="utf-8"?>
<!-- Generator: Adobe Illustrator 16.0.0, SVG Export Plug-In . SVG Version: 6.00 Build 0)  -->
<!DOCTYPE svg PUBLIC "-//W3C//DTD SVG 1.1//EN" "http://www.w3.org/Graphics/SVG/1.1/DTD/svg11.dtd">
<svg version="1.1" id="Layer_1" xmlns="http://www.w3.org/2000/svg" xmlns:xlink="http://www.w3.org/1999/xlink" x="0px" y="0px"
	 width="48px" height="48px" viewBox="0 0 48 48" enable-background="new 0 0 48 48" xml:space="preserve">
<path fill="none" d="M248.594,0.125H185.25c-2.964,0-5.375,2.411-5.375,5.375s2.411,5.375,5.375,5.375h62.47
	C246.861,7.313,247.146,3.534,248.594,0.125z"/>
<g>
	<path fill="#504C71" d="M71.151-0.225c-0.054,0-0.107,0.004-0.161,0.011h0.252C71.214-0.221,71.183-0.225,71.151-0.225z"/>
</g>
<g>
	<path fill="#504C71" d="M81.418,10.042c0-0.031-0.004-0.062-0.01-0.091v0.252C81.414,10.149,81.418,10.096,81.418,10.042z"/>
</g>
<g>
	<path fill="#504C71" d="M76.973,5.596c-0.056,0-0.108,0.004-0.159,0.011h0.251C77.034,5.6,77.003,5.596,76.973,5.596z"/>
</g>
<g>
	<path fill="#504C71" d="M87.239,15.863c0-0.031-0.004-0.062-0.01-0.091v0.252C87.234,15.971,87.239,15.917,87.239,15.863z"/>
</g>
<path fill="none" d="M27.406,0.888c-0.197,0.065-0.34,0.058-0.34,0.278v4.655h5.272L27.406,0.888z"/>
<polygon fill="#C7C5B1" points="37.01,9.255 36.146,8.393 37.241,9.487 "/>
<path fill="#E4E4D7" d="M10.655,32.113V6.78c0-0.529,0.43-0.959,0.958-0.959h15.454V1.166c0-0.221,0.143-0.213,0.34-0.278
	l4.933,4.934h0.886h0.252c0.081,0.018,0.156,0.058,0.215,0.116L28.6,0.847l-0.727-0.729c-0.063-0.06-0.137-0.1-0.219-0.117h-0.252
	H5.792c-0.529,0-0.96,0.43-0.96,0.959V35.83C6.136,33.869,8.229,32.486,10.655,32.113z"/>
<path fill="none" d="M37.82,35.61c-0.674-0.418-1.461-0.671-2.313-0.671c-2.434,0-4.406,1.973-4.406,4.406
	c0,0.94,0.3,1.808,0.802,2.523c0.797,1.136,2.111,1.883,3.604,1.883c2.434,0,4.406-1.973,4.406-4.406
	C39.914,37.764,39.073,36.387,37.82,35.61z"/>
<path fill="none" d="M33.385,16.573h4.436h4.654c0.219,0,0.211-0.143,0.279-0.34L37.82,11.3l-4.59-4.59
	c-0.001,0-0.002,0-0.002,0.001c-0.198,0.064-0.34,0.057-0.34,0.275v3.767v5.324C32.889,16.352,33.111,16.573,33.385,16.573z"/>
<path fill="none" d="M43.153,37.602c-0.036-0.161-0.15-0.293-0.304-0.354l-1.642-0.647l0.518-1.687
	c0.049-0.157,0.017-0.329-0.087-0.458c-0.103-0.131-0.264-0.199-0.428-0.188L39.452,34.4l-0.265-1.745
	c-0.024-0.163-0.128-0.304-0.277-0.375c-0.146-0.07-0.322-0.065-0.467,0.017l-0.623,0.359l-0.905,0.521l-0.994-1.456
	c-0.188-0.271-0.639-0.271-0.826,0l-0.994,1.456l-1.528-0.881c-0.145-0.083-0.319-0.088-0.467-0.017
	c-0.149,0.071-0.253,0.212-0.277,0.375L31.563,34.4l-1.761-0.132c-0.164-0.011-0.325,0.058-0.428,0.188
	c-0.104,0.129-0.136,0.301-0.087,0.459l0.52,1.687l-1.642,0.646c-0.153,0.061-0.268,0.192-0.304,0.354
	c-0.037,0.161,0.008,0.33,0.12,0.451l1.197,1.293l-1.197,1.295c-0.112,0.122-0.157,0.29-0.12,0.451s0.15,0.294,0.305,0.354
	l1.076,0.423l0.564,0.222l-0.52,1.686c-0.049,0.158-0.017,0.33,0.087,0.459c0.102,0.128,0.249,0.195,0.428,0.188l1.761-0.13
	l0.265,1.745c0.024,0.163,0.129,0.304,0.277,0.375s0.324,0.065,0.467-0.018l1.528-0.881l0.994,1.457
	c0.094,0.136,0.248,0.218,0.413,0.218s0.319-0.082,0.413-0.218l0.994-1.457l1.528,0.881c0.143,0.083,0.318,0.089,0.467,0.018
	s0.253-0.212,0.277-0.375l0.265-1.745l1.759,0.13c0.182,0.014,0.326-0.058,0.428-0.188c0.104-0.129,0.136-0.301,0.087-0.458
	l-0.518-1.687l1.641-0.645c0.154-0.061,0.268-0.193,0.305-0.354s-0.008-0.33-0.12-0.451l-1.199-1.295l1.198-1.293
	C43.145,37.932,43.19,37.763,43.153,37.602z M40.785,39.686l1.017,1.098l-1.391,0.546c-0.243,0.096-0.372,0.363-0.295,0.612
	l0.438,1.43l-1.49-0.11c-0.285-0.029-0.492,0.166-0.531,0.424l-0.225,1.479l-1.295-0.747c-0.229-0.134-0.516-0.064-0.663,0.15
	l-0.843,1.235l-0.843-1.235c-0.097-0.141-0.253-0.218-0.413-0.218c-0.085,0-0.171,0.021-0.25,0.067l-1.295,0.747l-0.225-1.479
	c-0.039-0.258-0.252-0.453-0.531-0.424l-1.492,0.11l0.44-1.429c0.008-0.024,0.005-0.049,0.008-0.073
	c0.034-0.228-0.082-0.454-0.303-0.54l-1.391-0.546l1.015-1.098c0.177-0.192,0.177-0.488,0-0.68l-1.015-1.096l1.392-0.549
	c0.243-0.096,0.371-0.362,0.294-0.612l-0.44-1.429l1.492,0.112c0.279,0.019,0.492-0.166,0.531-0.424l0.225-1.479l1.295,0.746
	c0.228,0.129,0.515,0.063,0.663-0.151l0.843-1.233l0.843,1.233c0.147,0.214,0.434,0.28,0.663,0.151l0.807-0.465l0.488-0.281
	l0.225,1.479c0.039,0.258,0.246,0.442,0.531,0.424l1.49-0.112l-0.438,1.43c-0.077,0.249,0.051,0.516,0.294,0.611l1.392,0.549
	l-1.016,1.096C40.608,39.197,40.607,39.493,40.785,39.686z"/>
<path fill="none" d="M33.385,16.573h4.436h4.654c0.219,0,0.211-0.143,0.279-0.34L37.82,11.3l-4.59-4.59
	c-0.001,0-0.002,0-0.002,0.001c-0.198,0.064-0.34,0.057-0.34,0.275v3.767v5.324C32.889,16.352,33.111,16.573,33.385,16.573z"/>
<path fill="none" d="M41.802,37.91l-1.392-0.549c-0.243-0.096-0.371-0.362-0.294-0.611l0.438-1.43l-1.49,0.112
	c-0.285,0.019-0.492-0.166-0.531-0.424l-0.225-1.479l-0.488,0.281l-0.807,0.465c-0.229,0.129-0.516,0.063-0.663-0.151l-0.843-1.233
	l-0.843,1.233c-0.148,0.214-0.436,0.28-0.663,0.151l-1.295-0.746l-0.225,1.479c-0.039,0.258-0.252,0.442-0.531,0.424l-1.492-0.112
	l0.44,1.429c0.077,0.25-0.051,0.517-0.294,0.612l-1.392,0.549l1.015,1.096c0.177,0.191,0.177,0.487,0,0.68l-1.015,1.098l1.391,0.546
	c0.221,0.086,0.337,0.313,0.303,0.54c-0.003,0.024,0,0.049-0.008,0.073l-0.44,1.429l1.492-0.11c0.279-0.029,0.492,0.166,0.531,0.424
	l0.225,1.479l1.295-0.747c0.079-0.046,0.165-0.067,0.25-0.067c0.16,0,0.316,0.077,0.413,0.218l0.843,1.235l0.843-1.235
	c0.147-0.215,0.434-0.284,0.663-0.15l1.295,0.747l0.225-1.479c0.039-0.258,0.246-0.453,0.531-0.424l1.49,0.11l-0.438-1.43
	c-0.077-0.249,0.052-0.517,0.295-0.612l1.391-0.546l-1.017-1.098c-0.178-0.192-0.177-0.488,0.001-0.68L41.802,37.91z M35.508,43.752
	c-1.493,0-2.808-0.747-3.604-1.883c-0.502-0.716-0.802-1.583-0.802-2.523c0-2.434,1.973-4.406,4.406-4.406
	c0.852,0,1.639,0.253,2.313,0.671c1.253,0.776,2.094,2.153,2.094,3.735C39.914,41.779,37.941,43.752,35.508,43.752z"/>
<path fill="none" d="M28.213,36.302l-0.004-1.154l-0.896-0.895l1.41-1.412l-0.002-0.771l-1.193-1.191l1.257-1.258v-0.371
	l-1.026-1.021v-1.67l1.02-0.002l0.264,0.004c0.215-0.002,0.389-0.178,0.391-0.391l-0.388-1.383c0-0.029-0.011-0.063-0.021-0.088
	c1.961-0.943,3.316-2.935,3.33-5.25c0-0.011,0.002-0.021,0.002-0.033c0-1.602-0.644-3.052-1.686-4.109
	c-1.062-1.078-2.536-1.747-4.17-1.747c-3.238,0-5.857,2.622-5.857,5.856c-0.003,2.197,1.209,4.107,2.998,5.111
	c-0.066,0.068-0.106,0.158-0.107,0.264l-0.385,1.381c-0.002,0.213,0.174,0.387,0.386,0.385l1.026,0.002
	c-0.005,0.061-0.008,0.125-0.01,0.191v9.895c0.002,0.66,0.909,1.873,1.846,2.08l-0.174-0.176l-0.003-14.49l0.641,1.793v11.801
	L28.213,36.302z"/>
<path fill="#CCCC66" d="M41.802,37.91l-1.392-0.549c-0.243-0.096-0.371-0.362-0.294-0.611l0.438-1.43l-1.49,0.112
	c-0.285,0.019-0.492-0.166-0.531-0.424l-0.225-1.479l-0.488,0.281l-0.807,0.465c-0.229,0.129-0.516,0.063-0.663-0.151l-0.843-1.233
	l-0.843,1.233c-0.148,0.214-0.436,0.28-0.663,0.151l-1.295-0.746l-0.225,1.479c-0.039,0.258-0.252,0.442-0.531,0.424l-1.492-0.112
	l0.44,1.429c0.077,0.25-0.051,0.517-0.294,0.612l-1.392,0.549l1.015,1.096c0.177,0.191,0.177,0.487,0,0.68l-1.015,1.098l1.391,0.546
	c0.221,0.086,0.337,0.313,0.303,0.54c-0.003,0.024,0,0.049-0.008,0.073l-0.44,1.429l1.492-0.11c0.279-0.029,0.492,0.166,0.531,0.424
	l0.225,1.479l1.295-0.747c0.079-0.046,0.165-0.067,0.25-0.067c0.16,0,0.316,0.077,0.413,0.218l0.843,1.235l0.843-1.235
	c0.147-0.215,0.434-0.284,0.663-0.15l1.295,0.747l0.225-1.479c0.039-0.258,0.246-0.453,0.531-0.424l1.49,0.11l-0.438-1.43
	c-0.077-0.249,0.052-0.517,0.295-0.612l1.391-0.546l-1.017-1.098c-0.178-0.192-0.177-0.488,0.001-0.68L41.802,37.91z M35.508,43.752
	c-1.493,0-2.808-0.747-3.604-1.883c-0.502-0.716-0.802-1.583-0.802-2.523c0-2.434,1.973-4.406,4.406-4.406
	c0.852,0,1.639,0.253,2.313,0.671c1.253,0.776,2.094,2.153,2.094,3.735C39.914,41.779,37.941,43.752,35.508,43.752z M26.503,18.571
	c-0.81,0-1.467-0.656-1.465-1.466c-0.002-0.805,0.656-1.461,1.463-1.464c0.807,0,1.464,0.658,1.464,1.466
	C27.965,17.915,27.306,18.571,26.503,18.571z M43.523,15.77l-0.693-0.693l-5.129-5.129l-0.46-0.46l-1.095-1.095l-1.725-1.726
	l-0.729-0.729c0,0-0.001,0-0.002-0.001c-0.059-0.059-0.134-0.099-0.215-0.116h-0.252h-0.886h-5.272H11.613
	c-0.528,0-0.958,0.43-0.958,0.959v25.333c0.427-0.065,0.86-0.109,1.305-0.109c4.727,0,8.559,3.831,8.559,8.558
	c0,0.446-0.044,0.88-0.11,1.308c-0.373,2.426-1.757,4.518-3.718,5.82h25.992c0.529,0,0.959-0.432,0.959-0.959V16.354v-0.116v-0.252
	C43.623,15.905,43.584,15.828,43.523,15.77z M32.889,10.753V6.986c0-0.219,0.142-0.211,0.34-0.275c0,0,0.001,0,0.002-0.001
	l4.59,4.59l4.934,4.934c-0.068,0.197-0.061,0.34-0.279,0.34H37.82h-4.436c-0.273,0-0.496-0.222-0.496-0.496V10.753z M26.221,24.058
	l0.003,14.49l0.174,0.176c-0.937-0.207-1.844-1.42-1.846-2.08v-9.895c0.002-0.066,0.005-0.131,0.01-0.191l-1.026-0.002
	c-0.212,0.002-0.388-0.172-0.386-0.385l0.385-1.381c0.001-0.105,0.041-0.195,0.107-0.264c-1.789-1.004-3.001-2.914-2.998-5.111
	c0-3.234,2.619-5.856,5.857-5.856c1.634,0,3.108,0.669,4.17,1.747c1.042,1.057,1.686,2.507,1.686,4.109
	c0,0.011-0.002,0.021-0.002,0.033c-0.014,2.316-1.369,4.308-3.33,5.25c0.01,0.025,0.021,0.059,0.021,0.088l0.388,1.383
	c-0.002,0.213-0.176,0.389-0.391,0.391l-0.264-0.004l-1.02,0.002v1.67l1.026,1.021v0.371l-1.257,1.258l1.193,1.191l0.002,0.771
	l-1.41,1.412l0.896,0.895l0.004,1.154l-1.352,1.35V25.851L26.221,24.058z M43.033,40.641c0.112,0.121,0.157,0.29,0.12,0.451
	s-0.15,0.294-0.305,0.354l-1.641,0.645l0.518,1.687c0.049,0.157,0.017,0.329-0.087,0.458c-0.102,0.13-0.246,0.201-0.428,0.188
	l-1.759-0.13l-0.265,1.745c-0.024,0.163-0.129,0.304-0.277,0.375s-0.324,0.065-0.467-0.018l-1.528-0.881l-0.994,1.457
	c-0.094,0.136-0.248,0.218-0.413,0.218s-0.319-0.082-0.413-0.218l-0.994-1.457l-1.528,0.881c-0.143,0.083-0.318,0.089-0.467,0.018
	s-0.253-0.212-0.277-0.375l-0.265-1.745l-1.761,0.13c-0.179,0.008-0.326-0.06-0.428-0.188c-0.104-0.129-0.136-0.301-0.087-0.459
	l0.52-1.686l-0.564-0.222l-1.076-0.423c-0.154-0.061-0.268-0.193-0.305-0.354s0.008-0.329,0.12-0.451l1.197-1.295l-1.197-1.293
	c-0.112-0.121-0.157-0.29-0.12-0.451c0.036-0.161,0.15-0.293,0.304-0.354l1.642-0.646l-0.52-1.687
	c-0.049-0.158-0.017-0.33,0.087-0.459c0.103-0.13,0.264-0.198,0.428-0.188l1.761,0.132l0.265-1.745
	c0.024-0.163,0.128-0.304,0.277-0.375c0.147-0.071,0.322-0.066,0.467,0.017l1.528,0.881l0.994-1.456
	c0.188-0.271,0.639-0.271,0.826,0l0.994,1.456l0.905-0.521l0.623-0.359c0.145-0.082,0.32-0.087,0.467-0.017
	c0.149,0.071,0.253,0.212,0.277,0.375l0.265,1.745l1.759-0.132c0.164-0.012,0.325,0.057,0.428,0.188
	c0.104,0.129,0.136,0.301,0.087,0.458l-0.518,1.687l1.642,0.647c0.153,0.061,0.268,0.192,0.304,0.354
	c0.037,0.161-0.009,0.33-0.121,0.451l-1.198,1.293L43.033,40.641z"/>
<path fill="#F8F8EA" d="M43.153,37.602c-0.036-0.161-0.15-0.293-0.304-0.354l-1.642-0.647l0.518-1.687
	c0.049-0.157,0.017-0.329-0.087-0.458c-0.103-0.131-0.264-0.199-0.428-0.188L39.452,34.4l-0.265-1.745
	c-0.024-0.163-0.128-0.304-0.277-0.375c-0.146-0.07-0.322-0.065-0.467,0.017l-0.623,0.359l-0.905,0.521l-0.994-1.456
	c-0.188-0.271-0.639-0.271-0.826,0l-0.994,1.456l-1.528-0.881c-0.145-0.083-0.319-0.088-0.467-0.017
	c-0.149,0.071-0.253,0.212-0.277,0.375L31.563,34.4l-1.761-0.132c-0.164-0.011-0.325,0.058-0.428,0.188
	c-0.104,0.129-0.136,0.301-0.087,0.459l0.52,1.687l-1.642,0.646c-0.153,0.061-0.268,0.192-0.304,0.354
	c-0.037,0.161,0.008,0.33,0.12,0.451l1.197,1.293l-1.197,1.295c-0.112,0.122-0.157,0.29-0.12,0.451s0.15,0.294,0.305,0.354
	l1.076,0.423l0.564,0.222l-0.52,1.686c-0.049,0.158-0.017,0.33,0.087,0.459c0.102,0.128,0.249,0.195,0.428,0.188l1.761-0.13
	l0.265,1.745c0.024,0.163,0.129,0.304,0.277,0.375s0.324,0.065,0.467-0.018l1.528-0.881l0.994,1.457
	c0.094,0.136,0.248,0.218,0.413,0.218s0.319-0.082,0.413-0.218l0.994-1.457l1.528,0.881c0.143,0.083,0.318,0.089,0.467,0.018
	s0.253-0.212,0.277-0.375l0.265-1.745l1.759,0.13c0.182,0.014,0.326-0.058,0.428-0.188c0.104-0.129,0.136-0.301,0.087-0.458
	l-0.518-1.687l1.641-0.645c0.154-0.061,0.268-0.193,0.305-0.354s-0.008-0.33-0.12-0.451l-1.199-1.295l1.198-1.293
	C43.145,37.932,43.19,37.763,43.153,37.602z M40.785,39.686l1.017,1.098l-1.391,0.546c-0.243,0.096-0.372,0.363-0.295,0.612
	l0.438,1.43l-1.49-0.11c-0.285-0.029-0.492,0.166-0.531,0.424l-0.225,1.479l-1.295-0.747c-0.229-0.134-0.516-0.064-0.663,0.15
	l-0.843,1.235l-0.843-1.235c-0.097-0.141-0.253-0.218-0.413-0.218c-0.085,0-0.171,0.021-0.25,0.067l-1.295,0.747l-0.225-1.479
	c-0.039-0.258-0.252-0.453-0.531-0.424l-1.492,0.11l0.44-1.429c0.008-0.024,0.005-0.049,0.008-0.073
	c0.034-0.228-0.082-0.454-0.303-0.54l-1.391-0.546l1.015-1.098c0.177-0.192,0.177-0.488,0-0.68l-1.015-1.096l1.392-0.549
	c0.243-0.096,0.371-0.362,0.294-0.612l-0.44-1.429l1.492,0.112c0.279,0.019,0.492-0.166,0.531-0.424l0.225-1.479l1.295,0.746
	c0.228,0.129,0.515,0.063,0.663-0.151l0.843-1.233l0.843,1.233c0.147,0.214,0.434,0.28,0.663,0.151l0.807-0.465l0.488-0.281
	l0.225,1.479c0.039,0.258,0.246,0.442,0.531,0.424l1.49-0.112l-0.438,1.43c-0.077,0.249,0.051,0.516,0.294,0.611l1.392,0.549
	l-1.016,1.096C40.608,39.197,40.607,39.493,40.785,39.686z M39.914,39.346c0,2.434-1.973,4.406-4.406,4.406
	c-1.493,0-2.808-0.747-3.604-1.883c-0.502-0.716-0.802-1.583-0.802-2.523c0-2.434,1.973-4.406,4.406-4.406
	c0.852,0,1.639,0.253,2.313,0.671C39.073,36.387,39.914,37.764,39.914,39.346z"/>
<path fill="#29CC29" d="M11.96,33.397c-0.446,0-0.881,0.046-1.305,0.124c-3.106,0.573-5.51,3.145-5.822,6.334
	c-0.023,0.232-0.036,0.468-0.036,0.706c0,3.956,3.207,7.163,7.163,7.163c0.235,0,0.467-0.013,0.696-0.035
	c3.193-0.309,5.769-2.713,6.343-5.82c0.079-0.425,0.125-0.86,0.125-1.308C19.124,36.605,15.916,33.397,11.96,33.397z M16.015,40.697
	l-1.428,1.43l-2.649,2.65c-0.012,0.012-0.029,0.012-0.043,0.02c-0.018,0.009-0.035,0.024-0.054,0.024
	c-0.018,0-0.035-0.005-0.052-0.011c-0.05-0.022-0.084-0.072-0.084-0.126v-0.021c-0.021-0.024-0.051-0.043-0.051-0.076v-1.942h-0.999
	H8.108c-0.074,0-0.134-0.061-0.134-0.133v-0.413c0-0.001-0.001-0.001-0.001-0.002v-2.996c0-0.001,0.001-0.001,0.001-0.002v-0.486
	c0-0.074,0.06-0.134,0.134-0.134h0.376h2.17h0.999v-1.763v-0.18c0-0.054,0.033-0.104,0.083-0.124c0.017-0.006,0.034-0.01,0.051-0.01
	c0.001,0,0-0.002,0.001-0.002c0.017-0.013,0.035-0.016,0.052-0.016c0.019,0,0.036,0.016,0.054,0.025
	c0.014,0.006,0.031,0.006,0.043,0.019l4.077,4.08C16.069,40.563,16.069,40.646,16.015,40.697z"/>
</svg>
