<?xml version="1.0" encoding="utf-8"?>
<!-- Generator: Adobe Illustrator 16.0.0, SVG Export Plug-In . SVG Version: 6.00 Build 0)  -->
<!DOCTYPE svg PUBLIC "-//W3C//DTD SVG 1.1//EN" "http://www.w3.org/Graphics/SVG/1.1/DTD/svg11.dtd">
<svg version="1.1" id="Layer_1" xmlns="http://www.w3.org/2000/svg" xmlns:xlink="http://www.w3.org/1999/xlink" x="0px" y="0px"
	 width="24px" height="24px" viewBox="0 0 24 24" enable-background="new 0 0 24 24" xml:space="preserve">
<g>
	<path fill="#FFBD5C" d="M23.035,20.29L12.955,2.618C12.759,2.275,12.394,2.063,12,2.063c-0.396,0-0.76,0.212-0.955,0.555
		L0.964,20.29c-0.193,0.342-0.192,0.759,0.005,1.099c0.197,0.339,0.559,0.548,0.951,0.548h20.16c0.391,0,0.754-0.209,0.949-0.548
		C23.229,21.049,23.229,20.632,23.035,20.29z M12,7.066c0.677,0,1.229,0.549,1.229,1.228c0,0.214-0.115,1.81-0.293,4.218L12.898,13
		c-0.089,1.216-0.176,2.394-0.228,3.146l0.003,0.074c0,0.047-0.018,0.09-0.028,0.115c-0.065,0.291-0.331,0.508-0.644,0.508
		c-0.31,0-0.576-0.211-0.647-0.516c-0.01-0.016-0.019-0.051-0.021-0.088l-0.002-0.101c-0.052-0.772-0.142-1.989-0.235-3.235
		l-0.031-0.427c-0.175-2.388-0.291-3.971-0.291-4.185C10.775,7.616,11.324,7.066,12,7.066z M12,20.434
		c-0.72,0-1.301-0.582-1.301-1.301c0-0.718,0.582-1.303,1.301-1.303c0.718,0,1.301,0.585,1.301,1.303
		C13.301,19.852,12.72,20.434,12,20.434z"/>
</g>
</svg>
