<?xml version="1.0" encoding="utf-8"?>
<!-- Generator: Adobe Illustrator 16.0.0, SVG Export Plug-In . SVG Version: 6.00 Build 0)  -->
<!DOCTYPE svg PUBLIC "-//W3C//DTD SVG 1.1//EN" "http://www.w3.org/Graphics/SVG/1.1/DTD/svg11.dtd">
<svg version="1.1" id="Layer_1" xmlns="http://www.w3.org/2000/svg" xmlns:xlink="http://www.w3.org/1999/xlink" x="0px" y="0px"
	 width="48px" height="48px" viewBox="0 0 48 48" enable-background="new 0 0 48 48" xml:space="preserve">
<g>
	<path fill="#FFD597" d="M33.451,12.307c-0.066-0.07-0.098-0.167-0.084-0.272c0.056-0.495,0.082-0.938,0.082-1.359
		c0-2.807-1.09-5.364-3.07-7.201c-1.941-1.803-4.586-2.796-7.447-2.796c-2.86,0-5.504,0.992-7.446,2.795
		c-1.98,1.839-3.071,4.396-3.071,7.202c0,0.435,0.028,0.891,0.086,1.361c0.012,0.101-0.021,0.201-0.091,0.277
		c-0.808,0.878-1.217,1.813-1.217,2.781c0,1.355,0.809,2.656,2.34,3.763c0.459,0.33,0.972,0.636,1.566,0.927
		c0.077,0.038,0.136,0.1,0.169,0.176l0.082,0.178c0.553,1.436,1.3,2.672,2.234,3.695c0.111,0.14,0.188,0.229,0.253,0.3
		c0.785,0.78,1.659,1.371,2.601,1.755c0.792,0.322,1.6,0.488,2.402,0.492c0.021,0,0.026,0.002,0.032,0.002
		c0.007,0,0.013-0.002,0.032-0.005c0.006,0,0.149-0.011,0.155-0.011c0.213-0.006,0.387-0.019,0.537-0.035
		c0.147-0.014,0.295-0.041,0.458-0.07l0.157-0.031c0.01-0.002,0.019-0.004,0.028-0.005l0.001-0.001c0.002,0,0.005,0,0.007-0.002
		c0.362-0.076,0.738-0.197,1.154-0.369c2.154-0.895,3.994-2.94,5.067-5.657l0.136-0.257c0.035-0.066,0.093-0.119,0.162-0.153
		c0.512-0.251,0.986-0.527,1.408-0.819c1.633-1.126,2.495-2.465,2.495-3.871C34.671,14.128,34.264,13.192,33.451,12.307z"/>
	<path fill="#3385AD" d="M43.003,32.448c-0.815-1.291-2.171-2.093-3.662-2.18l-9.176-4.34c-0.456-0.217-1.001-0.104-1.33,0.279
		c-0.317,0.367-0.454,0.844-1.213,4.265c-0.485,2.188-1.09,4.911-1.649,6.644c-0.524,1.613-2.395,3.945-3.035,4.015
		c-0.67-0.059-2.536-2.382-3.038-4.001c-0.546-1.765-1.136-4.395-1.61-6.506c-0.796-3.553-0.938-4.048-1.261-4.418
		c-0.329-0.377-0.871-0.494-1.329-0.277l-9.175,4.34c-1.488,0.087-2.843,0.889-3.662,2.18c-0.483,0.768-0.74,1.646-0.74,2.539v7.729
		c0,2.607,2.097,4.729,4.672,4.729h32.277c2.577,0,4.673-2.121,4.673-4.729v-7.729C43.744,34.091,43.486,33.212,43.003,32.448z"/>
	<g>
		<path fill="#A30000" d="M24.664,31.165c-0.038-0.184-0.166-0.336-0.34-0.406c-0.176-0.072-0.372-0.052-0.527,0.055l-0.5,0.34
			c-0.07,0.047-0.128,0.109-0.17,0.182c-0.196,0.334-0.19,0.334-0.387,0c-0.042-0.072-0.1-0.135-0.17-0.182l-0.503-0.34
			c-0.156-0.105-0.354-0.125-0.526-0.055c-0.174,0.07-0.301,0.223-0.34,0.406l-0.799,3.844c-0.022,0.105-0.014,0.216,0.025,0.316
			c0.017,0.045,1.662,4.283,2.292,4.541c0.068,0.028,0.141,0.041,0.213,0.041c0.071,0,0.144-0.013,0.212-0.041
			c0.631-0.258,2.275-4.496,2.292-4.539c0.04-0.102,0.048-0.211,0.026-0.316L24.664,31.165z"/>
		<path fill="#A30000" d="M22.082,30.448c0.22,0.264,0.53,0.414,0.852,0.414s0.632-0.15,0.851-0.414l1.325-1.588
			c0.427-0.512,0.427-1.314,0.008-1.815l-0.062-0.079c-0.11-0.141-0.302-0.182-0.463-0.105c-0.279,0.138-0.513,0.231-0.792,0.311
			v-0.003l-0.114,0.028c-0.098,0.02-0.203,0.042-0.323,0.057c-0.1,0.016-0.213,0.025-0.365,0.031l-0.14,0.006
			c-0.531,0-1.073-0.134-1.614-0.396c-0.157-0.078-0.382,0.008-0.49,0.143c-0.425,0.512-0.425,1.311,0.001,1.824L22.082,30.448z"/>
	</g>
	<path fill="#A3A300" d="M44.945,39.417c0.117-0.604,0.182-1.225,0.182-1.866c0-0.639-0.064-1.263-0.182-1.863l-2.209-0.34
		c-0.15-0.492-0.343-0.966-0.586-1.412l1.326-1.802c-0.702-1.04-1.596-1.937-2.639-2.639l-1.802,1.328
		c-0.445-0.242-0.92-0.438-1.412-0.586l-0.337-2.211c-0.605-0.119-1.225-0.185-1.866-0.185c-0.639,0-1.263,0.065-1.866,0.185
		l-0.337,2.211c-0.492,0.148-0.967,0.344-1.415,0.586l-1.801-1.328c-1.041,0.702-1.936,1.599-2.638,2.639l1.324,1.802
		c-0.239,0.446-0.434,0.92-0.58,1.412l-2.214,0.34c-0.117,0.601-0.183,1.225-0.183,1.863c0,0.642,0.065,1.263,0.183,1.866
		l2.214,0.337c0.146,0.495,0.341,0.967,0.58,1.415l-1.324,1.799c0.702,1.043,1.597,1.938,2.638,2.64l1.804-1.324
		c0.445,0.241,0.92,0.437,1.412,0.58l0.337,2.212c0.604,0.117,1.228,0.185,1.866,0.185c0.642,0,1.261-0.067,1.866-0.185l0.337-2.212
		c0.492-0.144,0.967-0.339,1.412-0.58l1.802,1.324c1.043-0.702,1.937-1.597,2.639-2.64l-1.326-1.799
		c0.243-0.448,0.436-0.92,0.586-1.415L44.945,39.417z M35.421,42.241c-2.587,0-4.688-2.101-4.688-4.69s2.102-4.688,4.688-4.688
		c2.59,0,4.688,2.098,4.688,4.688S38.011,42.241,35.421,42.241z"/>
</g>
</svg>
