<?xml version="1.0" encoding="utf-8"?>
<!-- Generator: Adobe Illustrator 16.0.0, SVG Export Plug-In . SVG Version: 6.00 Build 0)  -->
<!DOCTYPE svg PUBLIC "-//W3C//DTD SVG 1.1//EN" "http://www.w3.org/Graphics/SVG/1.1/DTD/svg11.dtd">
<svg version="1.1" id="Layer_1" xmlns="http://www.w3.org/2000/svg" xmlns:xlink="http://www.w3.org/1999/xlink" x="0px" y="0px"
	 width="48px" height="48px" viewBox="0 0 48 48" enable-background="new 0 0 48 48" xml:space="preserve">
<g>
	<path fill="none" d="M37.607-72.482H25.281c-0.51,0-2.733,0.357-3.901,0.869h-6.067c-0.011,0-0.02,0-0.029,0
		c-0.978-0.447-1.435-1.17-1.435-2.258c0-1.247,0.605-2.686,1.092-3.84l0.063-0.147c0.061-0.144,0.025-0.312-0.09-0.419
		c-0.116-0.106-0.285-0.13-0.425-0.058c-4.536,2.329-5.025,6.546-5.026,8.251c0,0.664,0.068,1.08,0.071,1.098
		c0.023,0.145,0.136,0.262,0.276,0.301c0.053,0.014,0.525,0.164,0.592,0.875c0,0.176-0.163,0.418-0.29,0.568
		c-0.371,0.082-0.648,0.41-0.648,0.799v1.979c0,0.451,0.372,0.818,0.831,0.818h3.752c0.457,0,0.831-0.367,0.83-0.818l0.001-1.633
		c0.005-0.031,0.009-0.063,0.008-0.094c-0.001-0.143-0.106-0.713-0.402-0.939c-0.045-0.051-0.095-0.104-0.15-0.158
		c-0.145-0.146-0.215-0.285-0.216-0.426c0-0.502,0.857-1.105,1.316-1.348h5.728c1.082,0.568,3.577,0.973,4.12,0.973h12.326
		c0.699,0,1.265-0.67,1.266-1.494v-1.402C38.872-71.813,38.305-72.482,37.607-72.482z"/>
	<path fill="none" d="M30.74-98.664v10.42c0,0.314,0.256,0.569,0.569,0.569h10.42c0.252,0,0.243-0.164,0.318-0.391L31.131-98.982
		C30.904-98.907,30.74-98.916,30.74-98.664z"/>
	<path fill="#6633CC" d="M10.459-64.643v-1.646c0.104-0.027,0.198-0.082,0.274-0.158c0.074-0.072,0.731-0.744,0.659-1.479
		c-0.082-0.877-0.561-1.326-0.91-1.537c-0.013-0.158-0.024-0.369-0.023-0.619c0-1.543,0.396-4.311,2.903-6.344
		c-0.274,0.791-0.51,1.69-0.51,2.555c0,1.563,0.749,2.658,2.226,3.256c0.073,0.029,0.396,0.029,0.47-0.002h4.858l-0.001,0.559
		h-5.094c-0.148,0.002-0.29,0.057-0.401,0.154c-0.383,0.195-1.79,1.029-1.79,2.189c0,0.412,0.17,0.793,0.507,1.129
		c0.052,0.051,0.097,0.1,0.136,0.146c0.013,0.016,0.089,0.084,0.109,0.1c-0.004-0.002-0.007-0.004-0.009-0.004
		c-0.022,0,0.017,0.115,0.025,0.168l-0.008,1.533H10.459z"/>
	<path fill="#6633CC" d="M11.29-92.107c0-0.395-0.107-0.686-0.323-0.874c-0.215-0.188-0.553-0.283-1.013-0.283H9.187v2.358h0.554
		c0.518,0,0.905-0.103,1.163-0.308S11.29-91.716,11.29-92.107z"/>
	<path fill="#6633CC" d="M26.402-91.214c0.257-0.205,0.386-0.502,0.386-0.894c0-0.395-0.108-0.686-0.324-0.874
		c-0.215-0.188-0.553-0.283-1.013-0.283h-0.766v2.358h0.554C25.758-90.906,26.145-91.009,26.402-91.214z"/>
	<path fill="#6633CC" d="M42.931-88.598l-0.794-0.793l-9.639-9.638l-0.835-0.835c-0.068-0.069-0.155-0.115-0.248-0.135h-0.29H6.356
		c-0.607,0-1.1,0.492-1.1,1.1v45.789c0,0.607,0.493,1.1,1.1,1.1h35.609c0.607,0,1.1-0.492,1.1-1.1V-88.06v-0.289
		C43.045-88.442,42.999-88.529,42.931-88.598z M23.001-94.644h2.537c0.964,0,1.696,0.207,2.197,0.622
		c0.502,0.415,0.753,1.033,0.753,1.855c0,0.854-0.268,1.508-0.802,1.961c-0.534,0.452-1.294,0.679-2.279,0.679h-0.722v2.825h-1.684
		V-94.644z M14.489-94.644h1.684v3.113h3.146v-3.113h1.679v7.942h-1.679v-3.428h-3.146v3.428h-1.684V-94.644z M9.187-86.702H7.503
		v-7.942h2.537c0.963,0,1.696,0.207,2.197,0.622c0.502,0.415,0.752,1.033,0.752,1.855c0,0.854-0.267,1.508-0.801,1.961
		c-0.534,0.452-1.293,0.679-2.279,0.679H9.187V-86.702z M38.872-69.584c-0.001,0.824-0.566,1.494-1.266,1.494H25.28
		c-0.543,0-3.038-0.404-4.12-0.973h-5.728c-0.459,0.242-1.316,0.846-1.316,1.348c0.001,0.141,0.071,0.279,0.216,0.426
		c0.056,0.055,0.105,0.107,0.15,0.158c0.296,0.227,0.401,0.797,0.402,0.939c0.001,0.031-0.003,0.063-0.008,0.094l-0.001,1.633
		c0.001,0.451-0.373,0.818-0.83,0.818h-3.752c-0.459,0-0.831-0.367-0.831-0.818v-1.979c0-0.389,0.277-0.717,0.648-0.799
		c0.127-0.15,0.29-0.393,0.29-0.568c-0.066-0.711-0.539-0.861-0.592-0.875c-0.141-0.039-0.253-0.156-0.276-0.301
		c-0.003-0.018-0.071-0.434-0.071-1.098c0.001-1.705,0.49-5.922,5.026-8.251c0.14-0.072,0.309-0.048,0.425,0.058
		c0.115,0.107,0.15,0.275,0.09,0.419l-0.063,0.147c-0.486,1.154-1.092,2.593-1.092,3.84c0,1.088,0.457,1.811,1.435,2.258
		c0.01,0,0.019,0,0.029,0h6.067c1.168-0.512,3.392-0.869,3.901-0.869h12.326c0.697,0,1.265,0.67,1.265,1.496V-69.584z
		 M41.729-87.675H31.31c-0.313,0-0.569-0.255-0.569-0.569v-10.42c0-0.251,0.164-0.243,0.391-0.318l10.917,10.917
		C41.973-87.839,41.981-87.675,41.729-87.675z"/>
</g>
<g>
	<path fill="#855CD6" d="M8.522-71.172c0.228-2.229,1.278-5.88,5.507-8.051c0.029-0.015,0.062-0.021,0.092-0.034
		c-0.483-0.052-0.935-0.084-1.359-0.084c-0.541,0-1.105,0.04-1.755,0.125l-1.259,3.541L9.51-75.602
		c-0.587,0.185-1.182,0.433-1.767,0.738l-0.221,0.115l-1.236-0.587v6.71C6.819-69.643,7.595-70.506,8.522-71.172z"/>
	<path fill="#855CD6" d="M15.775-75.676l-0.274-0.77c-0.343,0.867-0.652,1.799-0.652,2.575c0,0.627,0.186,0.986,0.671,1.258h5.662
		c0.69-0.271,1.601-0.492,2.404-0.645l0.297-0.625c-0.722-0.928-1.555-1.761-2.482-2.481L18-74.748l-0.22-0.115
		c-0.586-0.306-1.181-0.555-1.768-0.738L15.775-75.676z"/>
	<path fill="#855CD6" d="M39.851-69.357c-0.106,1.268-1.066,2.268-2.244,2.268h-6.978l-0.195,2.74
		c0.909,0.541,1.88,0.967,2.894,1.268l2.321-2.469l0.224,0.023c0.59,0.064,1.17,0.078,1.722,0.039l0.225-0.014l2.215,2.555
		c0.571-0.141,1.057-0.291,1.512-0.469c0.194-0.076,0.392-0.164,0.592-0.256v-7.559C41.544-70.457,40.768-69.814,39.851-69.357z"/>
	<path fill="#855CD6" d="M41.024-86.798h-1.052l-1.768,1.88l-0.223-0.024c-0.592-0.065-1.172-0.079-1.724-0.041l-0.223,0.016
		l-1.587-1.831H31.72c-0.269,0.125-0.544,0.261-0.841,0.424l0.104,3.38l-0.175,0.14c-0.433,0.347-0.849,0.75-1.239,1.198
		l-0.147,0.169l-3.38-0.241c-0.541,0.909-0.967,1.88-1.268,2.894l2.469,2.321l-0.024,0.222c-0.064,0.592-0.078,1.172-0.04,1.724
		l0.016,0.223L26.2-73.482h4.385c-0.889-3.208,0.78-6.643,3.947-7.881c2.783-1.087,5.865-0.14,7.604,2.116v-6.439
		C42.137-86.3,41.639-86.798,41.024-86.798z"/>
	<path fill="#855CD6" d="M26.474-67.09H25.28c-0.608,0-3.018-0.379-4.348-0.973h-1.428c0.364,0.867,0.567,1.82,0.567,2.82
		c0,4.029-3.279,7.311-7.311,7.311c-2.811,0-5.252-1.598-6.475-3.93v6.711l1.237-0.588l0.22,0.115
		c0.585,0.307,1.179,0.555,1.767,0.738l0.237,0.074l0.6,1.688h4.829l0.6-1.688l0.237-0.074c0.586-0.184,1.181-0.432,1.767-0.738
		l0.22-0.115l3.401,1.617c0.927-0.721,1.76-1.555,2.482-2.482l-1.617-3.4l0.116-0.221c0.305-0.584,0.554-1.18,0.739-1.768
		l0.075-0.238l3.54-1.258c0.085-0.65,0.125-1.215,0.125-1.754c0-0.541-0.04-1.104-0.125-1.756L26.474-67.09z"/>
</g>
<path fill="none" d="M63.824,27.525c-0.01-0.013-0.02-0.026-0.029-0.039C63.805,27.499,63.814,27.513,63.824,27.525z"/>
<polygon fill="none" points="88.375,5.383 88.373,5.381 88.375,5.383 "/>
<path fill="none" d="M85.012,17.26c0.004,0.015,0.008,0.03,0.012,0.046C85.02,17.29,85.016,17.275,85.012,17.26z"/>
<path fill="none" d="M85.017,17.263c0.001,0.013,0.001,0.026,0.002,0.04C85.018,17.289,85.018,17.276,85.017,17.263z"/>
<path fill="none" d="M70.014,2.64c0.03-0.014,0.06-0.029,0.09-0.043C70.073,2.61,70.044,2.625,70.014,2.64z"/>
<path fill="none" d="M72.867,1.587c0.072-0.019,0.145-0.038,0.217-0.056C73.012,1.55,72.939,1.568,72.867,1.587z"/>
<path fill="none" d="M76.422,1.065c0.086-0.006,0.172-0.008,0.258-0.013C76.594,1.057,76.508,1.059,76.422,1.065z"/>
<path fill="none" d="M74.792,34.067c-0.024-0.003-0.049-0.007-0.073-0.011C74.743,34.061,74.768,34.064,74.792,34.067z"/>
<path fill="none" d="M81.363,33.699c-0.004,0.001-0.008,0.002-0.013,0.003C81.355,33.701,81.359,33.7,81.363,33.699z"/>
<polygon fill="none" points="69.915,32.576 69.915,32.575 69.903,32.57 "/>
<path fill="none" d="M85.734,15.464c0,0,7.13,19.475,7.191,19.575C91.155,30.249,85.734,15.464,85.734,15.464z"/>
<g>
	<path fill="#7EA9C0" d="M35.95,18.717c0.01,0.169,0.025,0.332,0.025,0.51c0,1.956-0.753,4.23-1.739,7.392l-2.28,7.62L23.692,9.66
		c1.377-0.073,2.617-0.219,2.617-0.219c1.232-0.146,1.087-1.956-0.146-1.885c0,0-3.704,0.292-6.093,0.292
		c-2.249,0-6.021-0.292-6.021-0.292c-1.236-0.071-1.381,1.813-0.146,1.885c0,0,1.165,0.146,2.397,0.219l3.563,9.762l-5.006,15.006
		L6.531,9.66c1.378-0.073,2.615-0.219,2.615-0.219c1.232-0.146,1.088-1.956-0.144-1.885c0,0-3.706,0.292-6.097,0.292
		c-0.346,0-0.746-0.008-1.167-0.02v8.955l8.525,23.357h4.566l6.111-17.76c0,0,4.722,12.9,6.513,17.755h-0.023
		c1.284,3.511,2.251,6.157,2.271,6.207c0.004,0.009,0.938-2.63,2.203-6.207h-0.046l6.852-19.285V20.08
		c-0.081-0.02-0.161-0.031-0.242-0.053C37.512,19.771,36.665,19.312,35.95,18.717z"/>
	<g>
		<path fill="#36789C" d="M14.831,40.141l12.601-0.005c-2.596-7.101-6.49-17.755-6.49-17.755L14.831,40.141z"/>
	</g>
	<g>
		<path fill="#36789C" d="M9.002,7.556c1.231-0.071,1.376,1.739,0.144,1.885c0,0-1.237,0.146-2.615,0.219l8.325,24.768l5.006-15.006
			L16.299,9.66c-1.232-0.073-2.397-0.219-2.397-0.219c-1.234-0.072-1.09-1.956,0.146-1.885c0,0,3.772,0.292,6.021,0.292
			c2.39,0,6.093-0.292,6.093-0.292c1.232-0.071,1.378,1.739,0.146,1.885c0,0-1.239,0.146-2.617,0.219l8.264,24.58l2.28-7.62
			c0.986-3.162,1.739-5.436,1.739-7.392c0-0.178-0.016-0.341-0.025-0.51c-1.822-1.521-2.744-3.962-2.237-6.409
			c-1.006-1.625-1.865-3.075-1.865-4.752c0-1.762,1.129-3.409,2.817-3.899h-7.399h-5.712H4.669c-1.517,0-2.931,1.525-2.931,3.043
			v1.129C2.16,7.84,2.56,7.848,2.906,7.848C5.296,7.848,9.002,7.556,9.002,7.556z"/>
	</g>
	<path fill="#7EA9C0" d="M31.848,7.556c0,1.677,0.859,3.127,1.865,4.752c0.025-0.125,0.047-0.25,0.08-0.375
		c0.657-2.449,2.606-4.204,4.918-4.732V6.7c0-0.044-0.013-0.087-0.015-0.131c-0.071-1.339-1.205-2.636-2.519-2.863
		c-0.131-0.022-0.263-0.049-0.396-0.049h-1.116C32.977,4.147,31.848,5.794,31.848,7.556z"/>
	<g>
		<circle fill="#FF9900" cx="40.179" cy="13.644" r="6.081"/>
		<path fill="#FFFFFF" d="M43.061,16.706c-0.077,0.288-0.332,0.164-0.332,0.164l-6.249-1.675c0,0-0.284-0.021-0.205-0.308
			c0.072-0.286,0.205-0.371,0.601-0.464c0.383-0.091,0.53-0.359,1.373-2.16l0.146-0.544c0.309-1.149,1.239-1.918,2.303-1.819
			l0.04-0.147c0.054-0.198,0.407-0.277,0.604-0.223c0.199,0.054,0.468,0.297,0.415,0.496l-0.041,0.148
			c0.971,0.445,1.393,1.576,1.085,2.726l-0.145,0.545c-0.168,1.981-0.172,2.287,0.113,2.558
			C43.063,16.279,43.138,16.42,43.061,16.706z M38.33,16.053c-0.149,0.688,0.248,1.271,0.88,1.439
			c0.637,0.171,1.268-0.137,1.486-0.805L38.33,16.053z"/>
	</g>
	<g>
		<g>
			<circle fill="#FFFFFF" cx="20.235" cy="23.199" r="2.436"/>
		</g>
		<g>
			<circle fill="#FFFFFF" cx="10.72" cy="23.199" r="2.436"/>
		</g>
		<g>
			<circle fill="#FFFFFF" cx="29.75" cy="23.199" r="2.435"/>
		</g>
	</g>
	<g>
		<path fill="#36789C" d="M1.739,37.811c0,1.516,1.414,2.33,2.931,2.33h5.595L1.739,16.784V37.811z"/>
	</g>
	<g>
		<path fill="#36789C" d="M35.854,40.136c1.487-0.025,2.857-0.834,2.857-2.325V20.851c0,0-4.139,11.739-6.806,19.285H35.854z"/>
	</g>
</g>
</svg>
